nimbus-sans-l_bold-condensed.sfdir

StartChar: exclam
Encoding: 33 33 1
Width: 273
Flags: W
HStem: 0 142<77 197 77 197> 698 20<74 200 200 200>
VStem: 74 126<535 718> 77 120<0 142 0 142>
LayerCount: 2
Fore
SplineSet
197 142 m 1xd0
 197 0 l 1
 77 0 l 1
 77 142 l 1
 197 142 l 1xd0
200 535 m 1xe0
 167 199 l 1
 107 199 l 1
 74 535 l 1
 74 718 l 1
 200 718 l 1
 200 535 l 1xe0
EndSplineSet
EndChar

StartChar: quotedbl
Encoding: 34 34 2
Width: 389
Flags: MW
HStem: 698 20<80 160 160 160 228 308 308 308>
VStem: 80 80<447 718 447 718> 228 80<447 718 447 718>
LayerCount: 2
Fore
SplineSet
228 447 m 1
 228 718 l 1
 308 718 l 1
 308 447 l 1
 228 447 l 1
80 447 m 1
 80 718 l 1
 160 718 l 1
 160 447 l 1
 80 447 l 1
EndSplineSet
EndChar

StartChar: numbersign
Encoding: 35 35 3
Width: 456
Flags: MW
HStem: 0 20 199 90<25 94 15 104 181 251 25 171 338 407> 409 90<49 118 39 128 49 195 205 275 362 431>
LayerCount: 2
Fore
SplineSet
417 289 m 1
 407 199 l 1
 328 199 l 1
 305 0 l 1
 228 0 l 1
 251 199 l 1
 171 199 l 1
 149 0 l 1
 72 0 l 1
 94 199 l 1
 15 199 l 1
 25 289 l 1
 104 289 l 1
 118 409 l 1
 39 409 l 1
 49 499 l 1
 128 499 l 1
 151 698 l 1
 228 698 l 1
 205 499 l 1
 285 499 l 1
 307 698 l 1
 384 698 l 1
 362 499 l 1
 441 499 l 1
 431 409 l 1
 352 409 l 1
 338 289 l 1
 417 289 l 1
275 409 m 1
 195 409 l 1
 181 289 l 1
 261 289 l 1
 275 409 l 1
EndSplineSet
EndChar

StartChar: dollar
Encoding: 36 36 4
Width: 456
Flags: MW
VStem: 37 103<498 540.5> 209 38<-115 -17 -115 -17 89 282 431 604 710 775> 319 110<163 208.5>
LayerCount: 2
Fore
SplineSet
420 501 m 1
 314 501 l 1
 309 576 291 604 247 604 c 1
 247 417 l 1
 317 389 349 371 374 348 c 0
 410 315 429 263 429 201 c 0
 429 125 402 61 354 22 c 0
 325 -1 300 -11 247 -17 c 1
 247 -115 l 1
 209 -115 l 1
 209 -17 l 1
 77 -3 24 63 25 215 c 1
 132 215 l 1
 137 129 154 102 209 89 c 1
 209 299 l 1
 143 321 116 336 87 364 c 0
 54 397 37 444 37 503 c 0
 37 578 64 642 111 678 c 0
 139 699 161 706 209 710 c 1
 209 775 l 1
 247 775 l 1
 247 710 l 1
 358 697 411 633 420 501 c 1
209 431 m 1
 209 604 l 1
 165 599 140 570 140 522 c 0
 140 474 161 446 209 431 c 1
247 282 m 1
 247 89 l 1
 294 95 319 129 319 184 c 0
 319 233 298 262 247 282 c 1
EndSplineSet
EndChar

StartChar: percent
Encoding: 37 37 5
Width: 729
Flags: W
HStem: -19 20 -12 70<562.5 596 562.5 622.5> 296 70<562.5 596.5> 332 70<132.5 166 132.5 192> 640 70<132.5 166.5>
VStem: 23 82<473.5 564 473.5 584.5> 194 82<476 565.5> 453 82<130 220.5 130 240.5> 624 82<132.5 222.5>
LayerCount: 2
Fore
SplineSet
151 710 m 0x9f80
 235 710 276 647 276 521 c 0
 276 394 234 332 150 332 c 0
 65 332 23 394 23 520 c 0
 23 649 64 710 151 710 c 0x9f80
150 640 m 0
 115 640 105 612 105 516 c 0
 105 431 116 402 149 402 c 0
 183 402 194 431 194 521 c 0
 194 610 183 640 150 640 c 0
556 710 m 1
 230 -19 l 1
 169 -19 l 1
 495 710 l 1
 556 710 l 1
581 366 m 0x6780
 665 366 706 303 706 177 c 0
 706 50 665 -12 580 -12 c 0
 495 -12 453 50 453 176 c 0
 453 305 494 366 581 366 c 0x6780
580 296 m 0
 545 296 535 268 535 173 c 0
 535 87 546 58 579 58 c 0
 613 58 624 87 624 178 c 0
 624 267 613 296 580 296 c 0
EndSplineSet
EndChar

StartChar: ampersand
Encoding: 38 38 6
Width: 592
Flags: W
HStem: -19 118<219 259.5 219 266> 611 107<255 283.5>
VStem: 44 115<170.5 221 170.5 232> 116 105<542.5 571.5 542.5 601> 317 100<536 570.5>
LayerCount: 2
Fore
SplineSet
468 157 m 1xd8
 575 0 l 1
 436 0 l 1
 396 61 l 1
 347 4 300 -19 232 -19 c 0
 121 -19 44 67 44 190 c 0xe0
 44 274 79 336 157 394 c 1
 170 403 l 1
 132 457 116 503 116 554 c 0
 116 648 181 718 269 718 c 0
 355 718 417 649 417 554 c 0
 417 483 387 431 320 381 c 1
 403 255 l 1
 421 290 430 322 434 373 c 1
 536 373 l 1
 528 279 512 227 468 157 c 1xd8
264 464 m 1xd8
 303 497 317 519 317 553 c 0
 317 588 298 611 269 611 c 0
 241 611 221 588 221 555 c 0
 221 530 232 507 264 464 c 1xd8
337 149 m 1xe0
 229 314 l 1
 171 262 159 243 159 199 c 0
 159 142 195 99 243 99 c 0
 276 99 303 114 337 149 c 1xe0
EndSplineSet
EndChar

StartChar: quotesingle
Encoding: 169 39 103
Width: 195
Flags: MW
HStem: 698 20<57 138 138 138>
VStem: 57 81<447 718 447 718>
LayerCount: 2
Fore
SplineSet
57 447 m 1
 57 718 l 1
 138 718 l 1
 138 447 l 1
 57 447 l 1
EndSplineSet
EndChar

StartChar: parenleft
Encoding: 40 40 8
Width: 273
Flags: MW
HStem: -207 20 714 20<173 257 257 257>
VStem: 29 118<181 299>
LayerCount: 2
Fore
SplineSet
257 -207 m 1
 173 -207 l 1
 70 -33 29 99 29 263 c 0
 29 335 39 408 59 479 c 0
 83 567 109 625 173 734 c 1
 257 734 l 1
 175 557 147 437 147 262 c 0
 147 90 175 -31 257 -207 c 1
EndSplineSet
EndChar

StartChar: parenright
Encoding: 41 41 9
Width: 273
Flags: MW
HStem: -207 20 714 20<16 100 100 100>
VStem: 126 118<227 344.5 227 349.5>
LayerCount: 2
Fore
SplineSet
16 734 m 1
 100 734 l 1
 205 555 244 426 244 263 c 0
 244 191 234 119 214 47 c 0
 190 -42 164 -100 100 -207 c 1
 16 -207 l 1
 97 -34 126 89 126 264 c 0
 126 435 98 554 16 734 c 1
EndSplineSet
EndChar

StartChar: asterisk
Encoding: 42 42 10
Width: 319
Flags: MW
HStem: 698 20<125 194 194 194>
VStem: 125 69<599 718 599 718>
LayerCount: 2
Fore
SplineSet
277 633 m 1
 297 560 l 1
 211 528 l 1
 267 431 l 1
 216 387 l 1
 160 478 l 1
 103 387 l 1
 52 431 l 1
 107 528 l 1
 22 560 l 1
 41 633 l 1
 125 599 l 1
 125 718 l 1
 194 718 l 1
 194 599 l 1
 277 633 l 1
EndSplineSet
EndChar

StartChar: plus
Encoding: 43 43 11
Width: 479
Flags: MW
HStem: 0 20 197 112<33 194 33 194 286 446 33 286>
VStem: 194 92<0 197 0 197 309 506>
LayerCount: 2
Fore
SplineSet
194 309 m 1
 194 506 l 1
 286 506 l 1
 286 309 l 1
 446 309 l 1
 446 197 l 1
 286 197 l 1
 286 0 l 1
 194 0 l 1
 194 197 l 1
 33 197 l 1
 33 309 l 1
 194 309 l 1
EndSplineSet
EndChar

StartChar: comma
Encoding: 44 44 12
Width: 228
Flags: MW
HStem: 0 147<52 121 52 175>
VStem: 52 123<-168 20 -115 20 0 20 20 147>
LayerCount: 2
Fore
SplineSet
175 147 m 1
 175 20 l 2
 175 -85 133 -150 52 -168 c 1
 52 -115 l 1
 99 -96 116 -67 121 0 c 1
 52 0 l 1
 52 147 l 1
 175 147 l 1
EndSplineSet
EndChar

StartChar: hyphen
Encoding: 45 45 13
Width: 273
Flags: MW
HStem: 215 130<22 251 22 251>
VStem: 22 229<215 345 215 345>
LayerCount: 2
Fore
SplineSet
251 345 m 1
 251 215 l 1
 22 215 l 1
 22 345 l 1
 251 345 l 1
EndSplineSet
EndChar

StartChar: period
Encoding: 46 46 14
Width: 228
Flags: MW
HStem: 0 147<52 175 52 175>
VStem: 52 123<0 147 0 147>
LayerCount: 2
Fore
SplineSet
175 147 m 1
 175 0 l 1
 52 0 l 1
 52 147 l 1
 175 147 l 1
EndSplineSet
EndChar

StartChar: slash
Encoding: 47 47 15
Width: 228
Flags: MW
HStem: -19 20 717 20<159 255 255 255>
LayerCount: 2
Fore
SplineSet
255 737 m 1
 69 -19 l 1
 -27 -19 l 1
 159 737 l 1
 255 737 l 1
EndSplineSet
EndChar

StartChar: zero
Encoding: 48 48 16
Width: 456
Flags: MW
HStem: -19 112<197 259.5 197 264.5> 598 112<196.5 257.5 195.5 260>
VStem: 26 118<246 402> 312 118<294.5 387.5 294.5 440>
LayerCount: 2
Fore
SplineSet
231 710 m 0
 284 710 329 690 360 652 c 1
 379 627 393 601 401 574 c 0
 420 505 430 429 430 346 c 0
 430 243 413 134 388 84 c 0
 354 15 301 -19 228 -19 c 0
 92 -19 26 99 26 343 c 0
 26 461 46 571 76 623 c 0
 111 683 160 710 231 710 c 0
229 598 m 0
 164 598 144 538 144 336 c 0
 144 156 166 93 228 93 c 0
 291 93 312 156 312 346 c 0
 312 534 291 598 229 598 c 0
EndSplineSet
EndChar

StartChar: one
Encoding: 49 49 17
Width: 456
Flags: MW
HStem: 0 20
VStem: 196 114<0 489 489 489>
LayerCount: 2
Fore
SplineSet
57 489 m 1
 57 587 l 1
 73 587 l 2
 161 587 210 629 216 710 c 1
 310 710 l 1
 310 0 l 1
 196 0 l 1
 196 489 l 1
 57 489 l 1
EndSplineSet
EndChar

StartChar: two
Encoding: 50 50 18
Width: 456
Flags: MW
HStem: 0 123<166 419 166 419> 592 118<192.5 245.5>
VStem: 303 115<460.5 519.5>
LayerCount: 2
Fore
SplineSet
139 459 m 1
 28 459 l 1
 30 541 39 581 64 624 c 0
 96 680 151 710 219 710 c 0
 337 710 418 619 418 487 c 0
 418 415 396 355 349 303 c 0
 335 287 335 287 255 218 c 0
 190 161 179 150 166 123 c 1
 419 123 l 1
 419 0 l 1
 21 0 l 1
 27 143 60 200 212 331 c 1
 279 392 303 433 303 488 c 0
 303 551 270 592 221 592 c 0
 164 592 141 554 139 459 c 1
EndSplineSet
EndChar

StartChar: three
Encoding: 51 51 19
Width: 456
Flags: W
HStem: -19 112<192 244 192 281.5> 598 112<191 239.5>
VStem: 290 115<483 533> 305 118<173.5 245>
LayerCount: 2
Fore
SplineSet
175 311 m 1xd0
 175 411 l 1
 193 411 l 2
 259 411 290 441 290 504 c 0
 290 562 262 598 217 598 c 0
 165 598 140 560 139 482 c 1
 32 482 l 1
 35 551 43 586 65 625 c 0
 96 679 153 710 221 710 c 0
 332 710 405 633 405 516 c 0xe0
 405 450 383 407 334 376 c 1
 393 350 423 294 423 210 c 0
 423 74 341 -19 222 -19 c 0
 160 -19 106 4 72 45 c 0
 38 86 25 132 22 218 c 1
 135 218 l 1
 135 209 l 1
 136 135 166 93 218 93 c 0
 270 93 305 139 305 208 c 0
 305 282 270 310 175 311 c 1xd0
EndSplineSet
EndChar

StartChar: four
Encoding: 52 52 20
Width: 456
Flags: MW
HStem: 0 20 157 108<107 252 107 252 22 252 366 431>
VStem: 252 114<0 157 0 157 0 265>
LayerCount: 2
Fore
SplineSet
431 265 m 1
 431 157 l 1
 366 157 l 1
 366 0 l 1
 252 0 l 1
 252 157 l 1
 22 157 l 1
 22 277 l 1
 236 710 l 1
 366 710 l 1
 366 265 l 1
 431 265 l 1
107 265 m 1
 252 265 l 1
 253 447 253 483 255 574 c 1
 107 265 l 1
EndSplineSet
EndChar

StartChar: five
Encoding: 53 53 21
Width: 456
Flags: MW
HStem: -19 112<193.5 243.5 193.5 278.5> 353 112<224 244> 580 118<163 163 163 400>
VStem: 305 118<185.5 264.5>
LayerCount: 2
Fore
SplineSet
163 580 m 1
 142 426 l 1
 177 454 204 465 244 465 c 0
 349 465 423 371 423 237 c 0
 423 83 341 -19 216 -19 c 0
 143 -19 83 16 50 79 c 0
 32 112 26 137 22 190 c 1
 137 190 l 1
 144 124 170 93 217 93 c 0
 270 93 305 146 305 225 c 0
 305 304 271 353 217 353 c 0
 183 353 160 337 142 302 c 1
 40 308 l 1
 80 698 l 1
 400 698 l 1
 400 580 l 1
 163 580 l 1
EndSplineSet
EndChar

StartChar: six
Encoding: 54 54 22
Width: 456
Flags: MW
HStem: -19 112<203.5 255 203.5 289> 347 112<222 252.5> 598 112<203.5 253.5>
VStem: 25 115<220.5 262.5 186.5 403> 311 115<185 262.5>
LayerCount: 2
Fore
SplineSet
414 530 m 1
 300 530 l 1
 295 576 273 598 234 598 c 0
 173 598 146 542 137 397 c 1
 166 442 197 459 247 459 c 0
 354 459 426 368 426 234 c 0
 426 84 347 -19 231 -19 c 0
 93 -19 25 100 25 341 c 0
 25 465 42 554 77 614 c 1
 112 677 168 710 235 710 c 0
 297 710 346 687 376 645 c 0
 398 614 405 593 414 530 c 1
227 347 m 0
 174 347 140 300 140 225 c 0
 140 148 177 93 230 93 c 0
 280 93 311 144 311 226 c 0
 311 299 278 347 227 347 c 0
EndSplineSet
EndChar

StartChar: seven
Encoding: 55 55 23
Width: 456
Flags: MW
HStem: 0 20 575 123<22 310 20 433>
LayerCount: 2
Fore
SplineSet
433 698 m 1
 433 591 l 1
 302 414 234 225 220 0 c 1
 102 0 l 1
 114 206 186 404 310 575 c 1
 20 575 l 1
 22 698 l 1
 433 698 l 1
EndSplineSet
EndChar

StartChar: eight
Encoding: 56 56 24
Width: 456
Flags: W
HStem: -19 112<202.5 253 202.5 287> 316 106<207.5 250.5 207.5 253> 598 112<207.5 251.5>
VStem: 26 118<171.5 240 171.5 245> 44 110<486 538 486 574> 300 110<490.5 536> 312 118<172.5 238.5>
LayerCount: 2
Fore
SplineSet
343 382 m 1xec
 407 339 430 295 430 214 c 0
 430 75 348 -19 226 -19 c 0
 104 -19 26 67 26 203 c 0xf2
 26 287 52 337 115 377 c 1
 64 411 44 451 44 516 c 0
 44 632 118 710 227 710 c 0
 335 710 410 634 410 523 c 0
 410 458 390 415 343 382 c 1xec
231 598 m 0
 184 598 154 564 154 512 c 0
 154 460 186 422 229 422 c 0
 272 422 300 457 300 510 c 0
 300 562 272 598 231 598 c 0
228 316 m 0xf2
 176 316 144 274 144 206 c 0
 144 137 177 93 228 93 c 0
 278 93 312 139 312 206 c 0
 312 271 278 316 228 316 c 0xf2
EndSplineSet
EndChar

StartChar: nine
Encoding: 57 57 25
Width: 456
Flags: MW
HStem: -19 112<197.5 231.5 197.5 242.5> 233 112<196 228> 595 115<198 251>
VStem: 25 115<432 512.5 432 538> 310 118<430 472.5 283.5 507>
LayerCount: 2
Fore
SplineSet
37 164 m 1
 150 164 l 1
 159 114 179 93 216 93 c 0
 247 93 271 111 288 147 c 1
 305 180 311 218 314 296 c 1
 287 251 254 233 202 233 c 0
 96 233 25 325 25 462 c 0
 25 614 101 710 223 710 c 0
 359 710 428 591 428 354 c 0
 428 213 403 111 352 47 c 0
 318 4 270 -19 215 -19 c 0
 151 -19 97 12 65 67 c 0
 49 96 42 118 37 164 c 1
225 595 m 0
 171 595 140 551 140 474 c 0
 140 390 169 345 223 345 c 0
 277 345 310 392 310 468 c 0
 310 546 277 595 225 595 c 0
EndSplineSet
EndChar

StartChar: colon
Encoding: 58 58 26
Width: 273
Flags: MW
HStem: 0 147<75 198 75 198> 365 147<75 198 75 198>
VStem: 75 123<0 147 0 147 365 512>
LayerCount: 2
Fore
SplineSet
198 147 m 1
 198 0 l 1
 75 0 l 1
 75 147 l 1
 198 147 l 1
198 512 m 1
 198 365 l 1
 75 365 l 1
 75 512 l 1
 198 512 l 1
EndSplineSet
EndChar

StartChar: semicolon
Encoding: 59 59 27
Width: 273
Flags: MW
HStem: 0 147<75 144 75 198> 365 147<75 198 75 198>
VStem: 75 123<-168 20 -115 20 0 20 20 147 365 512>
LayerCount: 2
Fore
SplineSet
198 147 m 1
 198 20 l 2
 198 -58 178 -109 134 -141 c 0
 110 -158 95 -165 75 -168 c 1
 75 -115 l 1
 122 -96 139 -67 144 0 c 1
 75 0 l 1
 75 147 l 1
 198 147 l 1
198 512 m 1
 198 365 l 1
 75 365 l 1
 75 512 l 1
 198 512 l 1
EndSplineSet
EndChar

StartChar: less
Encoding: 60 60 28
Width: 479
Flags: MW
HStem: -15 20
LayerCount: 2
Fore
SplineSet
448 -15 m 1
 31 201 l 1
 31 305 l 1
 448 521 l 1
 448 399 l 1
 164 253 l 1
 448 107 l 1
 448 -15 l 1
EndSplineSet
EndChar

StartChar: equal
Encoding: 61 61 29
Width: 479
Flags: MW
HStem: 87 112<33 446 33 446> 307 112<33 446 33 446>
LayerCount: 2
Fore
SplineSet
446 419 m 1
 446 307 l 1
 33 307 l 1
 33 419 l 1
 446 419 l 1
446 199 m 1
 446 87 l 1
 33 87 l 1
 33 199 l 1
 446 199 l 1
EndSplineSet
EndChar

StartChar: greater
Encoding: 62 62 30
Width: 479
Flags: MW
HStem: -15 20
LayerCount: 2
Fore
SplineSet
31 -15 m 1
 31 107 l 1
 315 253 l 1
 31 399 l 1
 31 521 l 1
 448 305 l 1
 448 201 l 1
 31 -15 l 1
EndSplineSet
EndChar

StartChar: question
Encoding: 63 63 31
Width: 501
Flags: MW
HStem: 0 142<195 315 195 315> 609 118<237 277>
VStem: 195 120<0 142 0 142> 333 123<491.5 542>
LayerCount: 2
Fore
SplineSet
306 208 m 1
 198 208 l 1
 198 315 212 349 282 411 c 0
 320 445 333 471 333 512 c 0
 333 572 302 609 252 609 c 0
 222 609 197 595 183 570 c 0
 176 558 165 521 165 509 c 2
 165 493 l 1
 49 493 l 1
 51 561 59 596 83 636 c 0
 117 694 177 727 248 727 c 0
 373 727 456 644 456 519 c 0
 456 442 433 398 357 330 c 0
 316 294 307 274 306 208 c 1
315 142 m 1
 315 0 l 1
 195 0 l 1
 195 142 l 1
 315 142 l 1
EndSplineSet
EndChar

StartChar: at
Encoding: 64 64 32
Width: 800
Flags: W
HStem: -19 80<351 443.5> 137 92<478 568.5> 137 100<360 373 360 513.5> 461 97<386 424.5 354 430.5> 657 80<345 480>
VStem: 97 82<270 445.5 270 463.5> 227 88<298 360.5 298 382> 635 67<385.5 481>
LayerCount: 2
Fore
SplineSet
501 493 m 1x37
 512 546 l 1
 584 546 l 1
 536 291 l 2
 533 272 531 257 531 248 c 0
 531 236 536 229 544 229 c 0
 593 229 635 310 635 406 c 0
 635 556 546 657 414 657 c 0
 276 657 179 534 179 357 c 0
 179 183 279 61 423 61 c 0
 489 61 541 85 595 142 c 1
 668 142 l 1
 628 77 604 51 560 23 c 0
 516 -5 469 -19 418 -19 c 0
 237 -19 97 146 97 358 c 0
 97 569 237 737 414 737 c 0
 576 737 702 601 702 425 c 0
 702 346 678 273 635 220 c 0
 595 171 536 137 491 137 c 0xdf
 465 137 449 157 446 193 c 1
 415 154 388 137 358 137 c 0
 286 137 227 218 227 316 c 0
 227 448 306 558 402 558 c 0
 447 558 475 539 501 493 c 1x37
412 461 m 0
 360 461 315 397 315 324 c 0
 315 272 341 237 379 237 c 0x37
 431 237 477 302 477 375 c 0
 477 425 449 461 412 461 c 0
EndSplineSet
EndChar

StartChar: A
Encoding: 65 65 33
Width: 592
Flags: MW
HStem: 0 20 148 123<187 370 220 370 220 404> 698 20<226 368 368 368>
LayerCount: 2
Fore
SplineSet
187 148 m 1
 146 0 l 1
 16 0 l 1
 226 718 l 1
 368 718 l 1
 576 0 l 1
 442 0 l 1
 404 148 l 1
 187 148 l 1
296 559 m 1
 220 271 l 1
 370 271 l 1
 296 559 l 1
EndSplineSet
EndChar

StartChar: B
Encoding: 66 66 34
Width: 592
Flags: W
HStem: 0 123<62 331 180 311> 315 122<180 324 180 324 324 337> 595 123<180 180 180 321>
VStem: 62 118<123 315 437 595> 412 118<495.5 545> 426 123<192 235.5 186.5 253.5>
LayerCount: 2
Fore
SplineSet
62 0 m 1xf4
 62 718 l 1
 348 718 l 2
 461 718 530 647 530 531 c 0xf8
 530 460 509 418 458 387 c 1
 495 367 511 351 527 320 c 0
 541 292 549 255 549 216 c 0
 549 157 532 105 498 64 c 0
 457 15 413 0 311 0 c 2
 62 0 l 1xf4
180 315 m 1
 180 123 l 1
 331 123 l 2
 393 123 426 159 426 225 c 0xf4
 426 282 393 315 337 315 c 2
 180 315 l 1
180 595 m 1
 180 437 l 1
 324 437 l 2
 380 437 412 466 412 519 c 0xf8
 412 571 384 595 321 595 c 2
 180 595 l 1
EndSplineSet
EndChar

StartChar: C
Encoding: 67 67 35
Width: 592
Flags: MW
HStem: -19 130<262 329.5 262 345> 607 130<264.5 332.5>
VStem: 36 125<279.5 435 279.5 474>
LayerCount: 2
Fore
SplineSet
561 483 m 1
 438 483 l 1
 429 522 422 538 409 559 c 1
 388 589 353 607 312 607 c 0
 217 607 161 514 161 356 c 0
 161 203 216 111 308 111 c 0
 351 111 386 130 410 167 c 0
 423 188 429 206 438 246 c 1
 561 246 l 1
 545 161 529 120 495 74 c 0
 450 13 384 -19 306 -19 c 0
 139 -19 36 124 36 357 c 0
 36 591 141 737 309 737 c 0
 402 737 479 691 524 610 c 0
 546 570 555 540 561 483 c 1
EndSplineSet
EndChar

StartChar: D
Encoding: 68 68 36
Width: 592
Flags: MW
HStem: 0 123<62 302 182 302 302 317> 595 123<182 182 182 300>
VStem: 62 120<123 595 123 718> 437 125<312 412.5>
LayerCount: 2
Fore
SplineSet
62 0 m 1
 62 718 l 1
 322 718 l 2
 474 718 562 592 562 374 c 0
 562 250 532 144 478 75 c 1
 439 27 382 0 317 0 c 2
 62 0 l 1
182 595 m 1
 182 123 l 1
 302 123 l 2
 387 123 437 214 437 370 c 0
 437 455 421 520 391 557 c 0
 370 582 340 595 300 595 c 2
 182 595 l 1
EndSplineSet
EndChar

StartChar: F
Encoding: 70 70 38
Width: 501
Flags: MW
HStem: 0 20 302 127<185 444 185 444> 591 127<185 481 185 185>
VStem: 62 123<0 302 429 591>
LayerCount: 2
Fore
SplineSet
185 302 m 1
 185 0 l 1
 62 0 l 1
 62 718 l 1
 481 718 l 1
 481 591 l 1
 185 591 l 1
 185 429 l 1
 444 429 l 1
 444 302 l 1
 185 302 l 1
EndSplineSet
EndChar

StartChar: G
Encoding: 71 71 39
Width: 638
Flags: MW
HStem: -19 127<274.5 331.5> 265 122<338 585 338 476> 614 123<276 359.5>
VStem: 36 125<276 434 276 471> 338 247<265 387 0 387>
LayerCount: 2
Fore
SplineSet
338 265 m 1
 338 387 l 1
 585 387 l 1
 585 0 l 1
 503 0 l 1
 490 90 l 1
 466 56 454 42 436 27 c 0
 401 -4 357 -19 306 -19 c 0
 145 -19 36 131 36 354 c 0
 36 588 148 737 324 737 c 0
 422 737 501 693 547 612 c 0
 568 575 576 547 583 495 c 1
 459 495 l 1
 447 565 392 614 327 614 c 0
 225 614 161 514 161 354 c 0
 161 198 222 108 327 108 c 0
 365 108 398 122 425 151 c 0
 450 178 462 205 476 265 c 1
 338 265 l 1
EndSplineSet
EndChar

StartChar: H
Encoding: 72 72 40
Width: 592
Flags: MW
HStem: 0 20 323 123<181 411 181 411> 698 20<58 181 181 181 411 534 534 534>
VStem: 58 123<0 323 446 718> 411 123<0 323 323 323 446 718 0 718>
LayerCount: 2
Fore
SplineSet
411 323 m 1
 181 323 l 1
 181 0 l 1
 58 0 l 1
 58 718 l 1
 181 718 l 1
 181 446 l 1
 411 446 l 1
 411 718 l 1
 534 718 l 1
 534 0 l 1
 411 0 l 1
 411 323 l 1
EndSplineSet
EndChar

StartChar: I
Encoding: 73 73 41
Width: 228
Flags: MW
HStem: 0 20 698 20<52 175 175 175>
VStem: 52 123<0 718 0 718>
LayerCount: 2
Fore
SplineSet
175 718 m 1
 175 0 l 1
 52 0 l 1
 52 718 l 1
 175 718 l 1
EndSplineSet
EndChar

StartChar: J
Encoding: 74 74 42
Width: 456
Flags: MW
HStem: -18 122<176 230.5 176 271> 698 20<274 397 397 397>
VStem: 274 123<208 718>
LayerCount: 2
Fore
SplineSet
397 718 m 1
 397 208 l 2
 397 56 335 -18 207 -18 c 0
 129 -18 73 12 45 70 c 1
 24 111 18 160 18 271 c 1
 133 271 l 1
 134 135 147 104 205 104 c 0
 256 104 274 131 274 208 c 2
 274 718 l 1
 397 718 l 1
EndSplineSet
EndChar

StartChar: K
Encoding: 75 75 43
Width: 592
Flags: MW
HStem: 0 20 698 20<71 194 194 194 419 578 578 578>
VStem: 71 123<0 243 426 718>
LayerCount: 2
Fore
SplineSet
194 243 m 1
 194 0 l 1
 71 0 l 1
 71 718 l 1
 194 718 l 1
 194 426 l 1
 419 718 l 1
 578 718 l 1
 338 424 l 1
 592 0 l 1
 434 0 l 1
 251 315 l 1
 194 243 l 1
EndSplineSet
EndChar

StartChar: L
Encoding: 76 76 44
Width: 501
Flags: MW
HStem: 0 130<185 478 185 478 62 478> 698 20<62 185 185 185>
VStem: 62 123<130 718 130 718 130 718>
LayerCount: 2
Fore
SplineSet
185 718 m 1
 185 130 l 1
 478 130 l 1
 478 0 l 1
 62 0 l 1
 62 718 l 1
 185 718 l 1
EndSplineSet
EndChar

StartChar: M
Encoding: 77 77 45
Width: 683
Flags: MW
HStem: 0 20 698 20<57 236 236 236 450 627 627 627>
VStem: 57 114<0 609 0 718 0 718> 513 114<0 609 609 609>
LayerCount: 2
Fore
SplineSet
627 718 m 1
 627 0 l 1
 513 0 l 1
 513 609 l 1
 401 0 l 1
 280 0 l 1
 171 609 l 1
 171 0 l 1
 57 0 l 1
 57 718 l 1
 236 718 l 1
 344 148 l 1
 450 718 l 1
 627 718 l 1
EndSplineSet
EndChar

StartChar: N
Encoding: 78 78 46
Width: 592
Flags: MW
HStem: 0 20 698 20<57 186 186 186 422 536 536 536>
VStem: 57 114<0 515 0 718> 422 114<214 718 0 718>
LayerCount: 2
Fore
SplineSet
422 214 m 1
 422 718 l 1
 536 718 l 1
 536 0 l 1
 414 0 l 1
 171 515 l 1
 171 0 l 1
 57 0 l 1
 57 718 l 1
 186 718 l 1
 422 214 l 1
EndSplineSet
EndChar

StartChar: P
Encoding: 80 80 48
Width: 547
Flags: MW
HStem: 0 20 260 123<185 299 185 299 299 326> 595 123<185 283 185 185>
VStem: 62 123<0 260 383 595> 391 123<455 529>
LayerCount: 2
Fore
SplineSet
185 260 m 1
 185 0 l 1
 62 0 l 1
 62 718 l 1
 331 718 l 2
 442 718 514 630 514 495 c 0
 514 353 440 260 326 260 c 2
 185 260 l 1
185 383 m 1
 299 383 l 2
 361 383 391 418 391 492 c 0
 391 566 360 595 283 595 c 2
 185 595 l 1
 185 383 l 1
EndSplineSet
EndChar

StartChar: Q
Encoding: 81 81 49
Width: 638
Flags: MW
HStem: -19 127<279 330.5 268.5 345.5> 610 127<279.5 358.5 279.5 368.5>
VStem: 36 123<298.5 420> 479 123<328 419.5 304.5 436.5>
LayerCount: 2
Fore
SplineSet
604 29 m 1
 539 -52 l 1
 470 29 l 1
 418 -5 373 -19 318 -19 c 0
 240 -19 166 16 117 76 c 0
 64 140 36 238 36 359 c 0
 36 481 64 577 117 642 c 0
 166 702 240 737 319 737 c 0
 398 737 472 702 521 642 c 0
 574 577 602 481 602 358 c 0
 602 251 584 179 540 103 c 1
 604 29 l 1
326 195 m 1
 389 276 l 1
 452 205 l 1
 471 253 479 297 479 359 c 0
 479 514 418 610 319 610 c 0
 221 610 159 514 159 363 c 0
 159 204 219 108 318 108 c 0
 343 108 362 114 385 127 c 1
 326 195 l 1
EndSplineSet
EndChar

StartChar: T
Encoding: 84 84 52
Width: 501
Flags: MW
HStem: 0 20 591 127<11 189 11 490 312 490 312 312>
VStem: 189 123<0 591 0 591>
LayerCount: 2
Fore
SplineSet
312 591 m 1
 312 0 l 1
 189 0 l 1
 189 591 l 1
 11 591 l 1
 11 718 l 1
 490 718 l 1
 490 591 l 1
 312 591 l 1
EndSplineSet
EndChar

StartChar: V
Encoding: 86 86 54
Width: 547
Flags: MW
HStem: 0 20 698 20<16 148 148 148 403 531 531 531>
LayerCount: 2
Fore
SplineSet
275 170 m 1
 403 718 l 1
 531 718 l 1
 331 0 l 1
 214 0 l 1
 16 718 l 1
 148 718 l 1
 275 170 l 1
EndSplineSet
EndChar

StartChar: W
Encoding: 87 87 55
Width: 774
Flags: MW
HStem: 0 20 698 20<13 144 144 144 321 452 452 452 637 762 762 762>
LayerCount: 2
Fore
SplineSet
180 0 m 1
 13 718 l 1
 144 718 l 1
 214 353 226 286 239 187 c 1
 256 313 276 439 321 718 c 1
 452 718 l 1
 517 343 525 294 540 187 c 1
 554 279 570 367 637 718 c 1
 762 718 l 1
 596 0 l 1
 478 0 l 1
 418 349 409 403 386 565 c 1
 355 364 332 217 319 142 c 2
 294 0 l 1
 180 0 l 1
EndSplineSet
EndChar

StartChar: X
Encoding: 88 88 56
Width: 547
Flags: MW
HStem: 0 20 698 20<22 168 168 168 381 523 523 523>
LayerCount: 2
Fore
SplineSet
343 373 m 1
 535 0 l 1
 385 0 l 1
 273 245 l 1
 155 0 l 1
 11 0 l 1
 201 367 l 1
 22 718 l 1
 168 718 l 1
 273 486 l 1
 381 718 l 1
 523 718 l 1
 343 373 l 1
EndSplineSet
EndChar

StartChar: Y
Encoding: 89 89 57
Width: 547
Flags: MW
HStem: 0 20 698 20<12 157 157 157 396 535 535 535>
VStem: 215 123<0 269 0 271 0 271>
LayerCount: 2
Fore
SplineSet
338 269 m 1
 338 0 l 1
 215 0 l 1
 215 271 l 1
 12 718 l 1
 157 718 l 1
 279 406 l 1
 396 718 l 1
 535 718 l 1
 338 269 l 1
EndSplineSet
EndChar

StartChar: Z
Encoding: 90 90 58
Width: 501
Flags: MW
HStem: 0 127<170 481 20 20> 591 127<28 325 28 479>
LayerCount: 2
Fore
SplineSet
481 127 m 1
 481 0 l 1
 20 0 l 1
 20 127 l 1
 325 591 l 1
 28 591 l 1
 28 718 l 1
 479 718 l 1
 479 600 l 1
 170 127 l 1
 481 127 l 1
EndSplineSet
EndChar

StartChar: bracketleft
Encoding: 91 91 59
Width: 273
Flags: MW
HStem: -196 97<152 253 152 253> 625 97<152 152 152 253>
VStem: 52 100<-99 625 -99 722 -99 722>
LayerCount: 2
Fore
SplineSet
152 625 m 1
 152 -99 l 1
 253 -99 l 1
 253 -196 l 1
 52 -196 l 1
 52 722 l 1
 253 722 l 1
 253 625 l 1
 152 625 l 1
EndSplineSet
EndChar

StartChar: backslash
Encoding: 92 92 60
Width: 228
Flags: MW
HStem: -19 20 717 20<-27 69 69 69>
LayerCount: 2
Fore
SplineSet
159 -19 m 1
 -27 737 l 1
 69 737 l 1
 255 -19 l 1
 159 -19 l 1
EndSplineSet
EndChar

StartChar: bracketright
Encoding: 93 93 61
Width: 273
Flags: MW
HStem: -196 97<20 121 20 221 20 121> 625 97<20 121 20 221>
VStem: 121 100<-99 625 625 625>
LayerCount: 2
Fore
SplineSet
121 -99 m 1
 121 625 l 1
 20 625 l 1
 20 722 l 1
 221 722 l 1
 221 -196 l 1
 20 -196 l 1
 20 -99 l 1
 121 -99 l 1
EndSplineSet
EndChar

StartChar: asciicircum
Encoding: 94 94 62
Width: 479
Flags: W
LayerCount: 2
Fore
SplineSet
140 323 m 1
 51 323 l 1
 199 698 l 1
 280 698 l 1
 428 323 l 1
 338 323 l 1
 239 586 l 1
 140 323 l 1
EndSplineSet
EndChar

StartChar: grave
Encoding: 193 96 123
Width: 273
Flags: W
LayerCount: 2
Fore
SplineSet
101 604 m 1
 -19 750 l 1
 107 750 l 1
 184 604 l 1
 101 604 l 1
EndSplineSet
EndChar

StartChar: b
Encoding: 98 98 66
Width: 501
Flags: MW
HStem: -14 115<260.5 289 228 346> 424 122<263 289> 698 20<50 164 164 164>
VStem: 50 114<460 718 460 718 460 718> 356 118<214.5 314>
LayerCount: 2
Fore
SplineSet
164 718 m 1
 164 460 l 1
 198 521 235 546 291 546 c 0
 401 546 474 437 474 272 c 0
 474 98 402 -14 290 -14 c 0
 231 -14 190 13 162 70 c 1
 162 0 l 1
 50 0 l 1
 50 718 l 1
 164 718 l 1
259 424 m 0
 195 424 160 367 160 261 c 0
 160 159 196 101 260 101 c 0
 318 101 356 165 356 264 c 0
 356 364 319 424 259 424 c 0
EndSplineSet
EndChar

StartChar: d
Encoding: 100 100 68
Width: 501
Flags: MW
HStem: -14 115<212.5 241.5> 424 122<214.5 239 156 276.5> 698 20<338 452 452 452>
VStem: 28 118<214 314.5 214 354.5> 338 114<460 718 0 718>
LayerCount: 2
Fore
SplineSet
452 718 m 1
 452 0 l 1
 340 0 l 1
 340 70 l 1
 312 13 271 -14 212 -14 c 0
 100 -14 28 98 28 272 c 0
 28 437 101 546 211 546 c 0
 267 546 303 522 338 460 c 1
 338 718 l 1
 452 718 l 1
246 424 m 0
 183 424 146 365 146 264 c 0
 146 164 183 101 242 101 c 0
 306 101 342 159 342 260 c 0
 342 364 307 424 246 424 c 0
EndSplineSet
EndChar

StartChar: e
Encoding: 101 101 69
Width: 456
Flags: MW
HStem: -14 113<203 253.5 203 256.5> 227 92<137 315 137 433 134 315> 431 115<199.5 251>
LayerCount: 2
Fore
SplineSet
310 157 m 1
 428 157 l 1
 409 91 392 60 355 29 c 1
 322 0 281 -14 232 -14 c 0
 96 -14 19 88 19 268 c 0
 19 442 97 546 226 546 c 0
 359 546 433 441 433 252 c 2
 433 227 l 1
 134 227 l 1
 141 138 172 99 234 99 c 0
 273 99 299 119 310 157 c 1
137 319 m 1
 315 319 l 1
 307 394 277 431 225 431 c 0
 174 431 147 396 137 319 c 1
EndSplineSet
EndChar

StartChar: f
Encoding: 102 102 70
Width: 273
Flags: MW
HStem: 0 20 432 100<8 71 8 71 185 261> 707 20<159 214.5>
VStem: 71 114<0 432 0 432 532 553>
LayerCount: 2
Fore
SplineSet
185 432 m 1
 185 0 l 1
 71 0 l 1
 71 432 l 1
 8 432 l 1
 8 532 l 1
 71 532 l 1
 71 575 l 2
 71 680 113 727 205 727 c 0
 224 727 246 726 259 725 c 1
 259 612 l 1
 226 612 l 2
 190 612 185 604 185 553 c 2
 185 532 l 1
 261 532 l 1
 261 432 l 1
 185 432 l 1
EndSplineSet
EndChar

StartChar: g
Encoding: 103 103 71
Width: 501
Flags: MW
HStem: -217 107<227 276.5 227 276.5> -3 118<214 249> 424 122<214.5 245 160 271.5>
VStem: 33 118<219.5 315.5 219.5 354> 343 110<450 532>
LayerCount: 2
Fore
SplineSet
343 532 m 1
 453 532 l 1
 453 28 l 2
 453 -59 439 -113 408 -151 c 0
 373 -194 313 -217 240 -217 c 0
 170 -217 115 -196 80 -156 c 0
 57 -130 49 -108 42 -57 c 1
 167 -57 l 1
 170 -72 172 -78 177 -85 c 0
 187 -101 211 -110 243 -110 c 0
 310 -110 338 -74 338 11 c 2
 338 80 l 1
 308 18 278 -3 220 -3 c 0
 105 -3 33 102 33 271 c 0
 33 437 105 546 215 546 c 0
 275 546 313 518 343 450 c 1
 343 532 l 1
243 424 m 0
 186 424 151 364 151 267 c 0
 151 172 185 115 243 115 c 0
 304 115 339 171 339 267 c 0
 339 360 300 424 243 424 c 0
EndSplineSet
EndChar

StartChar: h
Encoding: 104 104 72
Width: 501
Flags: MW
HStem: 0 20 428 118<267 286> 698 20<53 167 167 167>
VStem: 53 114<0 305 459 718> 334 114<0 323 323 360>
LayerCount: 2
Fore
SplineSet
167 718 m 1
 167 459 l 1
 190 516 236 546 298 546 c 0
 389 546 448 476 448 368 c 2
 448 0 l 1
 334 0 l 1
 334 323 l 2
 334 397 312 428 260 428 c 0
 203 428 167 381 167 305 c 2
 167 0 l 1
 53 0 l 1
 53 718 l 1
 167 718 l 1
EndSplineSet
EndChar

StartChar: i
Encoding: 105 105 73
Width: 228
Flags: MW
HStem: 0 20 512 20<57 171 171 171> 595 130<57 171 57 171>
VStem: 57 114<0 532 0 532 595 725>
LayerCount: 2
Fore
SplineSet
57 532 m 1
 171 532 l 1
 171 0 l 1
 57 0 l 1
 57 532 l 1
171 725 m 1
 171 595 l 1
 57 595 l 1
 57 725 l 1
 171 725 l 1
EndSplineSet
EndChar

StartChar: j
Encoding: 106 106 74
Width: 228
Flags: MW
HStem: -214 20 595 130<57 171 57 171>
VStem: 57 114<-53 532 595 725>
LayerCount: 2
Fore
SplineSet
171 532 m 1
 171 -56 l 2
 171 -175 137 -214 32 -214 c 2
 2 -214 l 1
 2 -102 l 1
 23 -102 l 2
 47 -102 57 -88 57 -53 c 2
 57 532 l 1
 171 532 l 1
171 725 m 1
 171 595 l 1
 57 595 l 1
 57 725 l 1
 171 725 l 1
EndSplineSet
EndChar

StartChar: k
Encoding: 107 107 75
Width: 456
Flags: MW
HStem: 0 20 698 20<57 171 171 171>
VStem: 57 114<0 168 330 718>
LayerCount: 2
Fore
SplineSet
171 168 m 1
 171 0 l 1
 57 0 l 1
 57 718 l 1
 171 718 l 1
 171 330 l 1
 315 532 l 1
 456 532 l 1
 302 326 l 1
 461 0 l 1
 323 0 l 1
 219 228 l 1
 171 168 l 1
EndSplineSet
EndChar

StartChar: l
Encoding: 108 108 76
Width: 228
Flags: MW
HStem: 0 20 698 20<57 171 171 171>
VStem: 57 114<0 718 0 718>
LayerCount: 2
Fore
SplineSet
171 718 m 1
 171 0 l 1
 57 0 l 1
 57 718 l 1
 171 718 l 1
EndSplineSet
EndChar

StartChar: m
Encoding: 109 109 77
Width: 729
Flags: W
HStem: 0 20 428 118<259 264 503 519.5> 512 20<52 162 162 162>
VStem: 52 110<451 532 451 532 451 532> 52 114<0 324 0 532> 307 114<0 319 0 320 0 360> 563 114<0 323 323 357.5>
LayerCount: 2
Fore
SplineSet
162 532 m 1xb0
 162 451 l 1x30
 189 517 228 546 290 546 c 0
 345 546 373 526 408 461 c 1
 442 523 476 546 530 546 c 0
 618 546 677 474 677 368 c 2
 677 0 l 1
 563 0 l 1
 563 323 l 2
 563 392 541 428 498 428 c 0
 448 428 421 389 421 319 c 2
 421 0 l 1
 307 0 l 1
 307 320 l 2
 307 400 289 428 239 428 c 0xce
 190 428 166 393 166 324 c 2
 166 0 l 1
 52 0 l 1
 52 532 l 1xae
 162 532 l 1xb0
EndSplineSet
EndChar

StartChar: n
Encoding: 110 110 78
Width: 501
Flags: W
HStem: 0 20 428 118<266 286> 512 20<53 163 163 163>
VStem: 53 110<451 532 451 532 451 532> 53 114<0 305 0 532> 334 114<0 323 323 360>
LayerCount: 2
Fore
SplineSet
163 532 m 1xb0
 163 451 l 1x30
 194 517 235 546 297 546 c 0
 389 546 448 477 448 368 c 2
 448 0 l 1
 334 0 l 1
 334 323 l 2
 334 397 312 428 260 428 c 0xcc
 203 428 167 381 167 305 c 2
 167 0 l 1
 53 0 l 1
 53 532 l 1xac
 163 532 l 1xb0
EndSplineSet
EndChar

StartChar: p
Encoding: 112 112 80
Width: 501
Flags: W
HStem: -207 20 -14 115<259.5 289.5 228 345.5> 424 122<260.5 288.5>
VStem: 51 110<209 314 452 532> 51 114<-207 71 -207 532> 356 118<215 314.5>
LayerCount: 2
Fore
SplineSet
161 532 m 1xf4
 161 452 l 1xf4
 194 519 231 546 290 546 c 0
 401 546 474 437 474 272 c 0
 474 97 402 -14 289 -14 c 0
 230 -14 195 10 165 71 c 1
 165 -207 l 1
 51 -207 l 1
 51 532 l 1xec
 161 532 l 1xf4
258 424 m 0
 194 424 161 368 161 260 c 0
 161 158 196 101 260 101 c 0
 319 101 356 165 356 265 c 0
 356 364 319 424 258 424 c 0
EndSplineSet
EndChar

StartChar: q
Encoding: 113 113 81
Width: 501
Flags: W
HStem: -207 20 -14 118<211.5 244> 424 122<212 247 161.5 273>
VStem: 28 118<207.5 310.5 207.5 346> 339 114<-207 69 69 69> 343 110<450 532 -207 532>
LayerCount: 2
Fore
SplineSet
343 532 m 1xf4
 453 532 l 1
 453 -207 l 1
 339 -207 l 1
 339 69 l 1xe8
 310 10 274 -14 214 -14 c 0
 102 -14 28 96 28 261 c 0
 28 431 105 546 218 546 c 0
 276 546 313 518 343 450 c 1
 343 532 l 1xf4
243 424 m 0xf4
 181 424 146 363 146 258 c 0
 146 157 180 104 243 104 c 0
 306 104 341 162 341 263 c 0
 341 362 303 424 243 424 c 0xf4
EndSplineSet
EndChar

StartChar: r
Encoding: 114 114 82
Width: 319
Flags: W
HStem: 0 20 404 142<255 282.5> 512 20<52 162 162 162>
VStem: 52 110<437 532 437 532 437 532> 52 114<0 277 0 532>
LayerCount: 2
Fore
SplineSet
52 0 m 1xc8
 52 532 l 1xa8
 162 532 l 1
 162 437 l 1xb0
 196 518 227 546 283 546 c 0
 288 546 293 546 306 544 c 1
 306 402 l 1
 298 403 288 404 277 404 c 0
 202 404 166 363 166 277 c 2
 166 0 l 1
 52 0 l 1xc8
EndSplineSet
EndChar

StartChar: t
Encoding: 116 116 84
Width: 273
Flags: MW
HStem: -6 20 432 100<8 67 8 67 181 253>
VStem: 67 114<124.5 143 143 432 532 676>
LayerCount: 2
Fore
SplineSet
181 676 m 1
 181 532 l 1
 253 532 l 1
 253 432 l 1
 181 432 l 1
 181 143 l 2
 181 106 188 100 228 100 c 0
 235 100 240 100 253 102 c 1
 253 -4 l 1
 214 -6 211 -6 198 -6 c 2
 183 -6 l 2
 99 -6 67 25 67 109 c 2
 67 432 l 1
 8 432 l 1
 8 532 l 1
 67 532 l 1
 67 676 l 1
 181 676 l 1
EndSplineSet
EndChar

StartChar: v
Encoding: 118 118 86
Width: 456
Flags: MW
HStem: 0 20 512 20<11 139 139 139 323 445 445 445>
LayerCount: 2
Fore
SplineSet
445 532 m 1
 288 0 l 1
 167 0 l 1
 11 532 l 1
 139 532 l 1
 230 136 l 1
 323 532 l 1
 445 532 l 1
EndSplineSet
EndChar

StartChar: w
Encoding: 119 119 87
Width: 638
Flags: MW
HStem: 0 20 512 20<8 130 130 130 262 377 377 377 513 631 631 631>
LayerCount: 2
Fore
SplineSet
631 532 m 1
 505 0 l 1
 387 0 l 1
 318 393 l 1
 249 0 l 1
 131 0 l 1
 8 532 l 1
 130 532 l 1
 199 145 l 1
 262 532 l 1
 377 532 l 1
 444 145 l 1
 513 532 l 1
 631 532 l 1
EndSplineSet
EndChar

StartChar: x
Encoding: 120 120 88
Width: 456
Flags: MW
HStem: 0 20 512 20<18 157 157 157 304 439 439 439>
LayerCount: 2
Fore
SplineSet
295 271 m 1
 444 0 l 1
 302 0 l 1
 226 160 l 1
 151 0 l 1
 12 0 l 1
 161 271 l 1
 18 532 l 1
 157 532 l 1
 231 377 l 1
 304 532 l 1
 439 532 l 1
 295 271 l 1
EndSplineSet
EndChar

StartChar: y
Encoding: 121 121 89
Width: 456
Flags: MW
HStem: -214 112<91 151.5> 512 20<8 136 136 136 320 442 442 442>
LayerCount: 2
Fore
SplineSet
442 532 m 1
 292 9 l 2
 258 -110 242 -153 224 -177 c 0
 204 -204 177 -214 126 -214 c 0
 114 -214 98 -213 71 -212 c 1
 71 -100 l 1
 79 -101 87 -102 95 -102 c 0
 144 -102 158 -87 169 -22 c 1
 8 532 l 1
 136 532 l 1
 230 136 l 1
 320 532 l 1
 442 532 l 1
EndSplineSet
EndChar

StartChar: braceleft
Encoding: 123 123 91
Width: 319
Flags: MW
HStem: -196 88<198 299 262 299 262 299> 634 88<246 262 262 299>
VStem: 116 100<-59 -42 -42 141 141 154 385 568>
LayerCount: 2
Fore
SplineSet
299 -108 m 1
 299 -196 l 1
 231 -196 l 2
 165 -196 116 -138 116 -59 c 2
 116 141 l 2
 116 186 89 213 39 217 c 1
 39 309 l 1
 88 313 116 340 116 385 c 2
 116 585 l 2
 116 664 165 722 231 722 c 2
 299 722 l 1
 299 634 l 1
 262 634 l 2
 230 634 216 614 216 568 c 2
 216 372 l 2
 216 340 198 304 172 284 c 0
 157 273 145 268 118 263 c 1
 145 258 157 253 172 242 c 0
 198 222 216 186 216 154 c 2
 216 -42 l 2
 216 -88 230 -108 262 -108 c 2
 299 -108 l 1
EndSplineSet
EndChar

StartChar: bar
Encoding: 124 124 92
Width: 230
Flags: MW
HStem: -19 20 717 20<69 161 161 161>
VStem: 69 92<-19 737 -19 737>
LayerCount: 2
Fore
SplineSet
69 -19 m 1
 69 737 l 1
 161 737 l 1
 161 -19 l 1
 69 -19 l 1
EndSplineSet
EndChar

StartChar: braceright
Encoding: 125 125 93
Width: 319
Flags: MW
HStem: -196 88<20 57 57 73 20 88 20 57> 634 88<20 57 20 88>
VStem: 103 100<-42 141 372 385 385 568 568 585>
LayerCount: 2
Fore
SplineSet
280 309 m 1
 280 217 l 1
 230 213 203 186 203 141 c 2
 203 -59 l 2
 203 -137 154 -196 88 -196 c 2
 20 -196 l 1
 20 -108 l 1
 57 -108 l 2
 89 -108 103 -88 103 -42 c 2
 103 154 l 2
 103 186 121 222 147 242 c 0
 162 253 174 258 201 263 c 1
 174 268 162 273 147 284 c 0
 121 304 103 340 103 372 c 2
 103 568 l 2
 103 614 89 634 57 634 c 2
 20 634 l 1
 20 722 l 1
 88 722 l 2
 154 722 203 663 203 585 c 2
 203 385 l 2
 203 340 231 313 280 309 c 1
EndSplineSet
EndChar

StartChar: asciitilde
Encoding: 126 126 94
Width: 479
Flags: W
HStem: 173 112<311 330 304.5 344.5> 224 112<149 168 134.5 174.5>
LayerCount: 2
Fore
SplineSet
373 321 m 1x80
 429 267 l 1
 395 198 367 173 322 173 c 0x80
 300 173 279 180 245 198 c 0
 209 217 187 224 162 224 c 0
 136 224 122 215 106 187 c 1
 50 242 l 1
 84 311 112 336 157 336 c 0x40
 179 336 201 329 234 311 c 0
 270 292 292 285 317 285 c 0
 343 285 357 294 373 321 c 1x80
EndSplineSet
EndChar

StartChar: exclamdown
Encoding: 161 161 95
Width: 273
Flags: W
HStem: 390 142<77 197 77 197>
VStem: 74 126<-186 -3 -186 -3> 77 120<390 532 390 532>
LayerCount: 2
Fore
SplineSet
77 390 m 1xa0
 77 532 l 1
 197 532 l 1
 197 390 l 1
 77 390 l 1xa0
74 -3 m 1xc0
 107 333 l 1
 167 333 l 1
 200 -3 l 1
 200 -186 l 1
 74 -186 l 1
 74 -3 l 1xc0
EndSplineSet
EndChar

StartChar: cent
Encoding: 162 162 96
Width: 456
Flags: W
HStem: -14 115<230 255.5 230 285.5> -10 20 523 20<274 274> 526 20<170.5 242>
VStem: 28 118<231.5 317.5 231.5 349>
LayerCount: 2
Fore
SplineSet
430 342 m 1x28
 314 342 l 1
 308 374 300 395 286 410 c 1
 214 105 l 1
 220 102 226 101 234 101 c 0
 277 101 309 139 313 194 c 1
 429 194 l 1
 412 59 342 -14 229 -14 c 0x88
 215 -14 200 -13 188 -10 c 1
 163 -118 l 1
 120 -118 l 1
 148 2 l 1
 103 26 83 45 61 89 c 0
 39 133 28 188 28 257 c 0
 28 441 104 546 237 546 c 0x58
 247 546 261 545 274 543 c 1
 294 628 l 1
 336 628 l 1
 314 530 l 1
 384 499 423 438 430 342 c 1x28
177 129 m 1
 247 428 l 1
 237 428 l 2
 179 428 146 370 146 265 c 0
 146 198 154 161 177 129 c 1
EndSplineSet
EndChar

StartChar: sterling
Encoding: 163 163 97
Width: 456
Flags: W
HStem: -16 118<325 339.5 325 342> -11 20 321 60<23 71 23 99 23 71 211 309 211 211> 606 112<211 249.5>
VStem: 37 115<502 540.5 502 575> 117 98<208.5 274>
LayerCount: 2
Fore
SplineSet
309 381 m 1x78
 309 321 l 1
 211 321 l 1
 214 298 215 281 215 267 c 0
 215 225 201 185 175 151 c 0
 165 138 151 122 127 98 c 1
 174 120 197 127 227 127 c 0
 249 127 267 123 294 112 c 0
 310 105 322 102 328 102 c 0
 351 102 380 115 410 138 c 1
 444 29 l 1
 401 -2 362 -16 322 -16 c 0xa4
 293 -16 269 -10 220 10 c 0
 198 19 178 24 161 24 c 0
 139 24 128 20 71 -11 c 1
 26 86 l 1
 78 122 117 185 117 232 c 0x74
 117 256 110 290 99 321 c 1
 23 321 l 1
 23 381 l 1
 71 381 l 1
 43 453 37 478 37 516 c 0
 37 634 119 718 233 718 c 0
 310 718 370 683 403 619 c 0
 421 582 428 551 431 487 c 1
 324 487 l 1
 317 538 311 559 299 576 c 0
 285 596 263 606 236 606 c 0
 186 606 152 568 152 513 c 0
 152 491 157 476 192 381 c 1
 309 381 l 1x78
EndSplineSet
EndChar

StartChar: currency
Encoding: 168 164 102
Width: 456
Flags: W
HStem: 141 103<211 245.5> 468 103<211.5 245.5 211.5 253> 518 20<132 132 324 324>
VStem: 53 92<334.5 377> 313 92<336 377.5 336 388.5>
LayerCount: 2
Fore
SplineSet
-2 142 m 1xb8
 78 240 l 1
 60 279 53 313 53 356 c 0
 53 398 61 434 78 472 c 1
 -2 570 l 1
 52 636 l 1
 132 538 l 1x38
 165 561 195 571 228 571 c 0xd8
 263 571 293 561 324 538 c 1
 404 636 l 1
 458 570 l 1
 378 472 l 1
 397 433 405 398 405 357 c 0
 405 315 397 279 378 240 c 1
 458 142 l 1
 404 76 l 1
 324 174 l 1
 293 151 263 141 228 141 c 0
 194 141 165 151 132 174 c 1
 52 76 l 1
 -2 142 l 1xb8
229 468 m 0xd8
 179 468 145 423 145 357 c 0
 145 291 180 244 228 244 c 0
 277 244 313 292 313 357 c 0
 313 420 277 468 229 468 c 0xd8
EndSplineSet
EndChar

StartChar: yen
Encoding: 165 165 99
Width: 456
Flags: MW
HStem: 0 20 211 60<13 179 13 179 283 450> 345 60<13 120 13 146 13 120 340 450>
VStem: 179 103<0 211 0 211 0 271>
LayerCount: 2
Fore
SplineSet
450 405 m 1
 450 345 l 1
 314 345 l 1
 283 271 l 1
 450 271 l 1
 450 211 l 1
 282 211 l 1
 282 0 l 1
 179 0 l 1
 179 211 l 1
 13 211 l 1
 13 271 l 1
 179 271 l 1
 146 345 l 1
 13 345 l 1
 13 405 l 1
 120 405 l 1
 -7 698 l 1
 116 698 l 1
 233 404 l 1
 346 698 l 1
 463 698 l 1
 340 405 l 1
 450 405 l 1
EndSplineSet
EndChar

StartChar: brokenbar
Encoding: 420 166 313
Width: 230
Flags: MW
HStem: -19 20 717 20<69 161 161 161>
VStem: 69 92<-19 271 -19 271 447 737>
LayerCount: 2
Fore
SplineSet
69 -19 m 1
 69 271 l 1
 161 271 l 1
 161 -19 l 1
 69 -19 l 1
69 447 m 1
 69 737 l 1
 161 737 l 1
 161 447 l 1
 69 447 l 1
EndSplineSet
EndChar

StartChar: section
Encoding: 167 167 101
Width: 456
Flags: W
HStem: -184 107<209 248.5 209 274.5> 620 107<208.5 245>
VStem: 28 97<310 324.5> 62 104<552 579.5 552 600.5> 291 110<-27.5 8> 326 102<248.5 256>
LayerCount: 2
Fore
SplineSet
393 544 m 1xd4
 289 544 l 1
 284 596 264 620 226 620 c 0
 191 620 166 596 166 563 c 0
 166 541 176 525 197 512 c 2
 330 431 l 2
 396 390 428 341 428 278 c 0xd4
 428 219 399 166 350 134 c 1
 386 95 401 56 401 3 c 0
 401 -107 327 -184 222 -184 c 0
 122 -184 61 -117 52 3 c 1
 160 3 l 1
 166 -52 188 -77 230 -77 c 0
 267 -77 291 -49 291 -6 c 0
 291 22 279 39 243 61 c 2
 117 139 l 2
 53 179 28 222 28 294 c 0xe8
 28 355 48 391 104 432 c 1
 75 468 62 503 62 549 c 0
 62 652 132 727 229 727 c 0
 292 727 342 699 369 648 c 0
 384 619 389 595 393 544 c 1xd4
163 263 m 2xe4
 291 179 l 1
 316 197 326 216 326 243 c 0
 326 269 312 289 280 309 c 2
 160 383 l 1
 139 372 125 348 125 322 c 0
 125 298 137 280 163 263 c 2xe4
EndSplineSet
EndChar

StartChar: dieresis
Encoding: 200 168 130
Width: 273
Flags: MW
HStem: 614 115<5 108 5 108 5 165 165 268>
VStem: 5 103<614 729 614 729> 165 103<614 729 614 729>
LayerCount: 2
Fore
SplineSet
108 729 m 1
 108 614 l 1
 5 614 l 1
 5 729 l 1
 108 729 l 1
268 729 m 1
 268 614 l 1
 165 614 l 1
 165 729 l 1
 268 729 l 1
EndSplineSet
EndChar

StartChar: copyright
Encoding: 409 169 302
Width: 604
Flags: MW
HStem: -19 88<239 367 239 392.5> 146 87<291 335.5> 492 87<288 334> 650 87<239.5 360.5 213.5 367>
VStem: -9 90<274.5 444 274.5 470> 144 85<327.5 405 327.5 427.5> 524 90<277 397.5 250.5 442>
LayerCount: 2
Fore
SplineSet
388 303 m 1
 462 303 l 1
 454 256 445 233 426 205 c 1
 398 167 358 146 313 146 c 0
 215 146 144 237 144 364 c 0
 144 491 213 579 312 579 c 0
 362 579 403 556 429 513 c 1
 445 489 451 468 458 426 c 1
 388 426 l 1
 379 469 354 492 314 492 c 0
 262 492 229 443 229 367 c 0
 229 288 265 233 317 233 c 0
 358 233 383 257 388 303 c 1
306 737 m 0
 415 737 517 670 570 563 c 0
 599 505 614 435 614 360 c 0
 614 141 483 -19 302 -19 c 0
 122 -19 -9 140 -9 359 c 0
 -9 581 121 737 306 737 c 0
305 650 m 0
 174 650 81 529 81 359 c 0
 81 190 174 69 304 69 c 0
 430 69 524 194 524 360 c 0
 524 524 429 650 305 650 c 0
EndSplineSet
EndChar

StartChar: ordfeminine
Encoding: 227 170 138
Width: 303
Flags: W
HStem: 276 80<26 274 26 274> 401 62<119 126.5> 665 72<134 165.5>
VStem: 18 77<488.5 514 488.5 522> 26 248<276 356 276 356> 196 72<525 565 565 565 625 643>
LayerCount: 2
Fore
SplineSet
100 625 m 1xf4
 28 625 l 1
 38 705 73 737 152 737 c 0
 226 737 268 703 268 644 c 2
 268 471 l 2
 268 440 273 427 285 422 c 1
 285 409 l 1
 205 409 l 1
 201 422 200 431 198 447 c 1
 169 413 145 401 108 401 c 0
 53 401 18 437 18 494 c 0
 18 550 50 589 102 598 c 2
 170 609 l 2
 189 612 196 618 196 632 c 0
 196 654 181 665 150 665 c 0
 118 665 105 655 100 625 c 1xf4
196 525 m 2
 196 565 l 1
 185 557 173 553 145 548 c 0
 110 542 95 528 95 500 c 0
 95 477 108 463 130 463 c 0
 167 463 196 491 196 525 c 2
26 356 m 1xe8
 274 356 l 1
 274 276 l 1
 26 276 l 1
 26 356 l 1xe8
EndSplineSet
EndChar

StartChar: guillemotleft
Encoding: 171 171 105
Width: 456
Flags: W
LayerCount: 2
Fore
SplineSet
209 368 m 1
 127 280 l 1
 209 192 l 1
 209 76 l 1
 72 220 l 1
 72 340 l 1
 209 484 l 1
 209 368 l 1
384 368 m 1
 302 280 l 1
 384 192 l 1
 384 76 l 1
 247 220 l 1
 247 340 l 1
 384 484 l 1
 384 368 l 1
EndSplineSet
EndChar

StartChar: logicalnot
Encoding: 417 172 310
Width: 479
Flags: MW
HStem: 307 112<33 354 33 446>
VStem: 354 92<108 307 307 307>
LayerCount: 2
Fore
SplineSet
354 108 m 1
 354 307 l 1
 33 307 l 1
 33 419 l 1
 446 419 l 1
 446 108 l 1
 354 108 l 1
EndSplineSet
EndChar

StartChar: registered
Encoding: 410 174 303
Width: 604
Flags: MW
HStem: -19 88<239 366.5 239 392.5> 328 68<251 314 251 285> 495 68<251 301 251 251> 649 88<239 366>
VStem: -9 90<274 443 274 469.5> 179 72<157 328 396 495> 364 77<428.5 464> 523 90<276.5 441>
LayerCount: 2
Fore
SplineSet
251 328 m 1
 251 157 l 1
 179 157 l 1
 179 563 l 1
 304 563 l 2
 399 563 441 525 441 440 c 0
 441 374 417 343 361 335 c 1
 446 157 l 1
 362 157 l 1
 285 328 l 1
 251 328 l 1
251 396 m 1
 314 396 l 2
 350 396 364 410 364 447 c 0
 364 481 346 495 301 495 c 2
 251 495 l 1
 251 396 l 1
306 737 m 0
 483 737 613 577 613 359 c 0
 613 139 483 -19 302 -19 c 0
 122 -19 -9 139 -9 358 c 0
 -9 581 121 737 306 737 c 0
304 649 m 0
 174 649 81 528 81 358 c 0
 81 190 174 69 304 69 c 0
 429 69 523 194 523 359 c 0
 523 523 428 649 304 649 c 0
EndSplineSet
EndChar

StartChar: macron
Encoding: 197 175 127
Width: 273
Flags: MW
HStem: 605 73<-5 278 -5 278>
LayerCount: 2
Fore
SplineSet
278 678 m 1
 278 605 l 1
 -5 605 l 1
 -5 678 l 1
 278 678 l 1
EndSplineSet
EndChar

StartChar: degree
Encoding: 399 176 292
Width: 328
Flags: MW
HStem: 426 57<144.5 183.5 144.5 196> 655 57<145 184>
VStem: 47 46<545.5 593 545.5 608.5> 235 46<545.5 592>
LayerCount: 2
Fore
SplineSet
165 712 m 0
 228 712 281 647 281 569 c 0
 281 490 228 426 164 426 c 0
 100 426 47 490 47 569 c 0
 47 648 100 712 165 712 c 0
165 655 m 0
 125 655 93 617 93 569 c 0
 93 522 125 483 164 483 c 0
 203 483 235 522 235 569 c 0
 235 615 203 655 165 655 c 0
EndSplineSet
EndChar

StartChar: plusminus
Encoding: 404 177 297
Width: 479
Flags: MW
HStem: 0 112<33 446 33 446> 269 112<33 194 33 194 286 446 33 286>
VStem: 194 92<143 269 143 269 381 578>
LayerCount: 2
Fore
SplineSet
194 381 m 1
 194 578 l 1
 286 578 l 1
 286 381 l 1
 446 381 l 1
 446 269 l 1
 286 269 l 1
 286 143 l 1
 194 143 l 1
 194 269 l 1
 33 269 l 1
 33 381 l 1
 194 381 l 1
33 0 m 1
 33 112 l 1
 446 112 l 1
 446 0 l 1
 33 0 l 1
EndSplineSet
EndChar

StartChar: twosuperior
Encoding: 397 178 290
Width: 273
Flags: MW
HStem: 283 82<113 266 113 266> 644 78<119 150.5>
VStem: 187 78<565.5 602>
LayerCount: 2
Fore
SplineSet
83 558 m 1
 11 558 l 1
 13 609 18 634 33 661 c 0
 54 700 90 722 136 722 c 0
 212 722 265 662 265 576 c 0
 265 532 251 494 224 463 c 1
 213 452 213 452 167 416 c 0
 144 398 120 376 113 365 c 1
 266 365 l 1
 266 283 l 1
 7 283 l 1
 12 371 35 409 128 482 c 1
 173 520 187 545 187 586 c 0
 187 618 164 644 137 644 c 0
 101 644 86 619 83 558 c 1
EndSplineSet
EndChar

StartChar: threesuperior
Encoding: 398 179 291
Width: 273
Flags: W
HStem: 271 75<118.5 151.5 116 174.5> 647 75<117 147.5>
VStem: 178 78<584.5 612> 187 80<394 440>
LayerCount: 2
Fore
SplineSet
7 425 m 1xd0
 80 425 l 1
 81 371 98 346 134 346 c 0
 169 346 187 371 187 417 c 0xd0
 187 463 167 479 106 479 c 1
 106 543 l 1
 118 543 l 2
 161 543 178 558 178 595 c 0
 178 629 162 647 133 647 c 0
 101 647 84 626 83 585 c 1
 14 585 l 1
 15 625 20 645 33 668 c 0
 54 703 91 722 137 722 c 0
 209 722 256 676 256 605 c 0xe0
 256 564 241 538 209 520 c 1
 248 504 267 471 267 418 c 0
 267 332 213 271 136 271 c 0
 101 271 70 282 48 303 c 0
 21 329 11 360 7 425 c 1xd0
EndSplineSet
EndChar

StartChar: acute
Encoding: 194 180 124
Width: 273
Flags: W
LayerCount: 2
Fore
SplineSet
292 750 m 1
 172 604 l 1
 89 604 l 1
 166 750 l 1
 292 750 l 1
EndSplineSet
EndChar

StartChar: paragraph
Encoding: 182 182 114
Width: 456
Flags: MW
HStem: 615 85<267 350 267 267>
VStem: 175 92<-191 347 347 347> 350 92<-191 615 615 615>
LayerCount: 2
Fore
SplineSet
175 -191 m 1
 175 347 l 1
 111 350 79 360 47 388 c 1
 11 418 -7 463 -7 523 c 0
 -7 643 58 700 193 700 c 2
 442 700 l 1
 442 -191 l 1
 350 -191 l 1
 350 615 l 1
 267 615 l 1
 267 -191 l 1
 175 -191 l 1
EndSplineSet
EndChar

StartChar: periodcentered
Encoding: 180 183 113
Width: 228
Flags: W
LayerCount: 2
Fore
SplineSet
115 334 m 0
 150 334 180 297 180 253 c 0
 180 208 151 172 114 172 c 0
 77 172 48 208 48 253 c 0
 48 298 78 334 115 334 c 0
EndSplineSet
EndChar

StartChar: cedilla
Encoding: 203 184 132
Width: 273
Flags: MW
HStem: -228 57<83 95.5 78.5 128> -96 96<88.5 101>
VStem: 124 77<-142.5 -122>
LayerCount: 2
Fore
SplineSet
43 -84 m 1
 88 0 l 1
 136 0 l 1
 105 -55 l 1
 114 -52 121 -51 129 -51 c 0
 171 -51 201 -83 201 -129 c 0
 201 -188 159 -228 97 -228 c 0
 69 -228 50 -223 5 -203 c 1
 23 -155 l 1
 54 -166 72 -171 85 -171 c 0
 106 -171 124 -153 124 -132 c 0
 124 -112 110 -96 92 -96 c 0
 85 -96 74 -99 60 -104 c 1
 43 -84 l 1
EndSplineSet
EndChar

StartChar: onesuperior
Encoding: 396 185 289
Width: 273
Flags: MW
VStem: 111 83<283 574 574 574>
LayerCount: 2
Fore
SplineSet
21 574 m 1
 21 636 l 1
 32 636 l 2
 89 636 120 661 124 710 c 1
 194 710 l 1
 194 283 l 1
 111 283 l 1
 111 574 l 1
 21 574 l 1
EndSplineSet
EndChar

StartChar: ordmasculine
Encoding: 235 186 142
Width: 299
Flags: W
HStem: 276 80<27 272 27 272> 401 72<131 169 131 193> 665 72<131 169.5>
VStem: 5 80<540.5 597.5 540.5 619.5> 27 245<276 356 276 356> 215 80<540.5 597>
LayerCount: 2
Fore
SplineSet
152 737 m 0xf4
 236 737 295 667 295 569 c 0
 295 470 236 401 150 401 c 0
 64 401 5 469 5 569 c 0
 5 670 64 737 152 737 c 0xf4
151 665 m 0
 111 665 85 626 85 569 c 0
 85 512 112 473 150 473 c 0
 188 473 215 512 215 569 c 0
 215 625 188 665 151 665 c 0
27 356 m 1xe8
 272 356 l 1
 272 276 l 1
 27 276 l 1
 27 356 l 1xe8
EndSplineSet
EndChar

StartChar: guillemotright
Encoding: 187 187 119
Width: 456
Flags: W
LayerCount: 2
Fore
SplineSet
329 280 m 1
 247 368 l 1
 247 484 l 1
 384 340 l 1
 384 220 l 1
 247 76 l 1
 247 192 l 1
 329 280 l 1
154 280 m 1
 72 368 l 1
 72 484 l 1
 209 340 l 1
 209 220 l 1
 72 76 l 1
 72 192 l 1
 154 280 l 1
EndSplineSet
EndChar

StartChar: onequarter
Encoding: 406 188 299
Width: 684
Flags: W
HStem: -19 20 90 67<418 509 359 512> 90 68<587 628 587 628>
VStem: 111 83<283 574 574 574> 509 78<0 90 0 90>
LayerCount: 2
Fore
SplineSet
587 424 m 1x38
 587 158 l 1
 628 158 l 1x38
 628 90 l 1
 587 90 l 1xd8
 587 0 l 1
 509 0 l 1
 509 90 l 1
 359 90 l 1
 359 163 l 1
 498 424 l 1
 587 424 l 1x38
418 157 m 1xd8
 512 157 l 1
 513 264 513 288 514 343 c 1
 418 157 l 1xd8
111 -19 m 1
 462 710 l 1
 526 710 l 1
 176 -19 l 1
 111 -19 l 1
21 574 m 1
 21 636 l 1
 32 636 l 2
 89 636 120 661 124 710 c 1
 194 710 l 1
 194 283 l 1
 111 283 l 1
 111 574 l 1
 21 574 l 1
EndSplineSet
EndChar

StartChar: onehalf
Encoding: 405 189 298
Width: 684
Flags: W
HStem: -19 20 0 82<498 651 498 651> 361 78<504.5 536>
VStem: 111 83<283 574 574 574> 572 78<282.5 319>
LayerCount: 2
Fore
SplineSet
111 -19 m 1xb8
 462 710 l 1
 526 710 l 1
 176 -19 l 1
 111 -19 l 1xb8
21 574 m 1
 21 636 l 1
 32 636 l 2
 89 636 120 661 124 710 c 1
 194 710 l 1
 194 283 l 1
 111 283 l 1
 111 574 l 1
 21 574 l 1
469 275 m 1
 397 275 l 1
 398 326 404 351 418 378 c 0
 439 417 476 439 521 439 c 0
 597 439 650 379 650 293 c 0
 650 249 636 211 609 180 c 0
 598 168 598 168 552 133 c 0
 528 114 506 93 498 82 c 1
 651 82 l 1
 651 0 l 1
 393 0 l 1x78
 397 88 420 126 513 199 c 1
 558 237 572 262 572 303 c 0
 572 335 550 361 522 361 c 0
 487 361 471 335 469 275 c 1
EndSplineSet
EndChar

StartChar: threequarters
Encoding: 407 190 300
Width: 684
Flags: W
HStem: -19 20 90 68<444 536 444 536 386 536 614 655> 271 75<125 158 124.5 181> 647 75<123 153.5>
VStem: 184 78<584.5 612> 194 80<394 440> 536 78<0 90 0 90 158 208.5>
LayerCount: 2
Fore
SplineSet
614 424 m 1xf6
 614 158 l 1
 655 158 l 1
 655 90 l 1
 614 90 l 1
 614 0 l 1
 536 0 l 1
 536 90 l 1
 386 90 l 1
 386 163 l 1
 525 424 l 1
 614 424 l 1xf6
444 158 m 1
 536 158 l 1
 536 259 537 289 538 339 c 1
 444 158 l 1
147 -19 m 1
 498 710 l 1
 562 710 l 1
 212 -19 l 1
 147 -19 l 1
13 425 m 1
 87 425 l 1
 86 420 86 416 86 414 c 0
 86 373 108 346 141 346 c 0
 175 346 194 371 194 417 c 0xf4
 194 463 174 479 112 479 c 1
 112 543 l 1
 124 543 l 2
 167 543 184 558 184 595 c 0
 184 629 168 647 139 647 c 0
 107 647 90 626 89 585 c 1
 19 585 l 1
 21 625 26 645 39 668 c 0
 60 703 96 722 142 722 c 0
 214 722 262 675 262 605 c 0xf8
 262 564 247 538 215 520 c 1
 255 504 274 471 274 418 c 0
 274 331 220 271 142 271 c 0
 108 271 76 282 54 303 c 0
 27 329 16 360 13 425 c 1
EndSplineSet
EndChar

StartChar: questiondown
Encoding: 191 191 122
Width: 501
Flags: MW
HStem: -195 118<224 264 224 288.5> 390 142<186 306 186 306>
VStem: 45 123<-10 40.5 -10 51.5> 186 120<390 532 390 532>
LayerCount: 2
Fore
SplineSet
195 324 m 1
 303 324 l 1
 303 216 289 183 219 121 c 0
 181 87 168 61 168 20 c 0
 168 -40 199 -77 249 -77 c 0
 279 -77 303 -63 318 -38 c 0
 325 -26 336 12 336 23 c 2
 336 39 l 1
 452 39 l 1
 449 -30 441 -64 418 -104 c 0
 384 -162 324 -195 253 -195 c 0
 128 -195 45 -112 45 13 c 0
 45 90 68 134 144 202 c 0
 185 238 194 258 195 324 c 1
186 390 m 1
 186 532 l 1
 306 532 l 1
 306 390 l 1
 186 390 l 1
EndSplineSet
EndChar

StartChar: Agrave
Encoding: 258 192 151
Width: 592
Flags: MW
HStem: 0 20 148 123<187 370 220 370 220 404> 698 20<226 368 368 368>
LayerCount: 2
Fore
SplineSet
187 148 m 1
 146 0 l 1
 16 0 l 1
 226 718 l 1
 368 718 l 1
 576 0 l 1
 442 0 l 1
 404 148 l 1
 187 148 l 1
296 559 m 1
 220 271 l 1
 370 271 l 1
 296 559 l 1
261 790 m 1
 141 936 l 1
 267 936 l 1
 344 790 l 1
 261 790 l 1
EndSplineSet
EndChar

StartChar: Acircumflex
Encoding: 259 194 152
Width: 592
Flags: MW
HStem: 0 20 148 123<187 370 220 370 220 404> 698 20<226 368 368 368>
LayerCount: 2
Fore
SplineSet
187 148 m 1
 146 0 l 1
 16 0 l 1
 226 718 l 1
 368 718 l 1
 576 0 l 1
 442 0 l 1
 404 148 l 1
 187 148 l 1
296 559 m 1
 220 271 l 1
 370 271 l 1
 296 559 l 1
347 936 m 1
 440 790 l 1
 347 790 l 1
 295 872 l 1
 244 790 l 1
 151 790 l 1
 244 936 l 1
 347 936 l 1
EndSplineSet
EndChar

StartChar: Atilde
Encoding: 261 195 154
Width: 592
Flags: W
HStem: 0 20 148 123<187 370 220 370 220 404> 698 20<226 368 368 368> 803 80<350 365.5 349.5 381.5> 839 80<226.5 240>
LayerCount: 2
Fore
SplineSet
187 148 m 1xe0
 146 0 l 1
 16 0 l 1
 226 718 l 1
 368 718 l 1
 576 0 l 1
 442 0 l 1
 404 148 l 1
 187 148 l 1xe0
296 559 m 1
 220 271 l 1
 370 271 l 1
 296 559 l 1
394 923 m 1x10
 447 923 l 1
 434 843 404 803 359 803 c 0x10
 341 803 310 812 274 827 c 1
 256 836 244 839 236 839 c 0
 217 839 204 824 198 796 c 1
 146 796 l 1
 160 880 192 919 245 919 c 0x08
 261 919 270 916 304 900 c 0
 333 887 344 883 355 883 c 0
 376 883 387 895 394 923 c 1x10
EndSplineSet
EndChar

StartChar: Ccedilla
Encoding: 264 199 157
Width: 592
Flags: MW
HStem: -228 57<259 272 254.5 304> -96 207<264.5 277> 607 130<264.5 332.5>
VStem: 36 125<279.5 435 279.5 474> 300 77<-142 -121>
LayerCount: 2
Fore
SplineSet
302 -19 m 1
 281 -55 l 1
 291 -52 297 -51 305 -51 c 0
 347 -51 377 -83 377 -129 c 0
 377 -188 335 -228 273 -228 c 0
 245 -228 227 -223 181 -203 c 1
 199 -155 l 1
 229 -166 248 -171 261 -171 c 0
 283 -171 300 -153 300 -131 c 0
 300 -111 286 -96 268 -96 c 0
 261 -96 250 -99 236 -104 c 1
 219 -84 l 1
 256 -14 l 1
 116 13 36 148 36 357 c 0
 36 591 141 737 309 737 c 0
 402 737 479 691 524 610 c 0
 546 570 555 540 561 483 c 1
 438 483 l 1
 429 522 422 538 409 559 c 1
 388 589 353 607 312 607 c 0
 217 607 161 514 161 356 c 0
 161 203 216 111 308 111 c 0
 351 111 386 130 410 167 c 0
 423 188 429 206 438 246 c 1
 561 246 l 1
 533 73 442 -20 302 -19 c 1
EndSplineSet
EndChar

StartChar: Ecircumflex
Encoding: 271 202 164
Width: 547
Flags: MW
HStem: 0 127<182 509 182 509 62 509> 313 127<182 470 182 470> 591 127<182 495 182 182>
VStem: 62 120<127 313 440 591>
LayerCount: 2
Fore
SplineSet
495 718 m 1
 495 591 l 1
 182 591 l 1
 182 440 l 1
 470 440 l 1
 470 313 l 1
 182 313 l 1
 182 127 l 1
 509 127 l 1
 509 0 l 1
 62 0 l 1
 62 718 l 1
 495 718 l 1
324 936 m 1
 417 790 l 1
 324 790 l 1
 272 872 l 1
 221 790 l 1
 128 790 l 1
 221 936 l 1
 324 936 l 1
EndSplineSet
EndChar

StartChar: Edieresis
Encoding: 268 203 161
Width: 547
Flags: W
HStem: 0 127<182 509 182 509 62 509> 313 127<182 470 182 470> 591 127<182 495 182 182> 800 115<142 245 142 245 142 302 302 405>
VStem: 62 103 62 120<127 313 440 591> 222 103
LayerCount: 2
Fore
SplineSet
495 718 m 1xf4
 495 591 l 1
 182 591 l 1
 182 440 l 1
 470 440 l 1
 470 313 l 1
 182 313 l 1
 182 127 l 1
 509 127 l 1
 509 0 l 1
 62 0 l 1
 62 718 l 1
 495 718 l 1xf4
245 915 m 1xfa
 245 800 l 1
 142 800 l 1
 142 915 l 1
 245 915 l 1xfa
405 915 m 1
 405 800 l 1
 302 800 l 1
 302 915 l 1
 405 915 l 1
EndSplineSet
EndChar

StartChar: Igrave
Encoding: 278 204 171
Width: 228
Flags: MW
HStem: 0 20 698 20<52 175 175 175>
VStem: 52 123<0 718 0 718>
LayerCount: 2
Fore
SplineSet
175 718 m 1
 175 0 l 1
 52 0 l 1
 52 718 l 1
 175 718 l 1
79 790 m 1
 -41 936 l 1
 85 936 l 1
 162 790 l 1
 79 790 l 1
EndSplineSet
EndChar

StartChar: Iacute
Encoding: 277 205 170
Width: 228
Flags: MW
HStem: 0 20 698 20<52 175 175 175>
VStem: 52 123<0 718 0 718>
LayerCount: 2
Fore
SplineSet
175 718 m 1
 175 0 l 1
 52 0 l 1
 52 718 l 1
 175 718 l 1
270 936 m 1
 150 790 l 1
 67 790 l 1
 144 936 l 1
 270 936 l 1
EndSplineSet
EndChar

StartChar: Icircumflex
Encoding: 279 206 172
Width: 228
Flags: MW
HStem: 0 20 698 20<53 176 176 176>
VStem: 53 123<0 718 0 718>
LayerCount: 2
Fore
SplineSet
176 718 m 1
 176 0 l 1
 53 0 l 1
 53 718 l 1
 176 718 l 1
166 936 m 1
 259 790 l 1
 166 790 l 1
 114 872 l 1
 63 790 l 1
 -30 790 l 1
 63 936 l 1
 166 936 l 1
EndSplineSet
EndChar

StartChar: Idieresis
Encoding: 276 207 169
Width: 228
Flags: W
HStem: 0 20 698 20<53 176 176 176> 800 115<-17 86 -17 86 -17 143 143 246>
VStem: -17 103<800 915 800 915> 53 123<0 718 0 718> 143 103<800 915 800 915>
LayerCount: 2
Fore
SplineSet
176 718 m 1xe8
 176 0 l 1
 53 0 l 1
 53 718 l 1
 176 718 l 1xe8
86 915 m 1xf4
 86 800 l 1
 -17 800 l 1
 -17 915 l 1
 86 915 l 1xf4
246 915 m 1
 246 800 l 1
 143 800 l 1
 143 915 l 1
 246 915 l 1
EndSplineSet
EndChar

StartChar: Eth
Encoding: 389 208 282
Width: 592
Flags: MW
HStem: 0 123<182 303 303 317 62 303> 317 123<-4 62 -4 62 -4 182 182 319> 595 123<182 182 182 301>
VStem: 62 120<123 317 123 317 123 317 440 595> 437 125<312.5 445.5>
LayerCount: 2
Fore
SplineSet
62 317 m 1
 -4 317 l 1
 -4 440 l 1
 62 440 l 1
 62 718 l 1
 322 718 l 2
 474 718 562 592 562 375 c 0
 562 250 532 144 478 75 c 0
 440 26 383 0 317 0 c 2
 62 0 l 1
 62 317 l 1
182 595 m 1
 182 440 l 1
 319 440 l 1
 319 317 l 1
 182 317 l 1
 182 123 l 1
 303 123 l 2
 387 123 437 214 437 369 c 0
 437 522 393 595 301 595 c 2
 182 595 l 1
EndSplineSet
EndChar

StartChar: Ntilde
Encoding: 285 209 178
Width: 592
Flags: W
HStem: 0 20 698 20<57 186 186 186 422 536 536 536> 803 80<350 365.5 349.5 381.5> 839 80<226.5 240>
VStem: 57 114<0 515 0 718> 422 114<214 718 0 718>
LayerCount: 2
Fore
SplineSet
422 214 m 1xcc
 422 718 l 1
 536 718 l 1
 536 0 l 1
 414 0 l 1
 171 515 l 1
 171 0 l 1
 57 0 l 1
 57 718 l 1
 186 718 l 1
 422 214 l 1xcc
394 923 m 1x2c
 447 923 l 1
 434 843 404 803 359 803 c 0x2c
 341 803 310 812 274 827 c 1
 256 836 244 839 236 839 c 0
 217 839 204 824 198 796 c 1
 146 796 l 1
 160 880 192 919 245 919 c 0x1c
 261 919 270 916 304 900 c 0
 333 887 344 883 355 883 c 0
 376 883 387 895 394 923 c 1x2c
EndSplineSet
EndChar

StartChar: Ograve
Encoding: 288 210 181
Width: 638
Flags: MW
HStem: -19 127<269 358.5> 610 127<282 340.5>
VStem: 36 123<314 419> 479 123<298.5 404>
LayerCount: 2
Fore
SplineSet
323 737 m 0
 398 737 472 701 521 642 c 0
 574 578 602 480 602 359 c 0
 602 238 574 140 521 76 c 0
 472 16 398 -19 319 -19 c 0
 216 -19 126 39 79 135 c 0
 51 194 36 270 36 358 c 0
 36 480 64 578 117 642 c 0
 167 703 241 737 323 737 c 0
321 610 m 0
 220 610 159 516 159 361 c 0
 159 203 219 108 319 108 c 0
 419 108 479 203 479 362 c 0
 479 446 460 516 425 558 c 1
 399 591 360 610 321 610 c 0
284 790 m 1
 164 936 l 1
 290 936 l 1
 367 790 l 1
 284 790 l 1
EndSplineSet
EndChar

StartChar: Oacute
Encoding: 287 211 180
Width: 638
Flags: MW
HStem: -19 127<269 358.5> 610 127<282 340.5>
VStem: 36 123<314 419> 479 123<298.5 404>
LayerCount: 2
Fore
SplineSet
323 737 m 0
 398 737 472 701 521 642 c 0
 574 578 602 480 602 359 c 0
 602 238 574 140 521 76 c 0
 472 16 398 -19 319 -19 c 0
 216 -19 126 39 79 135 c 0
 51 194 36 270 36 358 c 0
 36 480 64 578 117 642 c 0
 167 703 241 737 323 737 c 0
321 610 m 0
 220 610 159 516 159 361 c 0
 159 203 219 108 319 108 c 0
 419 108 479 203 479 362 c 0
 479 446 460 516 425 558 c 1
 399 591 360 610 321 610 c 0
474 936 m 1
 354 790 l 1
 271 790 l 1
 348 936 l 1
 474 936 l 1
EndSplineSet
EndChar

StartChar: Otilde
Encoding: 290 213 183
Width: 638
Flags: W
HStem: -19 127<269 358.5> 610 127<282 340.5> 803 80<373 388.5 372.5 404.5> 839 80<249.5 263>
VStem: 36 123<314 419> 479 123<298.5 404>
LayerCount: 2
Fore
SplineSet
323 737 m 0xcc
 398 737 472 701 521 642 c 0
 574 578 602 480 602 359 c 0
 602 238 574 140 521 76 c 0
 472 16 398 -19 319 -19 c 0
 216 -19 126 39 79 135 c 0
 51 194 36 270 36 358 c 0
 36 480 64 578 117 642 c 0
 167 703 241 737 323 737 c 0xcc
321 610 m 0
 220 610 159 516 159 361 c 0
 159 203 219 108 319 108 c 0
 419 108 479 203 479 362 c 0
 479 446 460 516 425 558 c 1
 399 591 360 610 321 610 c 0
417 923 m 1x2c
 470 923 l 1
 457 843 427 803 382 803 c 0x2c
 364 803 333 812 297 827 c 1
 279 836 267 839 259 839 c 0
 240 839 227 824 221 796 c 1
 169 796 l 1
 183 880 215 919 268 919 c 0x1c
 284 919 293 916 327 900 c 0
 356 887 367 883 378 883 c 0
 399 883 410 895 417 923 c 1x2c
EndSplineSet
EndChar

StartChar: Odieresis
Encoding: 286 214 179
Width: 638
Flags: W
HStem: -19 127<269 358.5> 610 127<282 340.5> 800 115<188 291 188 291 188 348 348 451>
VStem: 36 103 36 123<314 419> 196 103 479 123<298.5 404>
LayerCount: 2
Fore
SplineSet
323 737 m 0xea
 398 737 472 701 521 642 c 0
 574 578 602 480 602 359 c 0
 602 238 574 140 521 76 c 0
 472 16 398 -19 319 -19 c 0
 216 -19 126 39 79 135 c 0
 51 194 36 270 36 358 c 0
 36 480 64 578 117 642 c 0
 167 703 241 737 323 737 c 0xea
321 610 m 0
 220 610 159 516 159 361 c 0
 159 203 219 108 319 108 c 0
 419 108 479 203 479 362 c 0
 479 446 460 516 425 558 c 1
 399 591 360 610 321 610 c 0
291 915 m 1xf4
 291 800 l 1
 188 800 l 1
 188 915 l 1
 291 915 l 1xf4
451 915 m 1
 451 800 l 1
 348 800 l 1
 348 915 l 1
 451 915 l 1
EndSplineSet
EndChar

StartChar: multiply
Encoding: 401 215 294
Width: 479
Flags: W
LayerCount: 2
Fore
SplineSet
175 253 m 1
 33 426 l 1
 98 505 l 1
 240 332 l 1
 381 505 l 1
 446 426 l 1
 304 253 l 1
 447 80 l 1
 381 1 l 1
 240 174 l 1
 99 1 l 1
 33 80 l 1
 175 253 l 1
EndSplineSet
EndChar

StartChar: Oslash
Encoding: 233 216 140
Width: 638
Flags: MW
HStem: -19 127<296.5 358.5> 610 127<279 341>
VStem: 36 123<330 418.5> 479 123<299.5 388.5>
LayerCount: 2
Fore
SplineSet
610 707 m 1
 541 615 l 1
 585 539 602 467 602 361 c 0
 602 238 575 141 521 76 c 0
 472 16 398 -19 319 -19 c 0
 245 -19 188 5 129 63 c 1
 61 -27 l 1
 27 11 l 1
 97 104 l 1
 54 178 36 251 36 357 c 0
 36 480 63 577 117 642 c 0
 166 702 240 737 318 737 c 0
 391 737 447 713 509 656 c 1
 576 745 l 1
 610 707 l 1
181 218 m 1
 430 551 l 1
 396 593 363 610 319 610 c 0
 220 610 159 514 159 358 c 0
 159 302 165 262 181 218 c 1
456 501 m 1
 207 168 l 1
 240 126 274 108 319 108 c 0
 418 108 479 204 479 359 c 0
 479 418 473 458 456 501 c 1
EndSplineSet
EndChar

StartChar: Uacute
Encoding: 299 218 192
Width: 592
Flags: MW
HStem: -19 127<259.5 332 259.5 373> 698 20<59 184 184 184 409 534 534 534>
VStem: 59 125<242 252 252 718> 409 125<245 251 251 718>
LayerCount: 2
Fore
SplineSet
534 718 m 1
 534 251 l 2
 534 75 451 -19 295 -19 c 0
 145 -19 59 76 59 242 c 2
 59 718 l 1
 184 718 l 1
 184 252 l 2
 184 160 224 108 295 108 c 0
 369 108 409 156 409 245 c 2
 409 718 l 1
 534 718 l 1
452 936 m 1
 332 790 l 1
 249 790 l 1
 326 936 l 1
 452 936 l 1
EndSplineSet
EndChar

StartChar: Ucircumflex
Encoding: 301 219 194
Width: 592
Flags: MW
HStem: -19 127<259.5 332 259.5 373> 698 20<59 184 184 184 409 534 534 534>
VStem: 59 125<242 252 252 718> 409 125<245 251 251 718>
LayerCount: 2
Fore
SplineSet
534 718 m 1
 534 251 l 2
 534 75 451 -19 295 -19 c 0
 145 -19 59 76 59 242 c 2
 59 718 l 1
 184 718 l 1
 184 252 l 2
 184 160 224 108 295 108 c 0
 369 108 409 156 409 245 c 2
 409 718 l 1
 534 718 l 1
348 936 m 1
 441 790 l 1
 348 790 l 1
 296 872 l 1
 245 790 l 1
 152 790 l 1
 245 936 l 1
 348 936 l 1
EndSplineSet
EndChar

StartChar: Udieresis
Encoding: 298 220 191
Width: 592
Flags: W
HStem: -19 127<259.5 332 259.5 373> 698 20<59 184 184 184 409 534 534 534> 800 115<165 268 165 268 165 325 325 428>
VStem: 59 103 59 125<242 252 252 718> 219 103 409 125<245 251 251 718>
LayerCount: 2
Fore
SplineSet
534 718 m 1xea
 534 251 l 2
 534 75 451 -19 295 -19 c 0
 145 -19 59 76 59 242 c 2
 59 718 l 1
 184 718 l 1
 184 252 l 2
 184 160 224 108 295 108 c 0
 369 108 409 156 409 245 c 2
 409 718 l 1
 534 718 l 1xea
268 915 m 1xf4
 268 800 l 1
 165 800 l 1
 165 915 l 1
 268 915 l 1xf4
428 915 m 1
 428 800 l 1
 325 800 l 1
 325 915 l 1
 428 915 l 1
EndSplineSet
EndChar

StartChar: Yacute
Encoding: 304 221 197
Width: 547
Flags: MW
HStem: 0 20 698 20<12 157 157 157 396 535 535 535>
VStem: 215 123<0 269 0 271 0 271>
LayerCount: 2
Fore
SplineSet
338 269 m 1
 338 0 l 1
 215 0 l 1
 215 271 l 1
 12 718 l 1
 157 718 l 1
 279 406 l 1
 396 718 l 1
 535 718 l 1
 338 269 l 1
428 936 m 1
 308 790 l 1
 225 790 l 1
 302 936 l 1
 428 936 l 1
EndSplineSet
EndChar

StartChar: Thorn
Encoding: 391 222 284
Width: 547
Flags: MW
HStem: 0 20 159 123<185 299 299 326 185 299> 497 123<185 283 185 331> 698 20<62 185 185 185>
VStem: 62 123<0 159 282 497 620 718> 391 123<354.5 429>
LayerCount: 2
Fore
SplineSet
62 0 m 1
 62 718 l 1
 185 718 l 1
 185 620 l 1
 331 620 l 2
 442 620 514 531 514 394 c 0
 514 252 440 159 326 159 c 2
 185 159 l 1
 185 0 l 1
 62 0 l 1
185 282 m 1
 299 282 l 2
 361 282 391 317 391 392 c 0
 391 466 359 497 283 497 c 2
 185 497 l 1
 185 282 l 1
EndSplineSet
EndChar

StartChar: germandbls
Encoding: 251 223 148
Width: 501
Flags: W
HStem: -14 115<270 288 249.5 337.5> 619 112<223.5 272.5>
VStem: 57 114<0 530 0 539 0 598> 327 115<510.5 558.5> 360 115<183.5 266>
LayerCount: 2
Fore
SplineSet
229 -8 m 1xc8
 229 102 l 1
 233 102 l 1
 237 101 246 101 253 101 c 0
 323 101 360 143 360 224 c 0xc8
 360 308 328 339 235 347 c 1
 235 444 l 1
 305 447 327 467 327 530 c 0
 327 587 298 619 247 619 c 0
 200 619 171 585 171 530 c 2
 171 0 l 1
 57 0 l 1
 57 539 l 2
 57 657 132 731 250 731 c 0
 370 731 442 660 442 541 c 0xf0
 442 480 423 439 382 411 c 1
 450 369 475 321 475 231 c 0
 475 81 398 -14 277 -14 c 0
 263 -14 255 -13 229 -8 c 1xc8
EndSplineSet
EndChar

StartChar: acircumflex
Encoding: 325 226 218
Width: 456
Flags: MW
HStem: -14 100<177 188> 434 112<199.5 247.5>
VStem: 24 115<131 174 131 188.5> 295 112<191 259 259 259 361.5 392>
LayerCount: 2
Fore
SplineSet
148 360 m 1
 38 360 l 1
 44 419 53 447 72 478 c 1
 103 524 154 546 229 546 c 0
 342 546 407 489 407 392 c 2
 407 104 l 2
 407 52 413 31 432 21 c 1
 432 0 l 1
 309 0 l 1
 302 26 301 34 298 63 c 1
 253 6 216 -14 160 -14 c 0
 76 -14 24 46 24 142 c 0
 24 235 70 296 152 311 c 2
 255 330 l 2
 283 335 295 349 295 374 c 0
 295 414 271 434 224 434 c 0
 175 434 155 414 148 360 c 1
295 191 m 2
 295 259 l 1
 280 245 263 239 217 230 c 0
 160 218 139 197 139 151 c 0
 139 111 160 86 194 86 c 0
 250 86 295 133 295 191 c 2
280 750 m 1
 373 604 l 1
 280 604 l 1
 228 686 l 1
 177 604 l 1
 84 604 l 1
 177 750 l 1
 280 750 l 1
EndSplineSet
EndChar

StartChar: atilde
Encoding: 327 227 220
Width: 456
Flags: W
HStem: -14 100<177 188> 434 112<199.5 247.5> 617 80<282 297.5 281.5 313.5> 653 80<158.5 172> 717 20<326 379 379 379>
VStem: 24 115<131 174 131 188.5> 295 112<191 259 259 259 361.5 392>
LayerCount: 2
Fore
SplineSet
148 360 m 1xc6
 38 360 l 1
 44 419 53 447 72 478 c 1
 103 524 154 546 229 546 c 0
 342 546 407 489 407 392 c 2
 407 104 l 2
 407 52 413 31 432 21 c 1
 432 0 l 1
 309 0 l 1
 302 26 301 34 298 63 c 1
 253 6 216 -14 160 -14 c 0
 76 -14 24 46 24 142 c 0
 24 235 70 296 152 311 c 2
 255 330 l 2
 283 335 295 349 295 374 c 0
 295 414 271 434 224 434 c 0
 175 434 155 414 148 360 c 1xc6
295 191 m 2
 295 259 l 1
 280 245 263 239 217 230 c 0
 160 218 139 197 139 151 c 0
 139 111 160 86 194 86 c 0
 250 86 295 133 295 191 c 2
326 737 m 1x2e
 379 737 l 1
 366 657 336 617 291 617 c 0x2e
 273 617 242 626 206 641 c 1
 188 650 176 653 168 653 c 0
 149 653 136 638 130 610 c 1
 78 610 l 1
 92 694 124 733 177 733 c 0x16
 193 733 202 730 236 714 c 0
 265 701 276 697 287 697 c 0
 308 697 319 709 326 737 c 1x2e
EndSplineSet
EndChar

StartChar: aring
Encoding: 328 229 221
Width: 456
Flags: W
HStem: -14 100<177 188> 434 112<199.5 247.5> 568 52 724 52
VStem: 24 46 24 115<131 174 131 188.5> 155 46 295 112<191 259 259 259 361.5 392>
LayerCount: 2
Fore
SplineSet
148 360 m 1xf5
 38 360 l 1
 44 419 53 447 72 478 c 1
 103 524 154 546 229 546 c 0
 342 546 407 489 407 392 c 2
 407 104 l 2
 407 52 413 31 432 21 c 1
 432 0 l 1
 309 0 l 1
 302 26 301 34 298 63 c 1
 253 6 216 -14 160 -14 c 0
 76 -14 24 46 24 142 c 0
 24 235 70 296 152 311 c 2
 255 330 l 2
 283 335 295 349 295 374 c 0
 295 414 271 434 224 434 c 0
 175 434 155 414 148 360 c 1xf5
295 191 m 2
 295 259 l 1
 280 245 263 239 217 230 c 0
 160 218 139 197 139 151 c 0
 139 111 160 86 194 86 c 0
 250 86 295 133 295 191 c 2
230 803 m 0xfa
 276 803 317 754 317 699 c 0
 317 644 276 595 228 595 c 0
 181 595 140 643 140 699 c 0
 140 755 181 803 230 803 c 0xfa
229 751 m 0
 205 751 186 728 186 699 c 0
 186 670 205 647 228 647 c 0
 252 647 271 670 271 699 c 0
 271 727 252 751 229 751 c 0
EndSplineSet
EndChar

StartChar: ccedilla
Encoding: 332 231 225
Width: 456
Flags: MW
HStem: -228 57<191 204 186.5 236> -96 197<204 209> 428 118<209 260.5>
VStem: 28 118<210.5 318.5 210.5 349> 232 77<-142.5 -121.5>
LayerCount: 2
Fore
SplineSet
237 -14 m 1
 213 -55 l 1
 223 -52 230 -51 238 -51 c 0
 279 -51 309 -83 309 -129 c 0
 309 -188 267 -228 205 -228 c 0
 177 -228 158 -223 113 -203 c 1
 131 -155 l 1
 161 -166 180 -171 193 -171 c 0
 215 -171 232 -153 232 -132 c 0
 232 -111 218 -96 200 -96 c 0
 193 -96 182 -99 168 -104 c 1
 151 -84 l 1
 191 -11 l 1
 83 10 28 102 28 259 c 0
 28 439 105 546 235 546 c 0
 307 546 368 512 401 452 c 0
 418 421 425 395 430 342 c 1
 314 342 l 1
 303 402 281 428 240 428 c 0
 178 428 146 372 146 265 c 0
 146 156 175 101 233 101 c 0
 277 101 308 138 313 194 c 1
 429 194 l 1
 415 67 343 -11 237 -14 c 1
EndSplineSet
EndChar

StartChar: edieresis
Encoding: 334 235 227
Width: 456
Flags: MW
HStem: -14 113<203 253.5 203 256.5> 227 92<137 315 137 433 134 315> 431 115<199.5 251> 614 115<97 200 97 200 97 257 257 360>
VStem: 19 103 179 103
LayerCount: 2
Fore
SplineSet
310 157 m 1
 428 157 l 1
 409 91 392 60 355 29 c 1
 322 0 281 -14 232 -14 c 0
 96 -14 19 88 19 268 c 0
 19 442 97 546 226 546 c 0
 359 546 433 441 433 252 c 2
 433 227 l 1
 134 227 l 1
 141 138 172 99 234 99 c 0
 273 99 299 119 310 157 c 1
137 319 m 1
 315 319 l 1
 307 394 277 431 225 431 c 0
 174 431 147 396 137 319 c 1
200 729 m 1
 200 614 l 1
 97 614 l 1
 97 729 l 1
 200 729 l 1
360 729 m 1
 360 614 l 1
 257 614 l 1
 257 729 l 1
 360 729 l 1
EndSplineSet
EndChar

StartChar: iacute
Encoding: 343 237 236
Width: 228
Flags: MW
HStem: 0 20 512 20<57 171 171 171>
VStem: 57 114<0 532 0 532>
LayerCount: 2
Fore
SplineSet
57 532 m 1
 171 532 l 1
 171 0 l 1
 57 0 l 1
 57 532 l 1
270 750 m 1
 150 604 l 1
 67 604 l 1
 144 750 l 1
 270 750 l 1
EndSplineSet
EndChar

StartChar: icircumflex
Encoding: 345 238 238
Width: 228
Flags: MW
HStem: 0 20 512 20<57 171 171 171>
VStem: 57 114<0 532 0 532>
LayerCount: 2
Fore
SplineSet
57 532 m 1
 171 532 l 1
 171 0 l 1
 57 0 l 1
 57 532 l 1
166 750 m 1
 259 604 l 1
 166 604 l 1
 114 686 l 1
 63 604 l 1
 -30 604 l 1
 63 750 l 1
 166 750 l 1
EndSplineSet
EndChar

StartChar: idieresis
Encoding: 342 239 235
Width: 228
Flags: W
HStem: 0 20 512 20<57 171 171 171> 614 115<-17 86 -17 86 -17 143 143 246>
VStem: -17 103<614 729 614 729> 57 114<0 532 0 532> 143 103<614 729 614 729>
LayerCount: 2
Fore
SplineSet
57 532 m 1xe8
 171 532 l 1
 171 0 l 1
 57 0 l 1
 57 532 l 1xe8
86 729 m 1xf4
 86 614 l 1
 -17 614 l 1
 -17 729 l 1
 86 729 l 1xf4
246 729 m 1
 246 614 l 1
 143 614 l 1
 143 729 l 1
 246 729 l 1
EndSplineSet
EndChar

StartChar: eth
Encoding: 393 240 286
Width: 501
Flags: MW
HStem: -14 118<220 284 220 318> 405 118<220.5 250 168.5 283.5> 524 20<165 165> 717 20<231 231 379 379>
VStem: 28 118<207 298.5 207 336.5> 356 118<212.5 303>
LayerCount: 2
Fore
SplineSet
430 685 m 1
 347 641 l 1
 399 576 421 539 443 475 c 0
 464 416 474 356 474 291 c 0
 474 106 386 -14 250 -14 c 0
 117 -14 28 95 28 260 c 0
 28 413 111 523 226 523 c 0
 274 523 305 506 337 460 c 1
 317 511 296 545 253 591 c 1
 165 544 l 1
 113 596 l 1
 202 643 l 1
 179 663 159 678 142 688 c 1
 231 737 l 1
 254 725 274 711 295 693 c 1
 379 737 l 1
 430 685 l 1
253 405 m 0
 188 405 146 345 146 252 c 0
 146 162 188 104 252 104 c 0
 316 104 356 165 356 260 c 0
 356 346 314 405 253 405 c 0
EndSplineSet
EndChar

StartChar: ntilde
Encoding: 350 241 243
Width: 501
Flags: W
HStem: 0 20 428 118<266 286> 512 20<53 163 163 163> 617 80<304 319.5 303.5 335.5> 653 80<180.5 194> 717 20<348 401 401 401>
VStem: 53 110<451 532 451 532 451 532> 53 114<0 305 0 532> 334 114<0 323 323 360>
LayerCount: 2
Fore
SplineSet
163 532 m 1xa2
 163 451 l 1x22
 194 517 235 546 297 546 c 0
 389 546 448 477 448 368 c 2
 448 0 l 1
 334 0 l 1
 334 323 l 2
 334 397 312 428 260 428 c 0xc180
 203 428 167 381 167 305 c 2
 167 0 l 1
 53 0 l 1
 53 532 l 1xa180
 163 532 l 1xa2
348 737 m 1x14
 401 737 l 1
 388 657 358 617 313 617 c 0x14
 295 617 264 626 228 641 c 1
 210 650 198 653 190 653 c 0
 171 653 158 638 152 610 c 1
 100 610 l 1
 114 694 146 733 199 733 c 0x08
 215 733 224 730 258 714 c 0
 287 701 298 697 309 697 c 0
 330 697 341 709 348 737 c 1x14
EndSplineSet
EndChar

StartChar: oacute
Encoding: 352 243 245
Width: 501
Flags: MW
HStem: -14 118<217 285 217 318.5> 428 118<217.5 285.5>
VStem: 28 118<213.5 319 213.5 351> 356 118<213.5 318>
LayerCount: 2
Fore
SplineSet
254 546 m 0
 387 546 474 434 474 265 c 0
 474 96 386 -14 251 -14 c 0
 116 -14 28 96 28 265 c 0
 28 437 115 546 254 546 c 0
252 428 m 0
 183 428 146 372 146 266 c 0
 146 161 183 104 251 104 c 0
 319 104 356 161 356 266 c 0
 356 370 319 428 252 428 c 0
406 750 m 1
 286 604 l 1
 203 604 l 1
 280 750 l 1
 406 750 l 1
EndSplineSet
EndChar

StartChar: otilde
Encoding: 355 245 248
Width: 501
Flags: W
HStem: -14 118<217 285 217 318.5> 428 118<217.5 285.5> 617 80<304 319.5 303.5 335.5> 653 80<180.5 194> 717 20<348 401 401 401>
VStem: 28 118<213.5 319 213.5 351> 356 118<213.5 318>
LayerCount: 2
Fore
SplineSet
254 546 m 0xc6
 387 546 474 434 474 265 c 0
 474 96 386 -14 251 -14 c 0
 116 -14 28 96 28 265 c 0
 28 437 115 546 254 546 c 0xc6
252 428 m 0
 183 428 146 372 146 266 c 0
 146 161 183 104 251 104 c 0
 319 104 356 161 356 266 c 0
 356 370 319 428 252 428 c 0
348 737 m 1x2e
 401 737 l 1
 388 657 358 617 313 617 c 0x2e
 295 617 264 626 228 641 c 1
 210 650 198 653 190 653 c 0
 171 653 158 638 152 610 c 1
 100 610 l 1
 114 694 146 733 199 733 c 0x16
 215 733 224 730 258 714 c 0
 287 701 298 697 309 697 c 0
 330 697 341 709 348 737 c 1x2e
EndSplineSet
EndChar

StartChar: odieresis
Encoding: 351 246 244
Width: 501
Flags: W
HStem: -14 118<217 285 217 318.5> 428 118<217.5 285.5> 614 115<119 222 119 222 119 279 279 382>
VStem: 28 103 28 118<213.5 319 213.5 351> 188 103 356 118<213.5 318>
LayerCount: 2
Fore
SplineSet
254 546 m 0xea
 387 546 474 434 474 265 c 0
 474 96 386 -14 251 -14 c 0
 116 -14 28 96 28 265 c 0
 28 437 115 546 254 546 c 0xea
252 428 m 0
 183 428 146 372 146 266 c 0
 146 161 183 104 251 104 c 0
 319 104 356 161 356 266 c 0
 356 370 319 428 252 428 c 0
222 729 m 1xf4
 222 614 l 1
 119 614 l 1
 119 729 l 1
 222 729 l 1xf4
382 729 m 1
 382 614 l 1
 279 614 l 1
 279 729 l 1
 382 729 l 1
EndSplineSet
EndChar

StartChar: divide
Encoding: 402 247 295
Width: 479
Flags: MW
HStem: 197 112<33 446 33 446> 528 20<220 259>
LayerCount: 2
Fore
SplineSet
446 197 m 1
 33 197 l 1
 33 309 l 1
 446 309 l 1
 446 197 l 1
240 548 m 0
 278 548 312 506 312 460 c 0
 312 413 278 371 240 371 c 0
 201 371 167 412 167 459 c 0
 167 508 200 548 240 548 c 0
240 135 m 0
 278 135 312 93 312 47 c 0
 312 1 277 -42 240 -42 c 0
 201 -42 167 -1 167 46 c 0
 167 95 200 135 240 135 c 0
EndSplineSet
EndChar

StartChar: oslash
Encoding: 249 248 146
Width: 501
Flags: MW
HStem: -14 118<234.5 284.5 234.5 318.5> 428 118<217 266.5>
VStem: 28 118<249.5 319 249.5 351> 356 118<214 283.5>
LayerCount: 2
Fore
SplineSet
483 528 m 1
 425 454 l 1
 460 396 474 343 474 266 c 0
 474 96 386 -14 251 -14 c 0
 194 -14 151 3 106 44 c 1
 49 -29 l 1
 18 0 l 1
 78 77 l 1
 42 135 28 188 28 266 c 0
 28 436 115 546 251 546 c 0
 308 546 351 529 398 487 c 1
 454 560 l 1
 483 528 l 1
344 351 m 1
 179 138 l 1
 198 114 219 104 250 104 c 0
 319 104 356 161 356 267 c 0
 356 300 353 325 344 351 c 1
158 179 m 1
 325 393 l 1
 303 418 282 428 251 428 c 0
 183 428 146 371 146 267 c 0
 146 232 149 208 158 179 c 1
EndSplineSet
EndChar

StartChar: uacute
Encoding: 363 250 256
Width: 501
Flags: W
HStem: -14 118<217.5 233> 512 20<54 168 168 168 333 447 447 447>
VStem: 54 114<182 202 202 532> 333 114<225 532 0 532> 337 110<0 78 78 78>
LayerCount: 2
Fore
SplineSet
447 532 m 1xf0
 447 0 l 1xd0
 337 0 l 1
 337 78 l 1xc8
 307 15 265 -14 201 -14 c 0
 107 -14 54 57 54 182 c 2
 54 532 l 1
 168 532 l 1
 168 202 l 2
 168 138 193 104 242 104 c 0
 299 104 333 150 333 225 c 2
 333 532 l 1
 447 532 l 1xf0
406 750 m 1
 286 604 l 1
 203 604 l 1
 280 750 l 1
 406 750 l 1
EndSplineSet
EndChar

StartChar: udieresis
Encoding: 362 252 255
Width: 501
Flags: W
HStem: -14 118<217.5 233> 512 20<54 168 168 168 333 447 447 447> 614 115<119 222 119 222 119 279 279 382>
VStem: 54 103 54 114<182 202 202 532> 214 103 333 114<225 532 0 532> 337 110<0 78 78 78>
LayerCount: 2
Fore
SplineSet
447 532 m 1xea
 447 0 l 1xe2
 337 0 l 1
 337 78 l 1xe1
 307 15 265 -14 201 -14 c 0
 107 -14 54 57 54 182 c 2
 54 532 l 1
 168 532 l 1
 168 202 l 2
 168 138 193 104 242 104 c 0
 299 104 333 150 333 225 c 2
 333 532 l 1
 447 532 l 1xea
222 729 m 1xf4
 222 614 l 1
 119 614 l 1
 119 729 l 1
 222 729 l 1xf4
382 729 m 1
 382 614 l 1
 279 614 l 1
 279 729 l 1
 382 729 l 1
EndSplineSet
EndChar

StartChar: yacute
Encoding: 368 253 261
Width: 456
Flags: MW
HStem: -214 112<91 151.5> 512 20<8 136 136 136 320 442 442 442>
LayerCount: 2
Fore
SplineSet
442 532 m 1
 292 9 l 2
 258 -110 242 -153 224 -177 c 0
 204 -204 177 -214 126 -214 c 0
 114 -214 98 -213 71 -212 c 1
 71 -100 l 1
 79 -101 87 -102 95 -102 c 0
 144 -102 158 -87 169 -22 c 1
 8 532 l 1
 136 532 l 1
 230 136 l 1
 320 532 l 1
 442 532 l 1
384 750 m 1
 264 604 l 1
 181 604 l 1
 258 750 l 1
 384 750 l 1
EndSplineSet
EndChar

StartChar: thorn
Encoding: 394 254 287
Width: 501
Flags: MW
HStem: -207 20 -14 115<259.5 289 228 345.5> 424 122<263 288.5> 698 20<51 165 165 165>
VStem: 51 114<-207 71 461 718> 356 118<215 314.5>
LayerCount: 2
Fore
SplineSet
165 71 m 1
 165 -207 l 1
 51 -207 l 1
 51 718 l 1
 165 718 l 1
 165 461 l 1
 198 521 235 546 291 546 c 0
 401 546 474 437 474 272 c 0
 474 97 402 -14 289 -14 c 0
 230 -14 195 10 165 71 c 1
258 424 m 0
 194 424 160 366 160 258 c 0
 160 159 197 101 259 101 c 0
 319 101 356 165 356 265 c 0
 356 364 319 424 258 424 c 0
EndSplineSet
EndChar

StartChar: Amacron
Encoding: 308 256 201
Width: 592
Flags: MW
HStem: 0 20 148 123<187 370 220 370 220 404> 698 20<226 368 368 368> 791 73<155 438 155 438>
LayerCount: 2
Fore
SplineSet
187 148 m 1
 146 0 l 1
 16 0 l 1
 226 718 l 1
 368 718 l 1
 576 0 l 1
 442 0 l 1
 404 148 l 1
 187 148 l 1
296 559 m 1
 220 271 l 1
 370 271 l 1
 296 559 l 1
438 864 m 1
 438 791 l 1
 155 791 l 1
 155 864 l 1
 438 864 l 1
EndSplineSet
EndChar

StartChar: Abreve
Encoding: 260 258 153
Width: 592
Flags: MW
HStem: 0 20 148 123<187 370 220 370 220 404> 698 20<226 368 368 368> 790 77<270 323.5 270 334>
LayerCount: 2
Fore
SplineSet
187 148 m 1
 146 0 l 1
 16 0 l 1
 226 718 l 1
 368 718 l 1
 576 0 l 1
 442 0 l 1
 404 148 l 1
 187 148 l 1
296 559 m 1
 220 271 l 1
 370 271 l 1
 296 559 l 1
382 936 m 1
 435 936 l 1
 425 839 376 790 292 790 c 0
 212 790 167 838 158 936 c 1
 212 936 l 1
 221 885 243 867 297 867 c 0
 350 867 371 884 382 936 c 1
EndSplineSet
EndChar

StartChar: Aogonek
Encoding: 263 260 156
Width: 592
Flags: MW
HStem: -228 57<522 534.5> 148 123<220 370 220 404 187 370> 698 20<226 368 368 368>
VStem: 418 77<-137.5 -112>
LayerCount: 2
Fore
SplineSet
368 718 m 1
 576 0 l 1
 576 -4 l 1
 523 -42 495 -85 495 -125 c 0
 495 -150 512 -171 532 -171 c 0
 547 -171 569 -165 594 -155 c 1
 609 -204 l 1
 568 -222 548 -228 521 -228 c 0
 460 -228 418 -189 418 -132 c 0
 418 -92 436 -52 467 -26 c 1
 476 -17 483 -13 507 0 c 1
 442 0 l 1
 404 148 l 1
 187 148 l 1
 146 0 l 1
 16 0 l 1
 226 718 l 1
 368 718 l 1
296 559 m 1
 220 271 l 1
 370 271 l 1
 296 559 l 1
EndSplineSet
EndChar

StartChar: cacute
Encoding: 330 263 223
Width: 456
Flags: MW
HStem: -14 115<204 255 204 285.5> 428 118<209 260.5>
VStem: 28 118<210.5 318.5 210.5 349>
LayerCount: 2
Fore
SplineSet
313 194 m 1
 429 194 l 1
 412 59 342 -14 229 -14 c 0
 100 -14 28 84 28 259 c 0
 28 439 105 546 235 546 c 0
 307 546 368 512 401 452 c 0
 418 421 425 395 430 342 c 1
 314 342 l 1
 303 402 281 428 240 428 c 0
 178 428 146 372 146 265 c 0
 146 156 175 101 233 101 c 0
 277 101 308 138 313 194 c 1
384 750 m 1
 264 604 l 1
 181 604 l 1
 258 750 l 1
 384 750 l 1
EndSplineSet
EndChar

StartChar: ccircumflex
Encoding: 623 265 516
Width: 456
Flags: MW
HStem: -14 115<204 255 204 285.5> 428 118<209 260.5>
VStem: 28 118<210.5 318.5 210.5 349> 313 116<194 194>
LayerCount: 2
Fore
SplineSet
340 778 m 1
 433 632 l 1
 340 632 l 1
 288 714 l 1
 237 632 l 1
 144 632 l 1
 237 778 l 1
 340 778 l 1
313 194 m 1
 429 194 l 1
 412 59 342 -14 229 -14 c 0
 100 -14 28 84 28 259 c 0
 28 439 105 546 235 546 c 0
 307 546 368 512 401 452 c 0
 418 421 425 395 430 342 c 1
 314 342 l 1
 303 402 281 428 240 428 c 0
 178 428 146 372 146 265 c 0
 146 156 175 101 233 101 c 0
 277 101 308 138 313 194 c 1
EndSplineSet
EndChar

StartChar: cdotaccent
Encoding: 625 267 518
Width: 456
Flags: W
HStem: -14 115<204 255 204 285.5> 428 118<209 260.5> 632 115<236 340 236 340>
VStem: 28 118<210.5 318.5 210.5 349> 236 104<632 747 632 747> 313 116<194 194>
LayerCount: 2
Fore
SplineSet
340 747 m 1xf8
 340 632 l 1
 236 632 l 1
 236 747 l 1
 340 747 l 1xf8
313 194 m 1xf4
 429 194 l 1
 412 59 342 -14 229 -14 c 0
 100 -14 28 84 28 259 c 0
 28 439 105 546 235 546 c 0
 307 546 368 512 401 452 c 0
 418 421 425 395 430 342 c 1
 314 342 l 1
 303 402 281 428 240 428 c 0
 178 428 146 372 146 265 c 0
 146 156 175 101 233 101 c 0
 277 101 308 138 313 194 c 1xf4
EndSplineSet
EndChar

StartChar: Ccaron
Encoding: 266 268 159
Width: 592
Flags: MW
HStem: -19 130<262 329.5 262 345> 607 130<264.5 332.5>
VStem: 36 125<279.5 435 279.5 474>
LayerCount: 2
Fore
SplineSet
561 483 m 1
 438 483 l 1
 429 522 422 538 409 559 c 1
 388 589 353 607 312 607 c 0
 217 607 161 514 161 356 c 0
 161 203 216 111 308 111 c 0
 351 111 386 130 410 167 c 0
 423 188 429 206 438 246 c 1
 561 246 l 1
 545 161 529 120 495 74 c 0
 450 13 384 -19 306 -19 c 0
 139 -19 36 124 36 357 c 0
 36 591 141 737 309 737 c 0
 402 737 479 691 524 610 c 0
 546 570 555 540 561 483 c 1
441 936 m 1
 348 790 l 1
 245 790 l 1
 152 936 l 1
 245 936 l 1
 296 854 l 1
 348 936 l 1
 441 936 l 1
EndSplineSet
EndChar

StartChar: Dcaron
Encoding: 267 270 160
Width: 592
Flags: MW
HStem: 0 123<62 302 182 302 302 317> 595 123<182 182 182 300>
VStem: 62 120<123 595 123 718> 437 125<312 412.5>
LayerCount: 2
Fore
SplineSet
62 0 m 1
 62 718 l 1
 322 718 l 2
 474 718 562 592 562 374 c 0
 562 250 532 144 478 75 c 1
 439 27 382 0 317 0 c 2
 62 0 l 1
182 595 m 1
 182 123 l 1
 302 123 l 2
 387 123 437 214 437 370 c 0
 437 455 421 520 391 557 c 0
 370 582 340 595 300 595 c 2
 182 595 l 1
441 936 m 1
 348 790 l 1
 245 790 l 1
 152 936 l 1
 245 936 l 1
 296 854 l 1
 348 936 l 1
 441 936 l 1
EndSplineSet
EndChar

StartChar: dcaron
Encoding: 333 271 226
Width: 561
Flags: W
HStem: -14 115<212.5 241.5> 424 122<214.5 239 156 276.5> 606 112<473 536 338 473> 698 20<338 452 452 452 473 581 581 581>
VStem: 28 108 28 118<214 314.5 214 354.5> 338 114<460 718 0 718>
LayerCount: 2
Fore
SplineSet
452 718 m 1xd6
 452 0 l 1
 340 0 l 1
 340 70 l 1
 312 13 271 -14 212 -14 c 0
 100 -14 28 98 28 272 c 0
 28 437 101 546 211 546 c 0
 267 546 303 522 338 460 c 1
 338 718 l 1
 452 718 l 1xd6
246 424 m 0
 183 424 146 365 146 264 c 0
 146 164 183 101 242 101 c 0
 306 101 342 159 342 260 c 0
 342 364 307 424 246 424 c 0
473 718 m 1x28
 581 718 l 1
 581 615 l 2
 581 566 569 530 544 505 c 0
 525 486 497 472 473 471 c 1
 473 517 l 1
 513 525 538 558 536 600 c 1
 536 606 l 1
 473 606 l 1
 473 718 l 1x28
EndSplineSet
EndChar

StartChar: dcroat
Encoding: 392 273 285
Width: 501
Flags: W
HStem: -14 115<212.5 241.5> 424 122<214.5 239 156 276.5> 596 67<219 338 219 338 452 501> 698 20<338 452 452 452>
VStem: 28 118<214 314.5 214 354.5> 338 114<460 596 0 596 663 718> 340 112<0 70 70 70>
LayerCount: 2
Fore
SplineSet
452 663 m 1xfa
 501 663 l 1
 501 596 l 1
 452 596 l 1
 452 0 l 1xf4
 340 0 l 1
 340 70 l 1xfa
 312 13 271 -14 212 -14 c 0
 100 -14 28 98 28 272 c 0
 28 437 101 546 211 546 c 0
 267 546 303 521 338 460 c 1
 338 596 l 1
 219 596 l 1
 219 663 l 1
 338 663 l 1
 338 718 l 1xfc
 452 718 l 1
 452 663 l 1xfa
246 424 m 0xfa
 183 424 146 365 146 264 c 0
 146 164 183 101 242 101 c 0
 306 101 342 159 342 260 c 0
 342 364 307 424 246 424 c 0xfa
EndSplineSet
EndChar

StartChar: Edotaccent
Encoding: 273 278 166
Width: 547
Flags: W
HStem: 0 127<182 509 182 509 62 509> 313 127<182 470 182 470> 591 127<182 495 182 182> 800 115<222 326 222 326>
VStem: 62 104 62 120<127 313 440 591>
LayerCount: 2
Fore
SplineSet
495 718 m 1xf4
 495 591 l 1
 182 591 l 1
 182 440 l 1
 470 440 l 1
 470 313 l 1
 182 313 l 1
 182 127 l 1
 509 127 l 1
 509 0 l 1
 62 0 l 1
 62 718 l 1
 495 718 l 1xf4
326 915 m 1xf8
 326 800 l 1
 222 800 l 1
 222 915 l 1
 326 915 l 1xf8
EndSplineSet
EndChar

StartChar: Eogonek
Encoding: 274 280 167
Width: 547
Flags: MW
HStem: -228 57<455 467.5> 0 127<182 440 62 509> 313 127<182 470 182 470> 591 127<182 495 182 182>
VStem: 62 120<127 313 440 591> 351 77<-137.5 -112>
LayerCount: 2
Fore
SplineSet
495 718 m 1
 495 591 l 1
 182 591 l 1
 182 440 l 1
 470 440 l 1
 470 313 l 1
 182 313 l 1
 182 127 l 1
 509 127 l 1
 509 -4 l 1
 456 -42 428 -85 428 -125 c 0
 428 -150 445 -171 465 -171 c 0
 480 -171 502 -165 527 -155 c 1
 542 -204 l 1
 501 -222 481 -228 454 -228 c 0
 393 -228 351 -189 351 -132 c 0
 351 -92 369 -52 400 -26 c 1
 409 -17 416 -13 440 0 c 1
 62 0 l 1
 62 718 l 1
 495 718 l 1
EndSplineSet
EndChar

StartChar: eogonek
Encoding: 340 281 233
Width: 456
Flags: MW
HStem: -228 57<313 325.5> -14 113<203 241> 227 92<137 315 137 433 134 315> 431 115<199.5 251>
VStem: 209 77<-135.5 -106>
LayerCount: 2
Fore
SplineSet
433 227 m 1
 134 227 l 1
 141 138 172 99 234 99 c 0
 273 99 299 119 310 157 c 1
 428 157 l 1
 413 101 405 87 348 5 c 1
 297 -65 286 -88 286 -121 c 0
 286 -150 302 -171 324 -171 c 0
 338 -171 360 -165 386 -155 c 1
 401 -204 l 1
 360 -222 339 -228 312 -228 c 0
 251 -228 209 -189 209 -132 c 0
 209 -80 236 -36 284 -8 c 1
 264 -12 250 -14 232 -14 c 0
 96 -14 19 88 19 268 c 0
 19 442 97 546 226 546 c 0
 359 546 433 441 433 252 c 2
 433 227 l 1
137 319 m 1
 315 319 l 1
 307 394 277 431 225 431 c 0
 174 431 147 396 137 319 c 1
EndSplineSet
EndChar

StartChar: Gcircumflex
Encoding: 628 284 521
Width: 638
Flags: MW
HStem: -19 127<274.5 331.5> 265 122<338 585 338 476> 614 123<276 359.5>
VStem: 36 125<276 434 276 471>
LayerCount: 2
Fore
SplineSet
424 964 m 1
 517 818 l 1
 424 818 l 1
 372 900 l 1
 321 818 l 1
 228 818 l 1
 321 964 l 1
 424 964 l 1
338 265 m 1
 338 387 l 1
 585 387 l 1
 585 0 l 1
 503 0 l 1
 490 90 l 1
 466 56 454 42 436 27 c 0
 401 -4 357 -19 306 -19 c 0
 145 -19 36 131 36 354 c 0
 36 588 148 737 324 737 c 0
 422 737 501 693 547 612 c 0
 568 575 576 547 583 495 c 1
 459 495 l 1
 447 565 392 614 327 614 c 0
 225 614 161 514 161 354 c 0
 161 198 222 108 327 108 c 0
 365 108 398 122 425 151 c 0
 450 178 462 205 476 265 c 1
 338 265 l 1
EndSplineSet
EndChar

StartChar: Gbreve
Encoding: 275 286 168
Width: 638
Flags: MW
HStem: -19 127<274.5 331.5> 265 122<338 585 338 476> 614 123<276 359.5> 790 77<293 346.5 293 357>
VStem: 36 125<276 434 276 471> 338 247<265 387 0 387>
LayerCount: 2
Fore
SplineSet
338 265 m 1
 338 387 l 1
 585 387 l 1
 585 0 l 1
 503 0 l 1
 490 90 l 1
 466 56 454 42 436 27 c 0
 401 -4 357 -19 306 -19 c 0
 145 -19 36 131 36 354 c 0
 36 588 148 737 324 737 c 0
 422 737 501 693 547 612 c 0
 568 575 576 547 583 495 c 1
 459 495 l 1
 447 565 392 614 327 614 c 0
 225 614 161 514 161 354 c 0
 161 198 222 108 327 108 c 0
 365 108 398 122 425 151 c 0
 450 178 462 205 476 265 c 1
 338 265 l 1
405 936 m 1
 458 936 l 1
 448 839 399 790 315 790 c 0
 235 790 190 838 181 936 c 1
 235 936 l 1
 244 885 266 867 320 867 c 0
 373 867 394 884 405 936 c 1
EndSplineSet
EndChar

StartChar: Gdotaccent
Encoding: 630 288 523
Width: 638
Flags: MW
HStem: -19 127<274.5 331.5> 265 122<338 585 338 476> 614 123<276 359.5> 818 115<320 424 320 424>
VStem: 36 125<276 434 276 471> 320 104<818 933 818 933>
LayerCount: 2
Fore
SplineSet
424 933 m 1
 424 818 l 1
 320 818 l 1
 320 933 l 1
 424 933 l 1
338 265 m 1
 338 387 l 1
 585 387 l 1
 585 0 l 1
 503 0 l 1
 490 90 l 1
 466 56 454 42 436 27 c 0
 401 -4 357 -19 306 -19 c 0
 145 -19 36 131 36 354 c 0
 36 588 148 737 324 737 c 0
 422 737 501 693 547 612 c 0
 568 575 576 547 583 495 c 1
 459 495 l 1
 447 565 392 614 327 614 c 0
 225 614 161 514 161 354 c 0
 161 198 222 108 327 108 c 0
 365 108 398 122 425 151 c 0
 450 178 462 205 476 265 c 1
 338 265 l 1
EndSplineSet
EndChar

StartChar: gdotaccent
Encoding: 631 289 524
Width: 501
Flags: W
HStem: -217 107<227 276.5 227 276.5> -3 118<214 249> 424 122<214.5 245 160 271.5> 632 115<250 354 250 354>
VStem: 33 118<219.5 315.5 219.5 354> 250 104<632 747 632 747> 338 115<11 28 28 80 80 80>
LayerCount: 2
Fore
SplineSet
354 747 m 1xfc
 354 632 l 1
 250 632 l 1
 250 747 l 1
 354 747 l 1xfc
343 532 m 1
 453 532 l 1
 453 28 l 2
 453 -59 439 -113 408 -151 c 0
 373 -194 313 -217 240 -217 c 0
 170 -217 115 -196 80 -156 c 0
 57 -130 49 -108 42 -57 c 1
 167 -57 l 1
 170 -72 172 -78 177 -85 c 0
 187 -101 211 -110 243 -110 c 0
 310 -110 338 -74 338 11 c 2
 338 80 l 1xfa
 308 18 278 -3 220 -3 c 0
 105 -3 33 102 33 271 c 0
 33 437 105 546 215 546 c 0
 275 546 313 518 343 450 c 1
 343 532 l 1
243 424 m 0
 186 424 151 364 151 267 c 0
 151 172 185 115 243 115 c 0
 304 115 339 171 339 267 c 0
 339 360 300 424 243 424 c 0
EndSplineSet
EndChar

StartChar: Gcommaaccent
Encoding: 319 290 212
Width: 638
Flags: W
HStem: -172 112<265 328 265 373> -19 127<274.5 331.5> 265 122<338 585 338 476> 614 123<276 359.5>
VStem: 36 108 36 125<276 434 276 471> 338 247<265 387 0 387>
LayerCount: 2
Fore
SplineSet
338 265 m 1xf6
 338 387 l 1
 585 387 l 1
 585 0 l 1
 503 0 l 1
 490 90 l 1
 466 56 454 42 436 27 c 0
 401 -4 357 -19 306 -19 c 0
 145 -19 36 131 36 354 c 0
 36 588 148 737 324 737 c 0
 422 737 501 693 547 612 c 0
 568 575 576 547 583 495 c 1
 459 495 l 1
 447 565 392 614 327 614 c 0
 225 614 161 514 161 354 c 0
 161 198 222 108 327 108 c 0
 365 108 398 122 425 151 c 0
 450 178 462 205 476 265 c 1
 338 265 l 1xf6
265 -60 m 1xf8
 373 -60 l 1
 373 -163 l 2
 373 -212 361 -248 336 -273 c 0
 317 -292 289 -306 265 -307 c 1
 265 -261 l 1
 305 -253 330 -220 328 -178 c 1
 328 -172 l 1
 265 -172 l 1
 265 -60 l 1xf8
EndSplineSet
EndChar

StartChar: gcommaaccent
Encoding: 386 291 279
Width: 501
Flags: W
HStem: -217 107<227 276.5 227 276.5> -3 118<214 249> 424 122<214.5 245 160 271.5> 606 112<242 305 242 305 197 305>
VStem: 33 108 33 118<219.5 315.5 219.5 354> 343 110<450 532>
LayerCount: 2
Fore
SplineSet
343 532 m 1xf6
 453 532 l 1
 453 28 l 2
 453 -59 439 -113 408 -151 c 0
 373 -194 313 -217 240 -217 c 0
 170 -217 115 -196 80 -156 c 0
 57 -130 49 -108 42 -57 c 1
 167 -57 l 1
 170 -72 172 -78 177 -85 c 0
 187 -101 211 -110 243 -110 c 0
 310 -110 338 -74 338 11 c 2
 338 80 l 1
 308 18 278 -3 220 -3 c 0
 105 -3 33 102 33 271 c 0
 33 437 105 546 215 546 c 0
 275 546 313 518 343 450 c 1
 343 532 l 1xf6
243 424 m 0
 186 424 151 364 151 267 c 0
 151 172 185 115 243 115 c 0
 304 115 339 171 339 267 c 0
 339 360 300 424 243 424 c 0
305 606 m 1xf8
 197 606 l 1
 197 709 l 2
 197 758 209 794 234 819 c 0
 253 838 281 852 305 853 c 1
 305 807 l 1
 265 799 240 766 242 724 c 1
 242 718 l 1
 305 718 l 1
 305 606 l 1xf8
EndSplineSet
EndChar

StartChar: Hcircumflex
Encoding: 632 292 525
Width: 592
Flags: MW
HStem: 0 21G<58 181 58 58 411 411 411 534> 323 123<181 411 181 411> 698 20G<58 181 181 181 411 534 534 534>
VStem: 58 123<0 323 446 718> 411 123<0 323 323 323 446 718 0 718>
LayerCount: 2
Fore
SplineSet
348 964 m 1
 441 818 l 1
 348 818 l 1
 296 900 l 1
 245 818 l 1
 152 818 l 1
 245 964 l 1
 348 964 l 1
411 323 m 1
 181 323 l 1
 181 0 l 1
 58 0 l 1
 58 718 l 1
 181 718 l 1
 181 446 l 1
 411 446 l 1
 411 718 l 1
 534 718 l 1
 534 0 l 1
 411 0 l 1
 411 323 l 1
EndSplineSet
EndChar

StartChar: hcircumflex
Encoding: 633 293 526
Width: 501
Flags: MW
HStem: 0 21G<53 167 53 53 334 448 334 334> 428 118<267 286> 698 20G<53 167 167 167>
VStem: 53 114<0 305 459 718> 334 114<0 323 323 360>
LayerCount: 2
Fore
SplineSet
302 964 m 1
 395 818 l 1
 302 818 l 1
 250 900 l 1
 199 818 l 1
 106 818 l 1
 199 964 l 1
 302 964 l 1
167 718 m 1
 167 459 l 1
 190 516 236 546 298 546 c 0
 389 546 448 476 448 368 c 2
 448 0 l 1
 334 0 l 1
 334 323 l 2
 334 397 312 428 260 428 c 0
 203 428 167 381 167 305 c 2
 167 0 l 1
 53 0 l 1
 53 718 l 1
 167 718 l 1
EndSplineSet
EndChar

StartChar: Hbar
Encoding: 634 294 527
Width: 715
Flags: MW
HStem: 0 21G<121 244 121 121 474 474 474 597> 323 123<244 474 244 474> 547 82<36 121 36 121 244 474 597 679> 698 20G<121 244 244 244 474 597 597 597>
VStem: 121 123<0 323 446 547 629 718> 474 123<0 323 323 323 446 547 0 547 629 718>
LayerCount: 2
Fore
SplineSet
474 323 m 1
 244 323 l 1
 244 0 l 1
 121 0 l 1
 121 547 l 1
 36 547 l 1
 36 629 l 1
 121 629 l 1
 121 718 l 1
 244 718 l 1
 244 629 l 1
 474 629 l 1
 474 718 l 1
 597 718 l 1
 597 629 l 1
 679 629 l 1
 679 547 l 1
 597 547 l 1
 597 0 l 1
 474 0 l 1
 474 323 l 1
474 547 m 1
 244 547 l 1
 244 446 l 1
 474 446 l 1
 474 547 l 1
EndSplineSet
EndChar

StartChar: hbar
Encoding: 635 295 528
Width: 564
Flags: MW
HStem: 0 21G<116 230 116 116 397 511 397 397> 428 118<330 349> 567 82<36 116 36 116 230 359> 698 20G<116 230 230 230>
VStem: 116 114<0 305 459 567 649 718> 397 114<0 323 323 360>
LayerCount: 2
Fore
SplineSet
116 649 m 1
 116 718 l 1
 230 718 l 1
 230 649 l 1
 359 649 l 1
 359 567 l 1
 230 567 l 1
 230 459 l 1
 253 516 299 546 361 546 c 0
 452 546 511 476 511 368 c 2
 511 0 l 1
 397 0 l 1
 397 323 l 2
 397 397 375 428 323 428 c 0
 266 428 230 381 230 305 c 2
 230 0 l 1
 116 0 l 1
 116 567 l 1
 36 567 l 1
 36 649 l 1
 116 649 l 1
EndSplineSet
EndChar

StartChar: Itilde
Encoding: 636 296 529
Width: 228
Flags: W
HStem: 0 21G<52 175 52 52> 698 20G<52 175 175 175> 825 80<167 182.5 166.5 198.5> 861 80<43.5 57>
VStem: 52 123<0 718 0 718>
LayerCount: 2
Fore
SplineSet
211 945 m 1xe8
 264 945 l 1
 251 865 221 825 176 825 c 0xe8
 158 825 127 834 91 849 c 1
 73 858 61 861 53 861 c 0
 34 861 21 846 15 818 c 1
 -37 818 l 1
 -23 902 9 941 62 941 c 0xd8
 78 941 87 938 121 922 c 0
 150 909 161 905 172 905 c 0
 193 905 204 917 211 945 c 1xe8
175 718 m 1
 175 0 l 1
 52 0 l 1
 52 718 l 1
 175 718 l 1
EndSplineSet
EndChar

StartChar: itilde
Encoding: 637 297 530
Width: 228
Flags: W
HStem: 0 21G<57 171 57 57> 512 20G<57 171 171 171> 639 80<168 183.5 167.5 199.5> 675 80<44.5 58>
VStem: 57 114<0 532 0 532>
LayerCount: 2
Fore
SplineSet
212 759 m 1xe8
 265 759 l 1
 252 679 222 639 177 639 c 0xe8
 159 639 128 648 92 663 c 1
 74 672 62 675 54 675 c 0
 35 675 22 660 16 632 c 1
 -36 632 l 1
 -22 716 10 755 63 755 c 0xd8
 79 755 88 752 122 736 c 0
 151 723 162 719 173 719 c 0
 194 719 205 731 212 759 c 1xe8
57 532 m 1
 171 532 l 1
 171 0 l 1
 57 0 l 1
 57 532 l 1
EndSplineSet
EndChar

StartChar: Imacron
Encoding: 312 298 205
Width: 228
Flags: MW
HStem: 0 20 698 20<52 175 175 175> 791 73<-28 255 -28 255>
VStem: 52 123<0 718 0 718>
LayerCount: 2
Fore
SplineSet
175 718 m 1
 175 0 l 1
 52 0 l 1
 52 718 l 1
 175 718 l 1
255 864 m 1
 255 791 l 1
 -28 791 l 1
 -28 864 l 1
 255 864 l 1
EndSplineSet
EndChar

StartChar: imacron
Encoding: 376 299 269
Width: 228
Flags: MW
HStem: 0 20 512 20<57 171 171 171> 605 73<-28 255 -28 255>
VStem: 57 114<0 532 0 532>
LayerCount: 2
Fore
SplineSet
57 532 m 1
 171 532 l 1
 171 0 l 1
 57 0 l 1
 57 532 l 1
255 678 m 1
 255 605 l 1
 -28 605 l 1
 -28 678 l 1
 255 678 l 1
EndSplineSet
EndChar

StartChar: Ibreve
Encoding: 638 300 531
Width: 228
Flags: MW
HStem: 0 21G<52 175 52 52> 698 20G<52 175 175 175> 818 77<87 140.5 87 151>
VStem: 52 123<0 718 0 718>
LayerCount: 2
Fore
SplineSet
199 964 m 1
 252 964 l 1
 242 867 193 818 109 818 c 0
 29 818 -16 866 -25 964 c 1
 29 964 l 1
 38 913 60 895 114 895 c 0
 167 895 188 912 199 964 c 1
175 718 m 1
 175 0 l 1
 52 0 l 1
 52 718 l 1
 175 718 l 1
EndSplineSet
EndChar

StartChar: ibreve
Encoding: 639 301 532
Width: 228
Flags: MW
HStem: 0 21G<57 171 57 57> 512 20G<57 171 171 171> 632 77<88 141.5 88 152>
VStem: 57 114<0 532 0 532>
LayerCount: 2
Fore
SplineSet
200 778 m 1
 253 778 l 1
 243 681 194 632 110 632 c 0
 30 632 -15 680 -24 778 c 1
 30 778 l 1
 39 727 61 709 115 709 c 0
 168 709 189 726 200 778 c 1
57 532 m 1
 171 532 l 1
 171 0 l 1
 57 0 l 1
 57 532 l 1
EndSplineSet
EndChar

StartChar: Iogonek
Encoding: 313 302 206
Width: 228
Flags: W
HStem: -228 57<121 133.5> 698 20<52 175 175 175>
VStem: 17 77<-137.5 -112> 52 123<0 718 -4 718>
LayerCount: 2
Fore
SplineSet
175 718 m 1xd0
 175 -4 l 1xd0
 122 -42 94 -85 94 -125 c 0
 94 -150 111 -171 131 -171 c 0
 146 -171 168 -165 193 -155 c 1
 208 -204 l 1
 167 -222 147 -228 120 -228 c 0
 59 -228 17 -189 17 -132 c 0xe0
 17 -92 35 -52 66 -26 c 1
 75 -17 82 -13 106 0 c 1
 52 0 l 1
 52 718 l 1
 175 718 l 1xd0
EndSplineSet
EndChar

StartChar: iogonek
Encoding: 387 303 280
Width: 228
Flags: W
HStem: -228 57<117 129.5> 512 20<57 171 171 171> 595 130<57 171 57 171>
VStem: 13 77<-137.5 -112> 57 114<0 532 -4 532 595 725>
LayerCount: 2
Fore
SplineSet
171 532 m 1xe8
 171 -4 l 1xe8
 118 -42 90 -85 90 -125 c 0
 90 -150 107 -171 127 -171 c 0
 142 -171 164 -165 189 -155 c 1
 204 -204 l 1
 163 -222 143 -228 116 -228 c 0
 55 -228 13 -189 13 -132 c 0xf0
 13 -92 31 -52 62 -26 c 1
 71 -17 78 -13 102 0 c 1
 57 0 l 1
 57 532 l 1
 171 532 l 1xe8
171 725 m 1
 171 595 l 1
 57 595 l 1
 57 725 l 1
 171 725 l 1
EndSplineSet
EndChar

StartChar: Idotaccent
Encoding: 280 304 173
Width: 228
Flags: W
HStem: 0 20 698 20<52 175 175 175> 800 115<63 167 63 167>
VStem: 52 104 52 123<0 718 0 718>
LayerCount: 2
Fore
SplineSet
175 718 m 1xe8
 175 0 l 1
 52 0 l 1
 52 718 l 1
 175 718 l 1xe8
167 915 m 1xf0
 167 800 l 1
 63 800 l 1
 63 915 l 1
 167 915 l 1xf0
EndSplineSet
EndChar

StartChar: dotlessi
Encoding: 245 305 144
Width: 228
Flags: MW
HStem: 0 20 512 20<57 171 171 171>
VStem: 57 114<0 532 0 532>
LayerCount: 2
Fore
SplineSet
57 532 m 1
 171 532 l 1
 171 0 l 1
 57 0 l 1
 57 532 l 1
EndSplineSet
EndChar

StartChar: IJ
Encoding: 640 306 533
Width: 648
Flags: MW
HStem: -18 122<376 430.5 376 471> 698 20G<52 175 175 175 474 597 597 597>
VStem: 52 123<0 718 0 718> 218 115<215.5 271> 474 123<208 718>
LayerCount: 2
Fore
SplineSet
597 718 m 1
 597 208 l 2
 597 56 535 -18 407 -18 c 0
 329 -18 273 12 245 70 c 1
 224 111 218 160 218 271 c 1
 333 271 l 1
 334 135 347 104 405 104 c 0
 456 104 474 131 474 208 c 2
 474 718 l 1
 597 718 l 1
175 718 m 1
 175 0 l 1
 52 0 l 1
 52 718 l 1
 175 718 l 1
EndSplineSet
Ligature2: "'liga' Standard Ligatures in Latin lookup 0 subtable" I J
EndChar

StartChar: ij
Encoding: 641 307 534
Width: 398
Flags: MW
HStem: 0 21G<57 171 57 57> 512 20G<57 171 171 171 231 345 345 345> 595 130<57 171 57 171 231 345 57 231>
VStem: 57 114<0 532 0 532 595 725> 231 114<-53 532 595 725>
LayerCount: 2
Fore
SplineSet
345 532 m 1
 345 -56 l 2
 345 -175 311 -214 206 -214 c 2
 176 -214 l 1
 176 -102 l 1
 197 -102 l 2
 221 -102 231 -88 231 -53 c 2
 231 532 l 1
 345 532 l 1
345 725 m 1
 345 595 l 1
 231 595 l 1
 231 725 l 1
 345 725 l 1
57 532 m 1
 171 532 l 1
 171 0 l 1
 57 0 l 1
 57 532 l 1
171 725 m 1
 171 595 l 1
 57 595 l 1
 57 725 l 1
 171 725 l 1
EndSplineSet
Ligature2: "'liga' Standard Ligatures in Latin lookup 0 subtable" i j
EndChar

StartChar: Jcircumflex
Encoding: 642 308 535
Width: 456
Flags: MW
HStem: -18 122<176 230.5 176 271> 698 20G<274 397 397 397>
VStem: 18 115<215.5 271> 274 123<208 718>
LayerCount: 2
Fore
SplineSet
387 964 m 1
 480 818 l 1
 387 818 l 1
 335 900 l 1
 284 818 l 1
 191 818 l 1
 284 964 l 1
 387 964 l 1
397 718 m 1
 397 208 l 2
 397 56 335 -18 207 -18 c 0
 129 -18 73 12 45 70 c 1
 24 111 18 160 18 271 c 1
 133 271 l 1
 134 135 147 104 205 104 c 0
 256 104 274 131 274 208 c 2
 274 718 l 1
 397 718 l 1
EndSplineSet
EndChar

StartChar: jcircumflex
Encoding: 643 309 536
Width: 228
Flags: MW
HStem: 512 20G<57 171 171 171>
VStem: 57 114<-53 532>
LayerCount: 2
Fore
SplineSet
171 532 m 1
 171 -56 l 2
 171 -175 137 -214 32 -214 c 2
 2 -214 l 1
 2 -102 l 1
 23 -102 l 2
 47 -102 57 -88 57 -53 c 2
 57 532 l 1
 171 532 l 1
188 750 m 1
 281 604 l 1
 188 604 l 1
 136 686 l 1
 85 604 l 1
 -8 604 l 1
 85 750 l 1
 188 750 l 1
EndSplineSet
EndChar

StartChar: Kcommaaccent
Encoding: 314 310 207
Width: 592
Flags: W
HStem: -172 112<242 305 242 350> 0 20 698 20<71 194 194 194 419 578 578 578>
VStem: 71 108 71 123<0 243 426 718>
LayerCount: 2
Fore
SplineSet
194 243 m 1xe8
 194 0 l 1
 71 0 l 1
 71 718 l 1
 194 718 l 1
 194 426 l 1
 419 718 l 1
 578 718 l 1
 338 424 l 1
 592 0 l 1
 434 0 l 1
 251 315 l 1
 194 243 l 1xe8
242 -60 m 1xf0
 350 -60 l 1
 350 -163 l 2
 350 -212 338 -248 313 -273 c 0
 294 -292 266 -306 242 -307 c 1
 242 -261 l 1
 282 -253 307 -220 305 -178 c 1
 305 -172 l 1
 242 -172 l 1
 242 -60 l 1xf0
EndSplineSet
EndChar

StartChar: kcommaaccent
Encoding: 377 311 270
Width: 456
Flags: W
HStem: -172 112<174 237 174 282> 0 20 698 20<57 171 171 171>
VStem: 57 108 57 114<0 168 330 718>
LayerCount: 2
Fore
SplineSet
171 168 m 1xe8
 171 0 l 1
 57 0 l 1
 57 718 l 1
 171 718 l 1
 171 330 l 1
 315 532 l 1
 456 532 l 1
 302 326 l 1
 461 0 l 1
 323 0 l 1
 219 228 l 1
 171 168 l 1xe8
174 -60 m 1xf0
 282 -60 l 1
 282 -163 l 2
 282 -212 270 -248 245 -273 c 0
 226 -292 198 -306 174 -307 c 1
 174 -261 l 1
 214 -253 239 -220 237 -178 c 1
 237 -172 l 1
 174 -172 l 1
 174 -60 l 1xf0
EndSplineSet
EndChar

StartChar: kgreenlandic
Encoding: 644 312 537
Width: 456
Flags: MW
HStem: 0 21G<57 171 57 57 323 323 323 461> 512 20G<57 171 171 171 315 456 456 456>
VStem: 57 114<0 208 346 532>
LayerCount: 2
Fore
SplineSet
171 0 m 1
 57 0 l 1
 57 532 l 1
 171 532 l 1
 171 346 l 1
 315 532 l 1
 456 532 l 1
 254 282 l 1
 461 0 l 1
 323 0 l 1
 171 208 l 1
 171 0 l 1
EndSplineSet
EndChar

StartChar: Lacute
Encoding: 281 313 174
Width: 501
Flags: MW
HStem: 0 130<185 478 185 478 62 478> 698 20<62 185 185 185>
VStem: 62 123<130 718 130 718 130 718>
LayerCount: 2
Fore
SplineSet
185 718 m 1
 185 130 l 1
 478 130 l 1
 478 0 l 1
 62 0 l 1
 62 718 l 1
 185 718 l 1
306 936 m 1
 186 790 l 1
 103 790 l 1
 180 936 l 1
 306 936 l 1
EndSplineSet
EndChar

StartChar: lacute
Encoding: 346 314 239
Width: 228
Flags: MW
HStem: 0 20 698 20<57 171 171 171>
VStem: 57 114<0 718 0 718>
LayerCount: 2
Fore
SplineSet
171 718 m 1
 171 0 l 1
 57 0 l 1
 57 718 l 1
 171 718 l 1
270 936 m 1
 150 790 l 1
 67 790 l 1
 144 936 l 1
 270 936 l 1
EndSplineSet
EndChar

StartChar: Lcommaaccent
Encoding: 315 315 208
Width: 501
Flags: W
HStem: -172 112<197 260 197 305> 0 130<185 478 185 478 62 478> 698 20<62 185 185 185>
VStem: 62 108 62 123<130 718 130 718 130 718>
LayerCount: 2
Fore
SplineSet
185 718 m 1xe8
 185 130 l 1
 478 130 l 1
 478 0 l 1
 62 0 l 1
 62 718 l 1
 185 718 l 1xe8
197 -60 m 1xf0
 305 -60 l 1
 305 -163 l 2
 305 -212 293 -248 268 -273 c 0
 249 -292 221 -306 197 -307 c 1
 197 -261 l 1
 237 -253 262 -220 260 -178 c 1
 260 -172 l 1
 197 -172 l 1
 197 -60 l 1xf0
EndSplineSet
EndChar

StartChar: lcommaaccent
Encoding: 378 316 271
Width: 228
Flags: W
HStem: -172 112<60 123 60 168> 0 20 698 20<57 171 171 171>
VStem: 57 108 57 114<0 718 0 718>
LayerCount: 2
Fore
SplineSet
171 718 m 1xe8
 171 0 l 1
 57 0 l 1
 57 718 l 1
 171 718 l 1xe8
60 -60 m 1xf0
 168 -60 l 1
 168 -163 l 2
 168 -212 156 -248 131 -273 c 0
 112 -292 84 -306 60 -307 c 1
 60 -261 l 1
 100 -253 125 -220 123 -178 c 1
 123 -172 l 1
 60 -172 l 1
 60 -60 l 1xf0
EndSplineSet
EndChar

StartChar: Lcaron
Encoding: 282 317 175
Width: 501
Flags: W
HStem: 0 130<185 478 185 478 62 478> 606 112<323 386> 698 20<62 185 185 185 323 431 431 431>
VStem: 62 108 62 123<130 718 130 718 130 718>
LayerCount: 2
Fore
SplineSet
185 718 m 1xa8
 185 130 l 1
 478 130 l 1
 478 0 l 1
 62 0 l 1
 62 718 l 1
 185 718 l 1xa8
323 718 m 1x50
 431 718 l 1
 431 615 l 2
 431 566 419 530 394 505 c 0
 375 486 347 472 323 471 c 1
 323 517 l 1
 363 525 388 558 386 600 c 1
 386 606 l 1
 323 606 l 1
 323 718 l 1x50
EndSplineSet
EndChar

StartChar: lcaron
Encoding: 347 318 240
Width: 280
Flags: W
HStem: 0 20 606 112<192 255 57 192> 698 20<57 171 171 171 192 300 300 300>
VStem: 57 108 57 114<0 718 0 718>
LayerCount: 2
Fore
SplineSet
171 718 m 1xa8
 171 0 l 1
 57 0 l 1
 57 718 l 1
 171 718 l 1xa8
192 718 m 1x50
 300 718 l 1
 300 615 l 2
 300 566 288 530 263 505 c 0
 244 486 216 472 192 471 c 1
 192 517 l 1
 232 525 257 558 255 600 c 1
 255 606 l 1
 192 606 l 1
 192 718 l 1x50
EndSplineSet
EndChar

StartChar: Ldot
Encoding: 645 319 538
Width: 501
Flags: MW
HStem: 0 130<185 478 185 478 62 478> 698 20G<62 185 185 185>
VStem: 62 123<130 718 130 718 130 718> 204 132<336.5 381 336.5 381.5>
LayerCount: 2
Fore
SplineSet
271 440 m 0
 306 440 336 403 336 359 c 0
 336 314 307 278 270 278 c 0
 233 278 204 314 204 359 c 0
 204 404 234 440 271 440 c 0
185 718 m 1
 185 130 l 1
 478 130 l 1
 478 0 l 1
 62 0 l 1
 62 718 l 1
 185 718 l 1
EndSplineSet
Ligature2: "'liga' Standard Ligatures in Latin lookup 0 subtable" L periodcentered
EndChar

StartChar: ldot
Encoding: 646 320 539
Width: 456
Flags: MW
HStem: 0 21G<57 171 57 57> 698 20G<57 171 171 171>
VStem: 57 114<0 718 0 718> 276 132<230.5 275 230.5 275.5>
LayerCount: 2
Fore
SplineSet
343 334 m 0
 378 334 408 297 408 253 c 0
 408 208 379 172 342 172 c 0
 305 172 276 208 276 253 c 0
 276 298 306 334 343 334 c 0
171 718 m 1
 171 0 l 1
 57 0 l 1
 57 718 l 1
 171 718 l 1
EndSplineSet
Ligature2: "'liga' Standard Ligatures in Latin lookup 0 subtable" l periodcentered
EndChar

StartChar: Lslash
Encoding: 232 321 139
Width: 501
Flags: MW
HStem: 0 130<186 478 186 478 63 478> 698 20<63 186 186 186>
VStem: 63 123<130 311 311 311 130 464 464 718>
LayerCount: 2
Fore
SplineSet
290 459 m 1
 186 386 l 1
 186 130 l 1
 478 130 l 1
 478 0 l 1
 63 0 l 1
 63 311 l 1
 -16 256 l 1
 -16 334 l 1
 63 389 l 1
 63 718 l 1
 186 718 l 1
 186 464 l 1
 290 537 l 1
 290 459 l 1
EndSplineSet
EndChar

StartChar: lslash
Encoding: 248 322 145
Width: 228
Flags: MW
HStem: 0 20 698 20<56 170 170 170>
VStem: 56 114<0 324 324 324 0 473 473 718>
LayerCount: 2
Fore
SplineSet
243 523 m 1
 243 445 l 1
 170 395 l 1
 170 0 l 1
 56 0 l 1
 56 324 l 1
 -15 274 l 1
 -15 352 l 1
 56 402 l 1
 56 718 l 1
 170 718 l 1
 170 473 l 1
 243 523 l 1
EndSplineSet
EndChar

StartChar: Nacute
Encoding: 283 323 176
Width: 592
Flags: MW
HStem: 0 20 698 20<57 186 186 186 422 536 536 536>
VStem: 57 114<0 515 0 718> 422 114<214 718 0 718>
LayerCount: 2
Fore
SplineSet
422 214 m 1
 422 718 l 1
 536 718 l 1
 536 0 l 1
 414 0 l 1
 171 515 l 1
 171 0 l 1
 57 0 l 1
 57 718 l 1
 186 718 l 1
 422 214 l 1
452 936 m 1
 332 790 l 1
 249 790 l 1
 326 936 l 1
 452 936 l 1
EndSplineSet
EndChar

StartChar: Ncommaaccent
Encoding: 316 325 209
Width: 592
Flags: W
HStem: -172 112<242 305 242 350> 0 20 698 20<57 186 186 186 422 536 536 536>
VStem: 57 108 57 114<0 515 0 718> 422 114<214 718 0 718>
LayerCount: 2
Fore
SplineSet
422 214 m 1xec
 422 718 l 1
 536 718 l 1
 536 0 l 1
 414 0 l 1
 171 515 l 1
 171 0 l 1
 57 0 l 1
 57 718 l 1
 186 718 l 1
 422 214 l 1xec
242 -60 m 1xf0
 350 -60 l 1
 350 -163 l 2
 350 -212 338 -248 313 -273 c 0
 294 -292 266 -306 242 -307 c 1
 242 -261 l 1
 282 -253 307 -220 305 -178 c 1
 305 -172 l 1
 242 -172 l 1
 242 -60 l 1xf0
EndSplineSet
EndChar

StartChar: ncommaaccent
Encoding: 379 326 272
Width: 501
Flags: W
HStem: -172 112<197 260 197 305> 0 20 428 118<266 286> 512 20<53 163 163 163>
VStem: 53 108 53 110<451 532 451 532 451 532> 53 114<0 305 0 532> 334 114<0 323 323 360>
LayerCount: 2
Fore
SplineSet
163 532 m 1x54
 163 451 l 1x14
 194 517 235 546 297 546 c 0
 389 546 448 477 448 368 c 2
 448 0 l 1
 334 0 l 1
 334 323 l 2
 334 397 312 428 260 428 c 0x63
 203 428 167 381 167 305 c 2
 167 0 l 1
 53 0 l 1
 53 532 l 1x53
 163 532 l 1x54
197 -60 m 1x88
 305 -60 l 1
 305 -163 l 2
 305 -212 293 -248 268 -273 c 0
 249 -292 221 -306 197 -307 c 1
 197 -261 l 1
 237 -253 262 -220 260 -178 c 1
 260 -172 l 1
 197 -172 l 1
 197 -60 l 1x88
EndSplineSet
EndChar

StartChar: Ncaron
Encoding: 284 327 177
Width: 592
Flags: MW
HStem: 0 20 698 20<57 186 186 186 422 536 536 536>
VStem: 57 114<0 515 0 718> 422 114<214 718 0 718>
LayerCount: 2
Fore
SplineSet
422 214 m 1
 422 718 l 1
 536 718 l 1
 536 0 l 1
 414 0 l 1
 171 515 l 1
 171 0 l 1
 57 0 l 1
 57 718 l 1
 186 718 l 1
 422 214 l 1
441 936 m 1
 348 790 l 1
 245 790 l 1
 152 936 l 1
 245 936 l 1
 296 854 l 1
 348 936 l 1
 441 936 l 1
EndSplineSet
EndChar

StartChar: ncaron
Encoding: 349 328 242
Width: 501
Flags: W
HStem: 0 20 428 118<266 286> 512 20<53 163 163 163>
VStem: 53 110<451 532 451 532 451 532> 53 114<0 305 0 532> 334 114<0 323 323 360>
LayerCount: 2
Fore
SplineSet
163 532 m 1xb0
 163 451 l 1x30
 194 517 235 546 297 546 c 0
 389 546 448 477 448 368 c 2
 448 0 l 1
 334 0 l 1
 334 323 l 2
 334 397 312 428 260 428 c 0xcc
 203 428 167 381 167 305 c 2
 167 0 l 1
 53 0 l 1
 53 532 l 1xac
 163 532 l 1xb0
395 750 m 1
 302 604 l 1
 199 604 l 1
 106 750 l 1
 199 750 l 1
 250 668 l 1
 302 750 l 1
 395 750 l 1
EndSplineSet
EndChar

StartChar: napostrophe
Encoding: 647 329 540
Width: 501
Flags: MW
HStem: 0 21G<53 167 53 53 334 448 334 334> 428 118<266 286> 671 20G<53 53 53 116>
VStem: 53 113<691 716 716 818 685.5 818> 334 114<0 323 323 360>
LayerCount: 2
Fore
SplineSet
53 691 m 1
 53 818 l 1
 166 818 l 1
 166 716 l 2
 166 655 152 610 120 579 c 0
 104 563 89 555 55 545 c 1
 55 596 l 1
 99 614 114 637 116 691 c 1
 53 691 l 1
163 532 m 1
 163 451 l 1
 194 517 235 546 297 546 c 0
 389 546 448 477 448 368 c 2
 448 0 l 1
 334 0 l 1
 334 323 l 2
 334 397 312 428 260 428 c 0
 203 428 167 381 167 305 c 2
 167 0 l 1
 53 0 l 1
 53 532 l 1
 163 532 l 1
EndSplineSet
EndChar

StartChar: Eng
Encoding: 648 330 541
Width: 592
Flags: MW
HStem: 0 21G<57 171 57 57 414 414 536 536> 698 20G<57 186 186 186 422 536 536 536>
VStem: 57 114<0 515 0 718> 422 114<214 718>
LayerCount: 2
Fore
SplineSet
414 0 m 1
 171 515 l 1
 171 0 l 1
 57 0 l 1
 57 718 l 1
 186 718 l 1
 422 214 l 1
 422 718 l 1
 536 718 l 1
 536 0 l 2
 536 -126 451 -176 304 -176 c 1
 304 -53 l 1
 340 -53 406 -42 414 0 c 1
EndSplineSet
EndChar

StartChar: eng
Encoding: 649 331 542
Width: 501
Flags: W
HStem: -179 118<260 286 260 316> 0 21G<53 167 53 53> 428 118<266 286>
VStem: 53 110<451 532 451 532 451 532> 53 114<0 305 0 532> 334 114<43 323 323 360>
LayerCount: 2
Fore
SplineSet
334 43 m 2xf4
 334 323 l 2
 334 397 312 428 260 428 c 0
 203 428 167 381 167 305 c 2
 167 0 l 1
 53 0 l 1xec
 53 532 l 1
 163 532 l 1
 163 451 l 1
 194 517 235 546 297 546 c 0
 389 546 448 477 448 368 c 2
 448 -1 l 2
 448 -142 372 -179 260 -179 c 1
 260 -61 l 1
 312 -61 334 -30 334 43 c 2xf4
EndSplineSet
EndChar

StartChar: Omacron
Encoding: 317 332 210
Width: 638
Flags: MW
HStem: -19 127<269 358.5> 610 127<282 340.5> 791 73<178 461 178 461>
VStem: 36 123<314 419> 479 123<298.5 404>
LayerCount: 2
Fore
SplineSet
323 737 m 0
 398 737 472 701 521 642 c 0
 574 578 602 480 602 359 c 0
 602 238 574 140 521 76 c 0
 472 16 398 -19 319 -19 c 0
 216 -19 126 39 79 135 c 0
 51 194 36 270 36 358 c 0
 36 480 64 578 117 642 c 0
 167 703 241 737 323 737 c 0
321 610 m 0
 220 610 159 516 159 361 c 0
 159 203 219 108 319 108 c 0
 419 108 479 203 479 362 c 0
 479 446 460 516 425 558 c 1
 399 591 360 610 321 610 c 0
461 864 m 1
 461 791 l 1
 178 791 l 1
 178 864 l 1
 461 864 l 1
EndSplineSet
EndChar

StartChar: Obreve
Encoding: 650 334 543
Width: 638
Flags: MW
HStem: -19 127<269 358.5> 610 127<282 340.5> 818 77<292 345.5 292 356>
VStem: 36 123<314 419> 479 123<298.5 404>
LayerCount: 2
Fore
SplineSet
404 964 m 1
 457 964 l 1
 447 867 398 818 314 818 c 0
 234 818 189 866 180 964 c 1
 234 964 l 1
 243 913 265 895 319 895 c 0
 372 895 393 912 404 964 c 1
323 737 m 0
 398 737 472 701 521 642 c 0
 574 578 602 480 602 359 c 0
 602 238 574 140 521 76 c 0
 472 16 398 -19 319 -19 c 0
 216 -19 126 39 79 135 c 0
 51 194 36 270 36 358 c 0
 36 480 64 578 117 642 c 0
 167 703 241 737 323 737 c 0
321 610 m 0
 220 610 159 516 159 361 c 0
 159 203 219 108 319 108 c 0
 419 108 479 203 479 362 c 0
 479 446 460 516 425 558 c 1
 399 591 360 610 321 610 c 0
EndSplineSet
EndChar

StartChar: obreve
Encoding: 651 335 544
Width: 501
Flags: MW
HStem: -14 118<217 285 217 318.5> 428 118<217.5 285.5> 632 77<224 277.5 224 288>
VStem: 28 118<213.5 319 213.5 351> 356 118<213.5 318>
LayerCount: 2
Fore
SplineSet
336 778 m 1
 389 778 l 1
 379 681 330 632 246 632 c 0
 166 632 121 680 112 778 c 1
 166 778 l 1
 175 727 197 709 251 709 c 0
 304 709 325 726 336 778 c 1
254 546 m 0
 387 546 474 434 474 265 c 0
 474 96 386 -14 251 -14 c 0
 116 -14 28 96 28 265 c 0
 28 437 115 546 254 546 c 0
252 428 m 0
 183 428 146 372 146 266 c 0
 146 161 183 104 251 104 c 0
 319 104 356 161 356 266 c 0
 356 370 319 428 252 428 c 0
EndSplineSet
EndChar

StartChar: Ohungarumlaut
Encoding: 291 336 184
Width: 638
Flags: MW
HStem: -19 127<269 358.5> 610 127<282 340.5>
VStem: 36 123<314 419> 479 123<298.5 404>
LayerCount: 2
Fore
SplineSet
323 737 m 0
 398 737 472 701 521 642 c 0
 574 578 602 480 602 359 c 0
 602 238 574 140 521 76 c 0
 472 16 398 -19 319 -19 c 0
 216 -19 126 39 79 135 c 0
 51 194 36 270 36 358 c 0
 36 480 64 578 117 642 c 0
 167 703 241 737 323 737 c 0
321 610 m 0
 220 610 159 516 159 361 c 0
 159 203 219 108 319 108 c 0
 419 108 479 203 479 362 c 0
 479 446 460 516 425 558 c 1
 399 591 360 610 321 610 c 0
394 936 m 1
 273 790 l 1
 190 790 l 1
 267 936 l 1
 394 936 l 1
582 936 m 1
 461 790 l 1
 378 790 l 1
 455 936 l 1
 582 936 l 1
EndSplineSet
EndChar

StartChar: ohungarumlaut
Encoding: 356 337 249
Width: 501
Flags: MW
HStem: -14 118<217 285 217 318.5> 428 118<217.5 285.5>
VStem: 28 118<213.5 319 213.5 351> 356 118<213.5 318>
LayerCount: 2
Fore
SplineSet
254 546 m 0
 387 546 474 434 474 265 c 0
 474 96 386 -14 251 -14 c 0
 116 -14 28 96 28 265 c 0
 28 437 115 546 254 546 c 0
252 428 m 0
 183 428 146 372 146 266 c 0
 146 161 183 104 251 104 c 0
 319 104 356 161 356 266 c 0
 356 370 319 428 252 428 c 0
325 750 m 1
 204 604 l 1
 121 604 l 1
 198 750 l 1
 325 750 l 1
513 750 m 1
 392 604 l 1
 309 604 l 1
 386 750 l 1
 513 750 l 1
EndSplineSet
EndChar

StartChar: OE
Encoding: 234 338 141
Width: 820
Flags: W
HStem: -19 123<247 304.5> 0 127<514 788 514 788 402 788> 313 127<514 769 514 769> 591 127<514 514 514 788> 614 123<247.5 302.5 199 322>
VStem: 30 120<280.5 437 280.5 473> 394 120<196 313 440 521 521 548.5>
LayerCount: 2
Fore
SplineSet
514 591 m 1x76
 514 440 l 1
 769 440 l 1
 769 313 l 1
 514 313 l 1
 514 127 l 1
 788 127 l 1
 788 0 l 1
 402 0 l 1x76
 402 50 l 1
 363 -2 333 -19 276 -19 c 0
 125 -19 30 126 30 355 c 0
 30 591 123 737 275 737 c 0x8e
 330 737 366 720 402 676 c 1
 402 718 l 1
 788 718 l 1
 788 591 l 1
 514 591 l 1x76
394 196 m 2x8e
 394 521 l 2
 394 576 352 614 292 614 c 0
 203 614 150 517 150 357 c 0
 150 204 205 104 289 104 c 0
 346 104 394 146 394 196 c 2x8e
EndSplineSet
EndChar

StartChar: oe
Encoding: 250 339 147
Width: 774
Flags: W
HStem: -14 113<518 568.5 518 571.5> -14 118<217 282.5> 227 92<452 630 452 748 449 630> 428 118<217.5 279 182 285.5> 431 115<514.5 566>
VStem: 28 118<213 318.5 213 350.5>
LayerCount: 2
Fore
SplineSet
625 157 m 1xac
 743 157 l 1
 724 91 707 60 670 29 c 1
 637 0 596 -14 547 -14 c 0x94
 479 -14 436 7 394 60 c 1
 356 8 314 -14 251 -14 c 0
 116 -14 28 97 28 267 c 0
 28 434 116 546 248 546 c 0x74
 310 546 359 520 401 466 c 1
 450 527 484 546 545 546 c 0
 674 546 748 439 748 252 c 2
 748 227 l 1
 449 227 l 1
 456 138 487 99 549 99 c 0
 588 99 614 119 625 157 c 1xac
252 428 m 0
 183 428 146 372 146 265 c 0
 146 161 183 104 251 104 c 0x74
 319 104 356 161 356 266 c 0
 356 370 319 428 252 428 c 0
452 319 m 1
 630 319 l 1
 621 394 592 431 540 431 c 0x2c
 489 431 462 396 452 319 c 1
EndSplineSet
EndChar

StartChar: Racute
Encoding: 292 340 185
Width: 592
Flags: MW
HStem: 0 20 280 122<182 309 182 327> 595 123<182 336 182 182>
VStem: 62 120<0 280 402 595> 422 123<486.5 529>
LayerCount: 2
Fore
SplineSet
62 0 m 1
 62 718 l 1
 359 718 l 2
 472 718 545 638 545 514 c 0
 545 459 529 411 499 376 c 0
 487 362 477 355 454 344 c 1
 520 309 530 276 529 108 c 1
 530 45 534 29 555 19 c 1
 555 0 l 1
 419 0 l 1
 409 41 406 76 405 144 c 0
 405 208 402 231 392 248 c 0
 379 271 354 280 309 280 c 2
 182 280 l 1
 182 0 l 1
 62 0 l 1
182 402 m 1
 327 402 l 2
 392 402 422 432 422 498 c 0
 422 560 391 595 336 595 c 2
 182 595 l 1
 182 402 l 1
452 936 m 1
 332 790 l 1
 249 790 l 1
 326 936 l 1
 452 936 l 1
EndSplineSet
EndChar

StartChar: racute
Encoding: 357 341 250
Width: 319
Flags: W
HStem: 0 20 404 142<255 282.5> 512 20<52 162 162 162>
VStem: 52 110<437 532 437 532 437 532> 52 114<0 277 0 532>
LayerCount: 2
Fore
SplineSet
52 0 m 1xc8
 52 532 l 1xa8
 162 532 l 1
 162 437 l 1xb0
 196 518 227 546 283 546 c 0
 288 546 293 546 306 544 c 1
 306 402 l 1
 298 403 288 404 277 404 c 0
 202 404 166 363 166 277 c 2
 166 0 l 1
 52 0 l 1xc8
315 750 m 1
 195 604 l 1
 112 604 l 1
 189 750 l 1
 315 750 l 1
EndSplineSet
EndChar

StartChar: Rcommaaccent
Encoding: 318 342 211
Width: 592
Flags: W
HStem: -172 112<242 305 242 350> 0 20 280 122<182 309 182 327> 595 123<182 336 182 182>
VStem: 62 108 62 120<0 280 402 595> 422 123<486.5 529>
LayerCount: 2
Fore
SplineSet
62 0 m 1xf6
 62 718 l 1
 359 718 l 2
 472 718 545 638 545 514 c 0
 545 459 529 411 499 376 c 0
 487 362 477 355 454 344 c 1
 520 309 530 276 529 108 c 1
 530 45 534 29 555 19 c 1
 555 0 l 1
 419 0 l 1
 409 41 406 76 405 144 c 0
 405 208 402 231 392 248 c 0
 379 271 354 280 309 280 c 2
 182 280 l 1
 182 0 l 1
 62 0 l 1xf6
182 402 m 1
 327 402 l 2
 392 402 422 432 422 498 c 0
 422 560 391 595 336 595 c 2
 182 595 l 1
 182 402 l 1
242 -60 m 1xf8
 350 -60 l 1
 350 -163 l 2
 350 -212 338 -248 313 -273 c 0
 294 -292 266 -306 242 -307 c 1
 242 -261 l 1
 282 -253 307 -220 305 -178 c 1
 305 -172 l 1
 242 -172 l 1
 242 -60 l 1xf8
EndSplineSet
EndChar

StartChar: rcommaaccent
Encoding: 381 343 274
Width: 319
Flags: W
HStem: -172 112<58 121 58 166> 0 20 404 142<255 282.5> 512 20<52 162 162 162>
VStem: 52 108 52 110<437 532 437 532 437 532> 52 114<0 277>
LayerCount: 2
Fore
SplineSet
52 0 m 1x62
 52 532 l 1x52
 162 532 l 1
 162 437 l 1x54
 196 518 227 546 283 546 c 0
 288 546 293 546 306 544 c 1
 306 402 l 1
 298 403 288 404 277 404 c 0
 202 404 166 363 166 277 c 2
 166 0 l 1
 52 0 l 1x62
58 -60 m 1x88
 166 -60 l 1
 166 -163 l 2
 166 -212 154 -248 129 -273 c 0
 110 -292 82 -306 58 -307 c 1
 58 -261 l 1
 98 -253 123 -220 121 -178 c 1
 121 -172 l 1
 58 -172 l 1
 58 -60 l 1x88
EndSplineSet
EndChar

StartChar: Sacute
Encoding: 294 346 187
Width: 547
Flags: MW
HStem: -19 123<237 316 237 351> 614 123<228.5 297.5>
VStem: 41 115<506.5 554 506.5 582> 398 118<167 219.5>
LayerCount: 2
Fore
SplineSet
32 221 m 1
 150 221 l 1
 155 142 196 104 278 104 c 0
 354 104 398 138 398 196 c 0
 398 243 374 263 291 287 c 2
 228 305 l 2
 153 326 116 343 91 369 c 1
 58 401 41 450 41 512 c 0
 41 652 125 737 265 737 c 0
 406 737 488 655 497 505 c 1
 379 505 l 1
 370 581 334 614 261 614 c 0
 196 614 156 581 156 527 c 0
 156 486 173 466 218 452 c 2
 362 409 l 2
 472 376 516 320 516 214 c 0
 516 70 425 -19 277 -19 c 0
 174 -19 97 22 59 98 c 0
 41 134 34 163 32 221 c 1
429 936 m 1
 309 790 l 1
 226 790 l 1
 303 936 l 1
 429 936 l 1
EndSplineSet
EndChar

StartChar: sacute
Encoding: 358 347 251
Width: 456
Flags: MW
HStem: -14 107<205 259 205 292> 439 107<199.5 247>
VStem: 41 112<375 387.5> 311 115<131 162>
LayerCount: 2
Fore
SplineSet
413 370 m 1
 300 370 l 1
 292 422 272 439 222 439 c 0
 177 439 153 422 153 389 c 0
 153 361 181 343 247 331 c 1
 323 316 383 284 406 247 c 0
 419 225 426 197 426 166 c 0
 426 54 352 -14 232 -14 c 0
 173 -14 120 3 84 33 c 0
 46 64 32 97 25 170 c 1
 143 170 l 1
 145 117 174 93 236 93 c 0
 282 93 311 114 311 148 c 0
 311 176 281 194 216 207 c 0
 95 230 41 280 41 369 c 0
 41 406 50 441 67 470 c 0
 97 521 149 546 222 546 c 0
 276 546 322 532 353 507 c 0
 389 478 404 444 413 370 c 1
384 750 m 1
 264 604 l 1
 181 604 l 1
 258 750 l 1
 384 750 l 1
EndSplineSet
EndChar

StartChar: Scircumflex
Encoding: 652 348 545
Width: 547
Flags: W
HStem: -19 123<237 316 237 351> 614 123<228.5 297.5>
VStem: 32 118<221 221> 41 115<506.5 554 506.5 582> 379 118<505 505> 398 118<167 219.5>
LayerCount: 2
Fore
SplineSet
319 964 m 1xc0
 412 818 l 1
 319 818 l 1
 267 900 l 1
 216 818 l 1
 123 818 l 1
 216 964 l 1
 319 964 l 1xc0
32 221 m 1xe4
 150 221 l 1
 155 142 196 104 278 104 c 0
 354 104 398 138 398 196 c 0xe4
 398 243 374 263 291 287 c 2
 228 305 l 2
 153 326 116 343 91 369 c 1
 58 401 41 450 41 512 c 0
 41 652 125 737 265 737 c 0
 406 737 488 655 497 505 c 1
 379 505 l 1
 370 581 334 614 261 614 c 0
 196 614 156 581 156 527 c 0xd8
 156 486 173 466 218 452 c 2
 362 409 l 2
 472 376 516 320 516 214 c 0
 516 70 425 -19 277 -19 c 0
 174 -19 97 22 59 98 c 0
 41 134 34 163 32 221 c 1xe4
EndSplineSet
EndChar

StartChar: Scedilla
Encoding: 296 350 189
Width: 547
Flags: MW
HStem: -228 57<240 252.5 235.5 285> -96 200<245.5 258> 614 123<228.5 297.5>
VStem: 41 115<506.5 554 506.5 582> 281 77<-142.5 -122> 398 118<167 219.5>
LayerCount: 2
Fore
SplineSet
282 -19 m 1
 262 -55 l 1
 272 -52 278 -51 286 -51 c 0
 328 -51 358 -83 358 -129 c 0
 358 -188 316 -228 254 -228 c 0
 226 -228 207 -223 162 -203 c 1
 180 -155 l 1
 210 -166 229 -171 242 -171 c 0
 263 -171 281 -153 281 -132 c 0
 281 -112 267 -96 249 -96 c 0
 242 -96 232 -99 217 -104 c 1
 200 -84 l 1
 236 -16 l 1
 106 0 34 84 32 221 c 1
 150 221 l 1
 155 142 196 104 278 104 c 0
 354 104 398 138 398 196 c 0
 398 243 374 263 291 287 c 2
 228 305 l 2
 153 326 116 343 91 369 c 1
 58 401 41 450 41 512 c 0
 41 652 125 737 265 737 c 0
 406 737 488 655 497 505 c 1
 379 505 l 1
 370 581 334 614 261 614 c 0
 196 614 156 581 156 527 c 0
 156 486 173 466 218 452 c 2
 362 409 l 2
 472 376 516 320 516 214 c 0
 516 71 429 -16 282 -19 c 1
EndSplineSet
EndChar

StartChar: scedilla
Encoding: 385 351 278
Width: 456
Flags: W
HStem: -228 57<204.5 217.5 200.5 249.5> -96 189<210.5 223> 439 107<199.5 247>
VStem: 41 112<375 387.5> 246 77<-142.5 -122> 311 115<131 162>
LayerCount: 2
Fore
SplineSet
413 370 m 1xf4
 300 370 l 1
 292 422 272 439 222 439 c 0
 177 439 153 422 153 389 c 0
 153 361 181 343 247 331 c 1
 323 316 383 284 406 247 c 0
 419 225 426 197 426 166 c 0xf4
 426 59 363 -4 250 -13 c 1
 227 -55 l 1
 236 -52 243 -51 251 -51 c 0
 293 -51 323 -83 323 -129 c 0
 323 -188 281 -228 218 -228 c 0
 191 -228 172 -223 127 -203 c 1
 145 -155 l 1
 175 -166 194 -171 207 -171 c 0
 228 -171 246 -153 246 -132 c 0xe8
 246 -112 232 -96 214 -96 c 0
 207 -96 197 -99 181 -104 c 1
 164 -84 l 1
 203 -13 l 1
 88 1 30 60 25 170 c 1
 143 170 l 1
 145 117 174 93 236 93 c 0
 282 93 311 114 311 148 c 0
 311 176 281 194 216 207 c 0
 95 230 41 280 41 369 c 0
 41 406 50 441 67 470 c 0
 97 521 149 546 222 546 c 0
 276 546 322 532 353 507 c 0
 389 478 404 444 413 370 c 1xf4
EndSplineSet
EndChar

StartChar: Tcommaaccent
Encoding: 309 354 202
Width: 501
Flags: MW
HStem: -172 112<197 260 197 305> 0 20 591 127<11 189 11 490 312 490 312 312>
VStem: 11 108 189 123<0 591 0 591>
LayerCount: 2
Fore
SplineSet
312 591 m 1
 312 0 l 1
 189 0 l 1
 189 591 l 1
 11 591 l 1
 11 718 l 1
 490 718 l 1
 490 591 l 1
 312 591 l 1
197 -60 m 1
 305 -60 l 1
 305 -163 l 2
 305 -212 293 -248 268 -273 c 0
 249 -292 221 -306 197 -307 c 1
 197 -261 l 1
 237 -253 262 -220 260 -178 c 1
 260 -172 l 1
 197 -172 l 1
 197 -60 l 1
EndSplineSet
EndChar

StartChar: tcommaaccent
Encoding: 373 355 266
Width: 273
Flags: W
HStem: -172 112<83 146 83 191> -6 20 432 100<8 67 8 67 181 253>
VStem: 8 108 67 114<124.5 143 143 432 532 676>
LayerCount: 2
Fore
SplineSet
181 676 m 1xe8
 181 532 l 1
 253 532 l 1
 253 432 l 1
 181 432 l 1
 181 143 l 2
 181 106 188 100 228 100 c 0
 235 100 240 100 253 102 c 1
 253 -4 l 1
 214 -6 211 -6 198 -6 c 2
 183 -6 l 2
 99 -6 67 25 67 109 c 2
 67 432 l 1
 8 432 l 1
 8 532 l 1
 67 532 l 1
 67 676 l 1
 181 676 l 1xe8
83 -60 m 1xf0
 191 -60 l 1
 191 -163 l 2
 191 -212 179 -248 154 -273 c 0
 135 -292 107 -306 83 -307 c 1
 83 -261 l 1
 123 -253 148 -220 146 -178 c 1
 146 -172 l 1
 83 -172 l 1
 83 -60 l 1xf0
EndSplineSet
EndChar

StartChar: Tcaron
Encoding: 297 356 190
Width: 501
Flags: MW
HStem: 0 20 591 127<11 189 11 490 312 490 312 312>
VStem: 189 123<0 591 0 591>
LayerCount: 2
Fore
SplineSet
312 591 m 1
 312 0 l 1
 189 0 l 1
 189 591 l 1
 11 591 l 1
 11 718 l 1
 490 718 l 1
 490 591 l 1
 312 591 l 1
395 936 m 1
 302 790 l 1
 199 790 l 1
 106 936 l 1
 199 936 l 1
 250 854 l 1
 302 936 l 1
 395 936 l 1
EndSplineSet
EndChar

StartChar: tcaron
Encoding: 361 357 254
Width: 338
Flags: MW
HStem: -6 20 432 100<8 67 8 67 181 253> 606 112<250 313 250 358>
VStem: 67 114<124.5 143 143 432 532 676> 250 108<606 615 615 718 590.5 718>
LayerCount: 2
Fore
SplineSet
181 676 m 1
 181 532 l 1
 253 532 l 1
 253 518 l 1
 292 527 315 559 313 600 c 1
 313 606 l 1
 250 606 l 1
 250 718 l 1
 358 718 l 1
 358 615 l 2
 358 566 346 530 321 505 c 0
 303 487 275 473 253 472 c 1
 253 432 l 1
 181 432 l 1
 181 143 l 2
 181 106 188 100 228 100 c 0
 234 100 238 100 253 102 c 1
 253 -4 l 1
 211 -6 211 -6 198 -6 c 2
 183 -6 l 2
 99 -6 67 25 67 109 c 2
 67 432 l 1
 8 432 l 1
 8 532 l 1
 67 532 l 1
 67 676 l 1
 181 676 l 1
EndSplineSet
EndChar

StartChar: Tbar
Encoding: 654 358 547
Width: 501
Flags: MW
HStem: 0 21G<189 312 189 189> 327 112<43 189 43 189 312 456> 591 127<11 189 11 490 312 312 312 490>
VStem: 189 123<0 327 0 327 439 591>
LayerCount: 2
Fore
SplineSet
189 439 m 1
 189 591 l 1
 11 591 l 1
 11 718 l 1
 490 718 l 1
 490 591 l 1
 312 591 l 1
 312 439 l 1
 456 439 l 1
 456 327 l 1
 312 327 l 1
 312 0 l 1
 189 0 l 1
 189 327 l 1
 43 327 l 1
 43 439 l 1
 189 439 l 1
EndSplineSet
EndChar

StartChar: tbar
Encoding: 655 359 548
Width: 273
Flags: W
HStem: -6 106<141 231.5 183 231.5> 227 112<8 67 8 67 181 253> 432 100<8 67 8 67 181 253>
VStem: 8 245<227 339 -4 339 432 532> 67 114<124.5 143 143 227 124.5 227 339 432 532 676>
LayerCount: 2
Fore
SplineSet
181 676 m 1xe8
 181 532 l 1xe8
 253 532 l 1
 253 432 l 1xf0
 181 432 l 1
 181 339 l 1xe8
 253 339 l 1
 253 227 l 1xf0
 181 227 l 1
 181 143 l 2xe8
 181 106 188 100 228 100 c 0
 235 100 240 100 253 102 c 1
 253 -4 l 1xf0
 214 -6 211 -6 198 -6 c 2
 183 -6 l 2
 99 -6 67 25 67 109 c 2
 67 227 l 1xe8
 8 227 l 1
 8 339 l 1xf0
 67 339 l 1
 67 432 l 1xe8
 8 432 l 1
 8 532 l 1xf0
 67 532 l 1
 67 676 l 1
 181 676 l 1xe8
EndSplineSet
EndChar

StartChar: Utilde
Encoding: 656 360 549
Width: 592
Flags: W
HStem: -19 127<259.5 332 259.5 373> 698 20G<59 184 184 184 409 534 534 534> 825 80<350 365.5 349.5 381.5> 861 80<226.5 240>
VStem: 59 125<242 252 252 718> 409 125<245 251 251 718>
LayerCount: 2
Fore
SplineSet
394 945 m 1xec
 447 945 l 1
 434 865 404 825 359 825 c 0xec
 341 825 310 834 274 849 c 1
 256 858 244 861 236 861 c 0
 217 861 204 846 198 818 c 1
 146 818 l 1
 160 902 192 941 245 941 c 0xdc
 261 941 270 938 304 922 c 0
 333 909 344 905 355 905 c 0
 376 905 387 917 394 945 c 1xec
534 718 m 1
 534 251 l 2
 534 75 451 -19 295 -19 c 0
 145 -19 59 76 59 242 c 2
 59 718 l 1
 184 718 l 1
 184 252 l 2
 184 160 224 108 295 108 c 0
 369 108 409 156 409 245 c 2
 409 718 l 1
 534 718 l 1
EndSplineSet
EndChar

StartChar: utilde
Encoding: 657 361 550
Width: 501
Flags: W
HStem: -14 118<217.5 233> 512 20G<54 168 168 168 333 447 447 447> 639 80<304 319.5 303.5 335.5> 675 80<180.5 194>
VStem: 54 114<182 202 202 532> 333 114<225 532 0 532> 337 110<0 78 78 78>
LayerCount: 2
Fore
SplineSet
348 759 m 1xe8
 401 759 l 1
 388 679 358 639 313 639 c 0xe8
 295 639 264 648 228 663 c 1
 210 672 198 675 190 675 c 0
 171 675 158 660 152 632 c 1
 100 632 l 1
 114 716 146 755 199 755 c 0xd8
 215 755 224 752 258 736 c 0
 287 723 298 719 309 719 c 0
 330 719 341 731 348 759 c 1xe8
447 532 m 1xcc
 447 0 l 1
 337 0 l 1
 337 78 l 1xca
 307 15 265 -14 201 -14 c 0
 107 -14 54 57 54 182 c 2
 54 532 l 1
 168 532 l 1
 168 202 l 2
 168 138 193 104 242 104 c 0
 299 104 333 150 333 225 c 2
 333 532 l 1
 447 532 l 1xcc
EndSplineSet
EndChar

StartChar: Umacron
Encoding: 320 362 213
Width: 592
Flags: MW
HStem: -19 127<259.5 332 259.5 373> 698 20<59 184 184 184 409 534 534 534> 791 73<155 438 155 438>
VStem: 59 125<242 252 252 718> 409 125<245 251 251 718>
LayerCount: 2
Fore
SplineSet
534 718 m 1
 534 251 l 2
 534 75 451 -19 295 -19 c 0
 145 -19 59 76 59 242 c 2
 59 718 l 1
 184 718 l 1
 184 252 l 2
 184 160 224 108 295 108 c 0
 369 108 409 156 409 245 c 2
 409 718 l 1
 534 718 l 1
438 864 m 1
 438 791 l 1
 155 791 l 1
 155 864 l 1
 438 864 l 1
EndSplineSet
EndChar

StartChar: umacron
Encoding: 382 363 275
Width: 501
Flags: W
HStem: -14 118<217.5 233> 512 20<54 168 168 168 333 447 447 447> 605 73<109 392 109 392>
VStem: 54 114<182 202 202 532> 333 114<225 532 0 532> 337 110<0 78 78 78>
LayerCount: 2
Fore
SplineSet
447 532 m 1xf8
 447 0 l 1xe8
 337 0 l 1
 337 78 l 1xe4
 307 15 265 -14 201 -14 c 0
 107 -14 54 57 54 182 c 2
 54 532 l 1
 168 532 l 1
 168 202 l 2
 168 138 193 104 242 104 c 0
 299 104 333 150 333 225 c 2
 333 532 l 1
 447 532 l 1xf8
392 678 m 1xe0
 392 605 l 1
 109 605 l 1
 109 678 l 1
 392 678 l 1xe0
EndSplineSet
EndChar

StartChar: Ubreve
Encoding: 658 364 551
Width: 592
Flags: MW
HStem: -19 127<259.5 332 259.5 373> 698 20G<59 184 184 184 409 534 534 534> 818 77<270 323.5 270 334>
VStem: 59 125<242 252 252 718> 409 125<245 251 251 718>
LayerCount: 2
Fore
SplineSet
382 964 m 1
 435 964 l 1
 425 867 376 818 292 818 c 0
 212 818 167 866 158 964 c 1
 212 964 l 1
 221 913 243 895 297 895 c 0
 350 895 371 912 382 964 c 1
534 718 m 1
 534 251 l 2
 534 75 451 -19 295 -19 c 0
 145 -19 59 76 59 242 c 2
 59 718 l 1
 184 718 l 1
 184 252 l 2
 184 160 224 108 295 108 c 0
 369 108 409 156 409 245 c 2
 409 718 l 1
 534 718 l 1
EndSplineSet
EndChar

StartChar: ubreve
Encoding: 659 365 552
Width: 501
Flags: W
HStem: -14 118<217.5 233> 512 20G<54 168 168 168 333 447 447 447> 632 77<224 277.5 224 288>
VStem: 54 114<182 202 202 532> 333 114<225 532 0 532> 337 110<0 78 78 78>
LayerCount: 2
Fore
SplineSet
336 778 m 1xf0
 389 778 l 1
 379 681 330 632 246 632 c 0
 166 632 121 680 112 778 c 1
 166 778 l 1
 175 727 197 709 251 709 c 0
 304 709 325 726 336 778 c 1xf0
447 532 m 1xf8
 447 0 l 1
 337 0 l 1
 337 78 l 1xf4
 307 15 265 -14 201 -14 c 0
 107 -14 54 57 54 182 c 2
 54 532 l 1
 168 532 l 1
 168 202 l 2
 168 138 193 104 242 104 c 0
 299 104 333 150 333 225 c 2
 333 532 l 1
 447 532 l 1xf8
EndSplineSet
EndChar

StartChar: Uring
Encoding: 302 366 195
Width: 592
Flags: W
HStem: -19 127<259.5 332 259.5 373> 698 20<59 184 184 184 409 534 534 534> 754 52<283.5 307 283.5 319> 910 52<284 307.5>
VStem: 59 46 59 125<242 252 252 718> 190 46 409 125<245 251 251 718>
LayerCount: 2
Fore
SplineSet
534 718 m 1xf5
 534 251 l 2
 534 75 451 -19 295 -19 c 0
 145 -19 59 76 59 242 c 2
 59 718 l 1
 184 718 l 1
 184 252 l 2
 184 160 224 108 295 108 c 0
 369 108 409 156 409 245 c 2
 409 718 l 1
 534 718 l 1xf5
297 962 m 0xfa
 343 962 384 913 384 858 c 0
 384 803 343 754 295 754 c 0
 248 754 207 802 207 858 c 0
 207 914 248 962 297 962 c 0xfa
296 910 m 0
 272 910 253 887 253 858 c 0
 253 829 272 806 295 806 c 0
 319 806 338 829 338 858 c 0
 338 886 319 910 296 910 c 0
EndSplineSet
EndChar

StartChar: uring
Encoding: 366 367 259
Width: 501
Flags: W
HStem: -14 118<217.5 233> 512 20<54 168 168 168 333 447 447 447> 568 52<238.5 262 238.5 274> 724 52<239 262.5>
VStem: 54 46 54 114<182 202 202 532> 185 46 333 114<225 532 0 532> 337 110<0 78 78 78>
LayerCount: 2
Fore
SplineSet
447 532 m 1xf5
 447 0 l 1xf1
 337 0 l 1
 337 78 l 1xf080
 307 15 265 -14 201 -14 c 0
 107 -14 54 57 54 182 c 2
 54 532 l 1
 168 532 l 1
 168 202 l 2
 168 138 193 104 242 104 c 0
 299 104 333 150 333 225 c 2
 333 532 l 1
 447 532 l 1xf5
252 776 m 0xfa
 298 776 339 727 339 672 c 0
 339 617 298 568 250 568 c 0
 203 568 162 616 162 672 c 0
 162 728 203 776 252 776 c 0xfa
251 724 m 0
 227 724 208 701 208 672 c 0
 208 643 227 620 250 620 c 0
 274 620 293 643 293 672 c 0
 293 700 274 724 251 724 c 0
EndSplineSet
EndChar

StartChar: Uhungarumlaut
Encoding: 303 368 196
Width: 592
Flags: MW
HStem: -19 127<259.5 332 259.5 373> 698 20<59 184 184 184 409 534 534 534>
VStem: 59 125<242 252 252 718> 409 125<245 251 251 718>
LayerCount: 2
Fore
SplineSet
534 718 m 1
 534 251 l 2
 534 75 451 -19 295 -19 c 0
 145 -19 59 76 59 242 c 2
 59 718 l 1
 184 718 l 1
 184 252 l 2
 184 160 224 108 295 108 c 0
 369 108 409 156 409 245 c 2
 409 718 l 1
 534 718 l 1
371 936 m 1
 250 790 l 1
 167 790 l 1
 244 936 l 1
 371 936 l 1
559 936 m 1
 438 790 l 1
 355 790 l 1
 432 936 l 1
 559 936 l 1
EndSplineSet
EndChar

StartChar: uhungarumlaut
Encoding: 367 369 260
Width: 501
Flags: W
HStem: -14 118<217.5 233> 512 20<54 168 168 168 333 447 447 447>
VStem: 54 114<182 202 202 532> 333 114<225 532 0 532> 337 110<0 78 78 78>
LayerCount: 2
Fore
SplineSet
447 532 m 1xf0
 447 0 l 1xd0
 337 0 l 1
 337 78 l 1xc8
 307 15 265 -14 201 -14 c 0
 107 -14 54 57 54 182 c 2
 54 532 l 1
 168 532 l 1
 168 202 l 2
 168 138 193 104 242 104 c 0
 299 104 333 150 333 225 c 2
 333 532 l 1
 447 532 l 1xf0
325 750 m 1
 204 604 l 1
 121 604 l 1
 198 750 l 1
 325 750 l 1
513 750 m 1
 392 604 l 1
 309 604 l 1
 386 750 l 1
 513 750 l 1
EndSplineSet
EndChar

StartChar: Uogonek
Encoding: 321 370 214
Width: 592
Flags: MW
HStem: -228 57<401.5 413.5> -19 127<259.5 308> 698 20<59 184 184 184 409 534 534 534>
VStem: 59 125<242 252 252 718> 297 77<-138 -108 -138 -107> 409 125<245 251 251 718>
LayerCount: 2
Fore
SplineSet
184 718 m 1
 184 252 l 2
 184 160 224 108 295 108 c 0
 369 108 409 156 409 245 c 2
 409 718 l 1
 534 718 l 1
 534 251 l 2
 534 187 521 126 500 88 c 0
 489 69 489 69 433 1 c 1
 394 -48 374 -90 374 -126 c 0
 374 -150 391 -171 412 -171 c 0
 426 -171 448 -165 474 -155 c 1
 489 -204 l 1
 448 -222 427 -228 400 -228 c 0
 339 -228 297 -189 297 -132 c 0
 297 -82 323 -37 368 -11 c 1
 342 -17 321 -19 295 -19 c 0
 145 -19 59 76 59 242 c 2
 59 718 l 1
 184 718 l 1
EndSplineSet
EndChar

StartChar: uogonek
Encoding: 383 371 276
Width: 501
Flags: W
HStem: -228 57<393 405.5> -14 118<217.5 233> 512 20<54 168 168 168 333 447 447 447>
VStem: 54 114<182 202 202 532> 289 77<-137.5 -112> 333 114<225 532 -4 532>
LayerCount: 2
Fore
SplineSet
447 532 m 1xf4
 447 -4 l 1xe4
 394 -42 366 -85 366 -125 c 0
 366 -150 383 -171 403 -171 c 0
 418 -171 440 -165 465 -155 c 1
 480 -204 l 1
 439 -222 419 -228 392 -228 c 0
 331 -228 289 -189 289 -132 c 0xe8
 289 -92 307 -52 338 -26 c 1
 347 -17 354 -13 378 0 c 1
 337 0 l 1
 337 78 l 1
 307 15 265 -14 201 -14 c 0
 107 -14 54 57 54 182 c 2
 54 532 l 1
 168 532 l 1
 168 202 l 2
 168 138 193 104 242 104 c 0
 299 104 333 150 333 225 c 2
 333 532 l 1
 447 532 l 1xf4
EndSplineSet
EndChar

StartChar: Wcircumflex
Encoding: 660 372 553
Width: 774
Flags: MW
HStem: 0 21G<180 180 180 294 478 478 478 596> 698 20G<13 144 144 144 321 452 452 452 637 762 762 762>
LayerCount: 2
Fore
SplineSet
439 964 m 1
 532 818 l 1
 439 818 l 1
 387 900 l 1
 336 818 l 1
 243 818 l 1
 336 964 l 1
 439 964 l 1
180 0 m 1
 13 718 l 1
 144 718 l 1
 214 353 226 286 239 187 c 1
 256 313 276 439 321 718 c 1
 452 718 l 1
 517 343 525 294 540 187 c 1
 554 279 570 367 637 718 c 1
 762 718 l 1
 596 0 l 1
 478 0 l 1
 418 349 409 403 386 565 c 1
 355 364 332 217 319 142 c 2
 294 0 l 1
 180 0 l 1
EndSplineSet
EndChar

StartChar: wcircumflex
Encoding: 661 373 554
Width: 638
Flags: MW
HStem: 0 21G<131 249 131 131 387 505 387 387> 512 20G<8 130 130 130 262 377 377 377 513 631 631 631>
LayerCount: 2
Fore
SplineSet
371 778 m 1
 464 632 l 1
 371 632 l 1
 319 714 l 1
 268 632 l 1
 175 632 l 1
 268 778 l 1
 371 778 l 1
631 532 m 1
 505 0 l 1
 387 0 l 1
 318 393 l 1
 249 0 l 1
 131 0 l 1
 8 532 l 1
 130 532 l 1
 199 145 l 1
 262 532 l 1
 377 532 l 1
 444 145 l 1
 513 532 l 1
 631 532 l 1
EndSplineSet
EndChar

StartChar: Ycircumflex
Encoding: 662 374 555
Width: 547
Flags: MW
HStem: 0 21G<215 338 215 215> 698 20G<12 157 157 157 396 535 535 535>
VStem: 215 123<0 269 0 271 0 271>
LayerCount: 2
Fore
SplineSet
325 964 m 1
 418 818 l 1
 325 818 l 1
 273 900 l 1
 222 818 l 1
 129 818 l 1
 222 964 l 1
 325 964 l 1
338 269 m 1
 338 0 l 1
 215 0 l 1
 215 271 l 1
 12 718 l 1
 157 718 l 1
 279 406 l 1
 396 718 l 1
 535 718 l 1
 338 269 l 1
EndSplineSet
EndChar

StartChar: ycircumflex
Encoding: 663 375 556
Width: 456
Flags: MW
HStem: -214 112<91 151.5> 512 20G<8 136 136 136 320 442 442 442>
VStem: 8 434<532 532>
LayerCount: 2
Fore
SplineSet
276 778 m 1
 369 632 l 1
 276 632 l 1
 224 714 l 1
 173 632 l 1
 80 632 l 1
 173 778 l 1
 276 778 l 1
442 532 m 1
 292 9 l 2
 258 -110 242 -153 224 -177 c 0
 204 -204 177 -214 126 -214 c 0
 114 -214 98 -213 71 -212 c 1
 71 -100 l 1
 79 -101 87 -102 95 -102 c 0
 144 -102 158 -87 169 -22 c 1
 8 532 l 1
 136 532 l 1
 230 136 l 1
 320 532 l 1
 442 532 l 1
EndSplineSet
EndChar

StartChar: Ydieresis
Encoding: 310 376 203
Width: 547
Flags: W
HStem: 0 20 698 20<12 157 157 157 396 535 535 535> 800 115<142 245 142 245 142 302 302 405>
VStem: 12 103 172 103 215 123<0 269 0 271 0 271>
LayerCount: 2
Fore
SplineSet
338 269 m 1xe4
 338 0 l 1
 215 0 l 1
 215 271 l 1
 12 718 l 1
 157 718 l 1
 279 406 l 1
 396 718 l 1
 535 718 l 1
 338 269 l 1xe4
245 915 m 1xf8
 245 800 l 1
 142 800 l 1
 142 915 l 1
 245 915 l 1xf8
405 915 m 1
 405 800 l 1
 302 800 l 1
 302 915 l 1
 405 915 l 1
EndSplineSet
EndChar

StartChar: Zacute
Encoding: 305 377 198
Width: 501
Flags: MW
HStem: 0 127<170 481 20 20> 591 127<28 325 28 479>
LayerCount: 2
Fore
SplineSet
481 127 m 1
 481 0 l 1
 20 0 l 1
 20 127 l 1
 325 591 l 1
 28 591 l 1
 28 718 l 1
 479 718 l 1
 479 600 l 1
 170 127 l 1
 481 127 l 1
406 936 m 1
 286 790 l 1
 203 790 l 1
 280 936 l 1
 406 936 l 1
EndSplineSet
EndChar

StartChar: zacute
Encoding: 369 378 262
Width: 410
Flags: MW
HStem: 0 115<165 394 165 394> 420 112<32 241 32 386>
LayerCount: 2
Fore
SplineSet
386 417 m 1
 165 115 l 1
 394 115 l 1
 394 0 l 1
 16 0 l 1
 16 109 l 1
 241 420 l 1
 32 420 l 1
 32 532 l 1
 386 532 l 1
 386 417 l 1
361 750 m 1
 241 604 l 1
 158 604 l 1
 235 750 l 1
 361 750 l 1
EndSplineSet
EndChar

StartChar: Zdotaccent
Encoding: 307 379 200
Width: 501
Flags: MW
HStem: 0 127<170 481 20 20> 591 127<28 325 28 479> 800 115<199 303 199 303>
VStem: 20 104
LayerCount: 2
Fore
SplineSet
481 127 m 1
 481 0 l 1
 20 0 l 1
 20 127 l 1
 325 591 l 1
 28 591 l 1
 28 718 l 1
 479 718 l 1
 479 600 l 1
 170 127 l 1
 481 127 l 1
303 915 m 1
 303 800 l 1
 199 800 l 1
 199 915 l 1
 303 915 l 1
EndSplineSet
EndChar

StartChar: Zcaron
Encoding: 306 381 199
Width: 501
Flags: MW
HStem: 0 127<170 481 20 20> 591 127<28 325 28 479>
LayerCount: 2
Fore
SplineSet
481 127 m 1
 481 0 l 1
 20 0 l 1
 20 127 l 1
 325 591 l 1
 28 591 l 1
 28 718 l 1
 479 718 l 1
 479 600 l 1
 170 127 l 1
 481 127 l 1
394 936 m 1
 301 790 l 1
 198 790 l 1
 105 936 l 1
 198 936 l 1
 249 854 l 1
 301 936 l 1
 394 936 l 1
EndSplineSet
EndChar

StartChar: zcaron
Encoding: 370 382 263
Width: 410
Flags: MW
HStem: 0 115<165 394 165 394> 420 112<32 241 32 386>
LayerCount: 2
Fore
SplineSet
386 417 m 1
 165 115 l 1
 394 115 l 1
 394 0 l 1
 16 0 l 1
 16 109 l 1
 241 420 l 1
 32 420 l 1
 32 532 l 1
 386 532 l 1
 386 417 l 1
349 750 m 1
 256 604 l 1
 153 604 l 1
 60 750 l 1
 153 750 l 1
 204 668 l 1
 256 750 l 1
 349 750 l 1
EndSplineSet
EndChar

StartChar: longs
Encoding: 664 383 557
Width: 273
Flags: MW
HStem: 0 21G<71 185 71 71> 432 100<8 71 8 71> 612 115<208 214.5 159 226 159 259>
VStem: 71 114<0 432 432 432 532 553>
LayerCount: 2
Fore
SplineSet
185 0 m 1
 71 0 l 1
 71 432 l 1
 8 432 l 1
 8 532 l 1
 71 532 l 1
 71 575 l 2
 71 680 113 727 205 727 c 0
 224 727 246 726 259 725 c 1
 259 612 l 1
 226 612 l 2
 190 612 185 604 185 553 c 2
 185 0 l 1
EndSplineSet
EndChar

StartChar: florin
Encoding: 166 402 100
Width: 456
Flags: MW
HStem: -210 115<62.5 72.5 47 117> 380 97<65 165 65 177 291 389> 625 112<343 350 298 363.5>
LayerCount: 2
Fore
SplineSet
389 477 m 1
 389 380 l 1
 279 380 l 1
 231 21 l 2
 210 -137 160 -210 74 -210 c 0
 51 -210 36 -206 -8 -189 c 1
 12 -78 l 1
 32 -92 40 -95 54 -95 c 0
 91 -95 102 -72 118 46 c 2
 165 380 l 1
 65 380 l 1
 65 477 l 1
 177 477 l 1
 193 564 l 2
 214 683 259 737 337 737 c 0
 363 737 388 731 423 718 c 1
 403 610 l 1
 386 620 370 625 357 625 c 0
 329 625 308 602 303 565 c 2
 291 477 l 1
 389 477 l 1
EndSplineSet
EndChar

StartChar: Scommaaccent
Encoding: 388 536 281
Width: 547
Flags: W
HStem: -172 112<220 283 220 328> -19 123<237 316 237 351> 614 123<228.5 297.5>
VStem: 32 108 41 115<506.5 554 506.5 582> 398 118<167 219.5>
LayerCount: 2
Fore
SplineSet
32 221 m 1xec
 150 221 l 1
 155 142 196 104 278 104 c 0
 354 104 398 138 398 196 c 0
 398 243 374 263 291 287 c 2
 228 305 l 2
 153 326 116 343 91 369 c 1
 58 401 41 450 41 512 c 0
 41 652 125 737 265 737 c 0
 406 737 488 655 497 505 c 1
 379 505 l 1
 370 581 334 614 261 614 c 0
 196 614 156 581 156 527 c 0
 156 486 173 466 218 452 c 2
 362 409 l 2
 472 376 516 320 516 214 c 0
 516 70 425 -19 277 -19 c 0
 174 -19 97 22 59 98 c 0
 41 134 34 163 32 221 c 1xec
220 -60 m 1xf0
 328 -60 l 1
 328 -163 l 2
 328 -212 316 -248 291 -273 c 0
 272 -292 244 -306 220 -307 c 1
 220 -261 l 1
 260 -253 285 -220 283 -178 c 1
 283 -172 l 1
 220 -172 l 1
 220 -60 l 1xf0
EndSplineSet
EndChar

StartChar: scommaaccent
Encoding: 360 537 253
Width: 456
Flags: W
HStem: -172 112<174 237 174 282> -14 107<205 259 205 292> 439 107<199.5 247>
VStem: 25 108 41 112<375 387.5> 311 115<131 162>
LayerCount: 2
Fore
SplineSet
413 370 m 1xec
 300 370 l 1
 292 422 272 439 222 439 c 0
 177 439 153 422 153 389 c 0
 153 361 181 343 247 331 c 1
 323 316 383 284 406 247 c 0
 419 225 426 197 426 166 c 0
 426 54 352 -14 232 -14 c 0
 173 -14 120 3 84 33 c 0
 46 64 32 97 25 170 c 1
 143 170 l 1
 145 117 174 93 236 93 c 0
 282 93 311 114 311 148 c 0
 311 176 281 194 216 207 c 0
 95 230 41 280 41 369 c 0
 41 406 50 441 67 470 c 0
 97 521 149 546 222 546 c 0
 276 546 322 532 353 507 c 0
 389 478 404 444 413 370 c 1xec
174 -60 m 1xf0
 282 -60 l 1
 282 -163 l 2
 282 -212 270 -248 245 -273 c 0
 226 -292 198 -306 174 -307 c 1
 174 -261 l 1
 214 -253 239 -220 237 -178 c 1
 237 -172 l 1
 174 -172 l 1
 174 -60 l 1xf0
EndSplineSet
EndChar

StartChar: circumflex
Encoding: 195 710 125
Width: 273
Flags: W
LayerCount: 2
Fore
SplineSet
188 750 m 1
 281 604 l 1
 188 604 l 1
 136 686 l 1
 85 604 l 1
 -8 604 l 1
 85 750 l 1
 188 750 l 1
EndSplineSet
EndChar

StartChar: caron
Encoding: 207 711 135
Width: 273
Flags: W
LayerCount: 2
Fore
SplineSet
281 750 m 1
 188 604 l 1
 85 604 l 1
 -8 750 l 1
 85 750 l 1
 136 668 l 1
 188 750 l 1
 281 750 l 1
EndSplineSet
EndChar

StartChar: breve
Encoding: 198 728 128
Width: 273
Flags: MW
HStem: 604 77<110 163.5 110 174>
LayerCount: 2
Fore
SplineSet
222 750 m 1
 275 750 l 1
 265 653 216 604 132 604 c 0
 52 604 7 652 -2 750 c 1
 52 750 l 1
 61 699 83 681 137 681 c 0
 190 681 211 698 222 750 c 1
EndSplineSet
EndChar

StartChar: dotaccent
Encoding: 199 729 129
Width: 273
Flags: MW
HStem: 614 115<85 189 85 189>
VStem: 85 104<614 729 614 729>
LayerCount: 2
Fore
SplineSet
189 729 m 1
 189 614 l 1
 85 614 l 1
 85 729 l 1
 189 729 l 1
EndSplineSet
EndChar

StartChar: ring
Encoding: 202 730 131
Width: 273
Flags: MW
HStem: 568 52<124.5 148 124.5 160> 724 52<125 148.5>
VStem: 48 46<657.5 686.5 657.5 700> 179 46<657.5 686>
LayerCount: 2
Fore
SplineSet
138 776 m 0
 184 776 225 727 225 672 c 0
 225 617 184 568 136 568 c 0
 89 568 48 616 48 672 c 0
 48 728 89 776 138 776 c 0
137 724 m 0
 113 724 94 701 94 672 c 0
 94 643 113 620 136 620 c 0
 160 620 179 643 179 672 c 0
 179 700 160 724 137 724 c 0
EndSplineSet
EndChar

StartChar: ogonek
Encoding: 206 731 134
Width: 273
Flags: MW
HStem: -228 57<162.5 174.5>
VStem: 58 77<-137.5 -105 -137.5 -103>
LayerCount: 2
Fore
SplineSet
234 -155 m 1
 249 -204 l 1
 208 -222 188 -228 161 -228 c 0
 100 -228 58 -189 58 -132 c 0
 58 -74 86 -32 147 0 c 1
 216 0 l 1
 216 -4 l 1
 163 -42 135 -85 135 -125 c 0
 135 -150 152 -171 173 -171 c 0
 187 -171 209 -165 234 -155 c 1
EndSplineSet
EndChar

StartChar: tilde
Encoding: 196 732 126
Width: 273
Flags: W
HStem: 617 80<190 205.5 189.5 221.5> 653 80<66.5 80> 717 20<234 287 287 287>
LayerCount: 2
Fore
SplineSet
234 737 m 1xa0
 287 737 l 1
 274 657 244 617 199 617 c 0xa0
 181 617 150 626 114 641 c 1
 96 650 84 653 76 653 c 0
 57 653 44 638 38 610 c 1
 -14 610 l 1
 0 694 32 733 85 733 c 0x40
 101 733 110 730 144 714 c 0
 173 701 184 697 195 697 c 0
 216 697 227 709 234 737 c 1xa0
EndSplineSet
EndChar

StartChar: hungarumlaut
Encoding: 205 733 133
Width: 273
Flags: W
LayerCount: 2
Fore
SplineSet
211 750 m 1
 90 604 l 1
 7 604 l 1
 84 750 l 1
 211 750 l 1
399 750 m 1
 278 604 l 1
 195 604 l 1
 272 750 l 1
 399 750 l 1
EndSplineSet
EndChar

StartChar: mu
Encoding: 421 956 314
Width: 501
Flags: W
HStem: -207 207<54 447> -14 118<217.5 250.5> 512 20<54 168 168 168 333 447 447 447>
VStem: 54 114<-207 12 170 202 202 532> 333 114<225 532 0 532> 337 110<0 78 78 78>
LayerCount: 2
Fore
SplineSet
447 532 m 1x78
 447 0 l 1xa8
 337 0 l 1xa4
 337 78 l 1
 308 16 273 -14 228 -14 c 0x44
 202 -14 185 -7 168 12 c 1
 168 -207 l 1
 54 -207 l 1x98
 54 532 l 1
 168 532 l 1
 168 202 l 2
 168 138 193 104 242 104 c 0
 299 104 333 150 333 225 c 2
 333 532 l 1
 447 532 l 1x78
EndSplineSet
EndChar

StartChar: uni0400
Encoding: 488 1024 381
Width: 547
Flags: MW
HStem: 0 127<182 509 182 509 62 509> 313 127<182 470 182 470> 591 127<182 495 182 182>
VStem: 62 120<127 313 440 591>
LayerCount: 2
Fore
SplineSet
297 818 m 1
 177 964 l 1
 303 964 l 1
 380 818 l 1
 297 818 l 1
495 718 m 1
 495 591 l 1
 182 591 l 1
 182 440 l 1
 470 440 l 1
 470 313 l 1
 182 313 l 1
 182 127 l 1
 509 127 l 1
 509 0 l 1
 62 0 l 1
 62 718 l 1
 495 718 l 1
EndSplineSet
EndChar

StartChar: afii10051
Encoding: 489 1026 382
Width: 651
Flags: MW
HStem: 0 21G<149 272 149 149 603 603> 354 123<356.5 389> 591 127<11 149 11 410 272 272 272 410>
VStem: 149 123<0 297 450 591> 480 123<4 297 297 301>
LayerCount: 2
Fore
SplineSet
480 4 m 2
 480 297 l 2
 480 343 407 354 371 354 c 0
 342 354 272 339 272 297 c 2
 272 0 l 1
 149 0 l 1
 149 591 l 1
 11 591 l 1
 11 718 l 1
 410 718 l 1
 410 591 l 1
 272 591 l 1
 272 450 l 1
 293 465 317 477 395 477 c 0
 524 477 603 419 603 301 c 2
 603 0 l 2
 603 -126 518 -176 371 -176 c 1
 371 -53 l 1
 407 -53 480 -42 480 4 c 2
EndSplineSet
EndChar

StartChar: afii10052
Encoding: 490 1027 383
Width: 501
Flags: MW
HStem: 0 21G<62 185 62 62> 591 127<185 481 185 185>
VStem: 62 123<0 591>
LayerCount: 2
Fore
SplineSet
420 920 m 1
 300 774 l 1
 217 774 l 1
 294 920 l 1
 420 920 l 1
185 0 m 1
 62 0 l 1
 62 718 l 1
 481 718 l 1
 481 591 l 1
 185 591 l 1
 185 0 l 1
EndSplineSet
EndChar

StartChar: afii10053
Encoding: 491 1028 384
Width: 592
Flags: MW
HStem: -19 130<266.5 329.5 266.5 345> 313 127<167 374 167 374 162 374> 607 130<273.5 332.5>
LayerCount: 2
Fore
SplineSet
167 440 m 1
 374 440 l 1
 374 313 l 1
 162 313 l 1
 172 186 225 111 308 111 c 0
 351 111 386 130 410 167 c 0
 423 188 429 206 438 246 c 1
 561 246 l 1
 545 161 529 120 495 74 c 0
 450 13 384 -19 306 -19 c 0
 139 -19 36 124 36 357 c 0
 36 591 141 737 309 737 c 0
 402 737 479 691 524 610 c 0
 546 570 555 540 561 483 c 1
 438 483 l 1
 429 522 422 538 409 559 c 1
 388 589 353 607 312 607 c 0
 235 607 184 546 167 440 c 1
EndSplineSet
EndChar

StartChar: afii10056
Encoding: 494 1031 387
Width: 228
Flags: W
HStem: 0 21G<53 176 53 53> 698 20G<53 176 176 176> 800 115<-17 86 -17 86 -17 143 143 246>
VStem: -17 103<800 915 800 915> 53 123<0 718 0 718> 143 103<800 915 800 915>
LayerCount: 2
Fore
SplineSet
176 718 m 1xe8
 176 0 l 1
 53 0 l 1
 53 718 l 1
 176 718 l 1xe8
86 915 m 1xf0
 86 800 l 1
 -17 800 l 1
 -17 915 l 1
 86 915 l 1xf0
246 915 m 1xe4
 246 800 l 1
 143 800 l 1
 143 915 l 1
 246 915 l 1xe4
EndSplineSet
EndChar

StartChar: afii10057
Encoding: 495 1032 388
Width: 456
Flags: MW
HStem: -18 122<176 230.5 176 271> 698 20G<274 397 397 397>
VStem: 18 115<215.5 271> 274 123<208 718>
LayerCount: 2
Fore
SplineSet
397 718 m 1
 397 208 l 2
 397 56 335 -18 207 -18 c 0
 129 -18 73 12 45 70 c 1
 24 111 18 160 18 271 c 1
 133 271 l 1
 134 135 147 104 205 104 c 0
 256 104 274 131 274 208 c 2
 274 718 l 1
 397 718 l 1
EndSplineSet
EndChar

StartChar: afii10058
Encoding: 496 1033 389
Width: 901
Flags: MW
HStem: 0 121<15 103> 335 123<539 680 539 653> 595 123<252 418 252 252>
VStem: 129 123<490 595 485 718> 418 121<595 595> 745 123<189 263>
LayerCount: 2
Fore
SplineSet
416 0 m 1
 418 595 l 1
 252 595 l 1
 252 485 l 1
 253 276 191 0 15 0 c 1
 15 121 l 1
 77 120 129 312 129 490 c 2
 129 718 l 1
 539 718 l 1
 539 458 l 1
 680 458 l 2
 794 458 868 365 868 223 c 0
 868 88 796 0 685 0 c 2
 416 0 l 1
539 335 m 1
 539 123 l 1
 637 123 l 2
 714 123 745 152 745 226 c 0
 745 300 715 335 653 335 c 2
 539 335 l 1
EndSplineSet
EndChar

StartChar: afii10059
Encoding: 497 1034 390
Width: 896
Flags: W
HStem: 0 123<534 632 632 670.5 534 680> 323 123<181 411 181 411> 335 123<534 675 534 648> 698 20G<58 181 181 181 411 534 534 534>
VStem: 58 123<0 323 446 718> 411 123<123 323 323 323 458 718> 740 123<189 263>
LayerCount: 2
Fore
SplineSet
534 718 m 1xde
 534 458 l 1
 675 458 l 2xbe
 789 458 863 365 863 223 c 0
 863 88 791 0 680 0 c 2
 411 0 l 1
 411 323 l 1
 181 323 l 1
 181 0 l 1
 58 0 l 1
 58 718 l 1
 181 718 l 1
 181 446 l 1
 411 446 l 1
 411 718 l 1
 534 718 l 1xde
534 335 m 1
 534 123 l 1
 632 123 l 2
 709 123 740 152 740 226 c 0
 740 300 710 335 648 335 c 2
 534 335 l 1
EndSplineSet
EndChar

StartChar: afii10060
Encoding: 498 1035 391
Width: 651
Flags: MW
HStem: 0 21G<149 272 149 149 480 603 480 480> 354 123<356.5 389> 591 127<11 149 11 410 272 272 272 410>
VStem: 149 123<0 297 450 591> 480 123<0 297 297 301 0 320>
LayerCount: 2
Fore
SplineSet
272 450 m 1
 293 465 317 477 395 477 c 0
 524 477 603 419 603 301 c 2
 603 0 l 1
 480 0 l 1
 480 297 l 2
 480 343 407 354 371 354 c 0
 342 354 272 339 272 297 c 2
 272 0 l 1
 149 0 l 1
 149 591 l 1
 11 591 l 1
 11 718 l 1
 410 718 l 1
 410 591 l 1
 272 591 l 1
 272 450 l 1
EndSplineSet
EndChar

StartChar: afii10061
Encoding: 499 1036 392
Width: 592
Flags: MW
HStem: 0 21G<71 194 71 71 434 434 434 592> 698 20G<71 194 194 194 419 578 578 578>
VStem: 71 123<0 284 460 718>
LayerCount: 2
Fore
SplineSet
475 920 m 1
 355 774 l 1
 272 774 l 1
 349 920 l 1
 475 920 l 1
194 0 m 1
 71 0 l 1
 71 718 l 1
 194 718 l 1
 194 460 l 1
 419 718 l 1
 578 718 l 1
 280 374 l 1
 592 0 l 1
 434 0 l 1
 194 284 l 1
 194 0 l 1
EndSplineSet
EndChar

StartChar: uni040D
Encoding: 500 1037 393
Width: 592
Flags: MW
HStem: 0 21G<57 186 57 57 422 422 422 536> 698 20G<57 171 171 171 414 536 536 536>
VStem: 57 114<203 718 203 718 203 718> 422 114<0 504 504 504>
LayerCount: 2
Fore
SplineSet
315 818 m 1
 195 964 l 1
 321 964 l 1
 398 818 l 1
 315 818 l 1
422 504 m 1
 186 0 l 1
 57 0 l 1
 57 718 l 1
 171 718 l 1
 171 203 l 1
 414 718 l 1
 536 718 l 1
 536 0 l 1
 422 0 l 1
 422 504 l 1
EndSplineSet
EndChar

StartChar: afii10062
Encoding: 501 1038 394
Width: 547
Flags: MW
HStem: 0 21G<86 225 86 86> 698 20G<12 157 157 157 396 535 535 535> 766 77<260 313.5 260 324>
LayerCount: 2
Fore
SplineSet
372 912 m 1
 425 912 l 1
 415 815 366 766 282 766 c 0
 202 766 157 814 148 912 c 1
 202 912 l 1
 211 861 233 843 287 843 c 0
 340 843 361 860 372 912 c 1
225 0 m 1
 86 0 l 1
 214 282 l 1
 12 718 l 1
 157 718 l 1
 284 428 l 1
 396 718 l 1
 535 718 l 1
 225 0 l 1
EndSplineSet
EndChar

StartChar: afii10145
Encoding: 502 1039 395
Width: 543
Flags: MW
HStem: 0 122<153 219 325 391 153 514 325 325>
VStem: 30 123<122 714 122 714 122 714> 219 106<-147 0 -147 0> 391 123<122 714 0 714>
LayerCount: 2
Fore
SplineSet
325 0 m 1
 325 -147 l 1
 219 -147 l 1
 219 0 l 1
 30 0 l 1
 30 714 l 1
 153 714 l 1
 153 122 l 1
 391 122 l 1
 391 714 l 1
 514 714 l 1
 514 0 l 1
 325 0 l 1
EndSplineSet
EndChar

StartChar: afii10017
Encoding: 422 1040 315
Width: 592
Flags: MW
HStem: 0 21G<16 146 16 16 442 442 442 576> 148 123<187 370 220 370 220 404> 698 20G<226 368 368 368>
LayerCount: 2
Fore
SplineSet
187 148 m 1
 146 0 l 1
 16 0 l 1
 226 718 l 1
 368 718 l 1
 576 0 l 1
 442 0 l 1
 404 148 l 1
 187 148 l 1
296 559 m 1
 220 271 l 1
 370 271 l 1
 296 559 l 1
EndSplineSet
EndChar

StartChar: afii10018
Encoding: 423 1041 316
Width: 592
Flags: MW
HStem: 0 123<180 311 62 331> 315 122<180 324 180 324 324 337> 591 127<180 481 180 180>
VStem: 62 118<123 315 437 591> 426 123<192 235.5 186.5 253.5>
LayerCount: 2
Fore
SplineSet
481 591 m 1
 180 591 l 1
 180 437 l 1
 324 437 l 2
 494 437 511 351 527 320 c 0
 541 292 549 255 549 216 c 0
 549 157 532 105 498 64 c 0
 457 15 413 0 311 0 c 2
 62 0 l 1
 62 718 l 1
 481 718 l 1
 481 591 l 1
180 315 m 1
 180 123 l 1
 331 123 l 2
 393 123 426 159 426 225 c 0
 426 282 393 315 337 315 c 2
 180 315 l 1
EndSplineSet
EndChar

StartChar: afii10019
Encoding: 424 1042 317
Width: 592
Flags: W
HStem: 0 123<62 331 180 311> 315 122<180 324 180 324 324 337> 595 123<180 180 180 321>
VStem: 62 118<123 315 437 595> 412 118<495.5 545> 426 123<192 235.5 186.5 253.5>
LayerCount: 2
Fore
SplineSet
62 0 m 1xf4
 62 718 l 1
 348 718 l 2
 461 718 530 647 530 531 c 0xf8
 530 460 509 418 458 387 c 1
 495 367 511 351 527 320 c 0
 541 292 549 255 549 216 c 0
 549 157 532 105 498 64 c 0
 457 15 413 0 311 0 c 2
 62 0 l 1xf4
180 315 m 1
 180 123 l 1
 331 123 l 2
 393 123 426 159 426 225 c 0xf4
 426 282 393 315 337 315 c 2
 180 315 l 1
180 595 m 1
 180 437 l 1
 324 437 l 2
 380 437 412 466 412 519 c 0xf8
 412 571 384 595 321 595 c 2
 180 595 l 1
EndSplineSet
EndChar

StartChar: afii10020
Encoding: 425 1043 318
Width: 501
Flags: MW
HStem: 0 21G<62 185 62 62> 591 127<185 481 185 185>
VStem: 62 123<0 591>
LayerCount: 2
Fore
SplineSet
185 0 m 1
 62 0 l 1
 62 718 l 1
 481 718 l 1
 481 591 l 1
 185 591 l 1
 185 0 l 1
EndSplineSet
EndChar

StartChar: afii10021
Encoding: 426 1044 319
Width: 712
Flags: W
HStem: 0 120<25 580 25 132> 595 123<327 493 327 327>
VStem: 25 107<-120 0 -120 120> 204 123<490 595 485 718> 493 123<123 595 595 595> 580 107<-120 0 0 0>
LayerCount: 2
Fore
SplineSet
25 -120 m 1xf4
 25 120 l 1
 90 120 l 2
 152 120 204 312 204 490 c 2
 204 718 l 1
 616 718 l 1
 616 120 l 1xf8
 687 120 l 1
 687 -120 l 1
 580 -120 l 1
 580 0 l 1
 132 0 l 1
 132 -120 l 1
 25 -120 l 1xf4
256 123 m 1
 493 123 l 1
 493 595 l 1
 327 595 l 1
 327 485 l 1
 328 365 307 222 256 123 c 1
EndSplineSet
EndChar

StartChar: afii10024
Encoding: 429 1046 322
Width: 878
Flags: MW
HStem: 0 21G<0 158 0 0 378 500 378 378 720 878 720 720> 698 20G<14 173 173 173 378 500 500 500 705 864 864 864>
VStem: 378 122<0 284 0 284 460 718>
LayerCount: 2
Fore
SplineSet
378 718 m 1
 500 718 l 1
 500 460 l 1
 705 718 l 1
 864 718 l 1
 586 374 l 1
 878 0 l 1
 720 0 l 1
 500 284 l 1
 500 0 l 1
 378 0 l 1
 378 284 l 1
 158 0 l 1
 0 0 l 1
 292 374 l 1
 14 718 l 1
 173 718 l 1
 378 460 l 1
 378 718 l 1
EndSplineSet
EndChar

StartChar: afii10026
Encoding: 431 1048 324
Width: 592
Flags: MW
HStem: 0 21G<57 186 57 57 422 422 422 536> 698 20G<57 171 171 171 414 536 536 536>
VStem: 57 114<203 718 203 718 203 718> 422 114<0 504 504 504>
LayerCount: 2
Fore
SplineSet
422 504 m 1
 186 0 l 1
 57 0 l 1
 57 718 l 1
 171 718 l 1
 171 203 l 1
 414 718 l 1
 536 718 l 1
 536 0 l 1
 422 0 l 1
 422 504 l 1
EndSplineSet
EndChar

StartChar: afii10027
Encoding: 432 1049 325
Width: 592
Flags: MW
HStem: 0 21G<57 186 57 57 422 422 422 536> 698 20G<57 171 171 171 414 536 536 536> 766 77<277 330.5 277 341>
VStem: 57 114<203 718 203 718 203 718> 422 114<0 504 504 504>
LayerCount: 2
Fore
SplineSet
389 912 m 1
 442 912 l 1
 432 815 383 766 299 766 c 0
 219 766 174 814 165 912 c 1
 219 912 l 1
 228 861 250 843 304 843 c 0
 357 843 378 860 389 912 c 1
422 504 m 1
 186 0 l 1
 57 0 l 1
 57 718 l 1
 171 718 l 1
 171 203 l 1
 414 718 l 1
 536 718 l 1
 536 0 l 1
 422 0 l 1
 422 504 l 1
EndSplineSet
EndChar

StartChar: afii10028
Encoding: 433 1050 326
Width: 592
Flags: MW
HStem: 0 21G<71 194 71 71 434 434 434 592> 698 20G<71 194 194 194 419 578 578 578>
VStem: 71 123<0 284 460 718>
LayerCount: 2
Fore
SplineSet
194 0 m 1
 71 0 l 1
 71 718 l 1
 194 718 l 1
 194 460 l 1
 419 718 l 1
 578 718 l 1
 280 374 l 1
 592 0 l 1
 434 0 l 1
 194 284 l 1
 194 0 l 1
EndSplineSet
EndChar

StartChar: afii10029
Encoding: 434 1051 327
Width: 592
Flags: MW
HStem: 0 121<15 103> 595 123<252 418 252 252>
VStem: 129 123<490 595 485 718> 418 123<0 595 595 595>
LayerCount: 2
Fore
SplineSet
418 595 m 1
 252 595 l 1
 252 485 l 1
 253 276 191 0 15 0 c 1
 15 121 l 1
 77 120 129 312 129 490 c 2
 129 718 l 1
 541 718 l 1
 541 0 l 1
 418 0 l 1
 418 595 l 1
EndSplineSet
EndChar

StartChar: afii10030
Encoding: 435 1052 328
Width: 683
Flags: MW
HStem: 0 21G<57 171 57 57 280 401 280 280 513 627 513 513> 698 20G<57 236 236 236 450 627 627 627>
VStem: 57 114<0 609 0 718 0 718> 513 114<0 609 609 609>
LayerCount: 2
Fore
SplineSet
627 718 m 1
 627 0 l 1
 513 0 l 1
 513 609 l 1
 401 0 l 1
 280 0 l 1
 171 609 l 1
 171 0 l 1
 57 0 l 1
 57 718 l 1
 236 718 l 1
 344 148 l 1
 450 718 l 1
 627 718 l 1
EndSplineSet
EndChar

StartChar: afii10031
Encoding: 436 1053 329
Width: 592
Flags: MW
HStem: 0 21G<58 181 58 58 411 411 411 534> 323 123<181 411 181 411> 698 20G<58 181 181 181 411 534 534 534>
VStem: 58 123<0 323 446 718> 411 123<0 323 323 323 446 718 0 718>
LayerCount: 2
Fore
SplineSet
411 323 m 1
 181 323 l 1
 181 0 l 1
 58 0 l 1
 58 718 l 1
 181 718 l 1
 181 446 l 1
 411 446 l 1
 411 718 l 1
 534 718 l 1
 534 0 l 1
 411 0 l 1
 411 323 l 1
EndSplineSet
EndChar

StartChar: afii10033
Encoding: 438 1055 331
Width: 592
Flags: MW
HStem: 0 21G<58 181 58 58 411 411 411 534> 595 123<181 411 181 181>
VStem: 58 123<0 595 0 718> 411 123<0 595 595 595>
LayerCount: 2
Fore
SplineSet
411 595 m 1
 181 595 l 1
 181 0 l 1
 58 0 l 1
 58 718 l 1
 534 718 l 1
 534 0 l 1
 411 0 l 1
 411 595 l 1
EndSplineSet
EndChar

StartChar: afii10034
Encoding: 439 1056 332
Width: 547
Flags: MW
HStem: 0 21G<62 185 62 62> 260 123<185 299 185 299 299 326> 595 123<185 283 185 185>
VStem: 62 123<0 260 383 595> 391 123<455 529>
LayerCount: 2
Fore
SplineSet
185 260 m 1
 185 0 l 1
 62 0 l 1
 62 718 l 1
 331 718 l 2
 442 718 514 630 514 495 c 0
 514 353 440 260 326 260 c 2
 185 260 l 1
185 383 m 1
 299 383 l 2
 361 383 391 418 391 492 c 0
 391 566 360 595 283 595 c 2
 185 595 l 1
 185 383 l 1
EndSplineSet
EndChar

StartChar: afii10036
Encoding: 441 1058 334
Width: 501
Flags: MW
HStem: 0 21G<189 312 189 189> 591 127<11 189 11 490 312 490 312 312>
VStem: 189 123<0 591 0 591>
LayerCount: 2
Fore
SplineSet
312 591 m 1
 312 0 l 1
 189 0 l 1
 189 591 l 1
 11 591 l 1
 11 718 l 1
 490 718 l 1
 490 591 l 1
 312 591 l 1
EndSplineSet
EndChar

StartChar: afii10037
Encoding: 442 1059 335
Width: 547
Flags: MW
HStem: 0 21G<86 225 86 86> 698 20G<12 157 157 157 396 535 535 535>
LayerCount: 2
Fore
SplineSet
225 0 m 1
 86 0 l 1
 214 282 l 1
 12 718 l 1
 157 718 l 1
 284 428 l 1
 396 718 l 1
 535 718 l 1
 225 0 l 1
EndSplineSet
EndChar

StartChar: afii10038
Encoding: 443 1060 336
Width: 816
Flags: MW
HStem: 0 21G<346 470 346 346> 698 20G<346 470 470 470>
VStem: 30 127<322 380.5 317.5 400.5> 346 124<0 78 78 78 203 516 640 718> 659 127<316.5 398.5 307.5 401.5>
LayerCount: 2
Fore
SplineSet
470 79 m 1
 470 0 l 1
 346 0 l 1
 346 78 l 1
 253 87 178 113 125 157 c 0
 64 207 30 281 30 363 c 0
 30 438 66 512 125 561 c 0
 177 604 255 631 346 639 c 1
 346 718 l 1
 470 718 l 1
 470 640 l 1
 562 632 639 604 691 561 c 0
 751 512 786 438 786 359 c 0
 786 256 728 166 632 119 c 0
 587 98 533 84 470 79 c 1
470 202 m 1
 588 217 659 274 659 359 c 0
 659 444 589 501 470 516 c 1
 470 202 l 1
346 203 m 1
 346 516 l 1
 290 508 240 491 209 465 c 1
 176 439 157 400 157 361 c 0
 157 274 228 217 346 203 c 1
EndSplineSet
EndChar

StartChar: afii10039
Encoding: 444 1061 337
Width: 547
Flags: MW
HStem: 0 21G<11 155 11 11 385 535 385 385> 698 20G<22 168 168 168 381 523 523 523>
LayerCount: 2
Fore
SplineSet
343 373 m 1
 535 0 l 1
 385 0 l 1
 273 245 l 1
 155 0 l 1
 11 0 l 1
 201 367 l 1
 22 718 l 1
 168 718 l 1
 273 486 l 1
 381 718 l 1
 523 718 l 1
 343 373 l 1
EndSplineSet
EndChar

StartChar: afii10040
Encoding: 445 1062 338
Width: 676
Flags: MW
HStem: 0 123<181 411 181 544> 698 20G<58 181 181 181 411 534 534 534>
VStem: 58 123<123 718 123 718 123 718> 411 123<123 718 120 718> 544 107<-120 0 0 0>
LayerCount: 2
Fore
SplineSet
411 123 m 1
 411 718 l 1
 534 718 l 1
 534 120 l 1
 651 120 l 1
 651 -120 l 1
 544 -120 l 1
 544 0 l 1
 58 0 l 1
 58 718 l 1
 181 718 l 1
 181 123 l 1
 411 123 l 1
EndSplineSet
EndChar

StartChar: afii10041
Encoding: 446 1063 339
Width: 562
Flags: MW
HStem: 0 21G<381 504 381 381> 241 123<264 296.5 264 297> 698 20G<50 173 173 173 381 504 504 504>
VStem: 50 123<417 421 421 718> 381 123<0 268 268 268 421 718 0 718>
LayerCount: 2
Fore
SplineSet
381 268 m 1
 360 253 336 241 258 241 c 0
 129 241 50 299 50 417 c 2
 50 718 l 1
 173 718 l 1
 173 421 l 2
 173 375 246 364 282 364 c 0
 311 364 381 379 381 421 c 2
 381 718 l 1
 504 718 l 1
 504 0 l 1
 381 0 l 1
 381 268 l 1
EndSplineSet
EndChar

StartChar: afii10042
Encoding: 447 1064 340
Width: 741
Flags: MW
HStem: 0 124<314 314 314 437 314 683> 698 20G<58 181 181 181 314 437 437 437 560 683 683 683>
VStem: 58 123<123 718 123 718 123 718> 314 123<124 718> 560 123<123 718 0 718>
LayerCount: 2
Fore
SplineSet
437 124 m 1
 560 123 l 1
 560 718 l 1
 683 718 l 1
 683 0 l 1
 58 0 l 1
 58 718 l 1
 181 718 l 1
 181 123 l 1
 314 124 l 1
 314 718 l 1
 437 718 l 1
 437 124 l 1
EndSplineSet
EndChar

StartChar: afii10043
Encoding: 448 1065 341
Width: 825
Flags: MW
HStem: 0 123<181 314 437 560> 698 20G<58 181 181 181 314 437 437 437 560 683 683 683>
VStem: 58 123<123 718 123 718 123 718> 314 123<123 718> 560 123<123 718 120 718> 693 107<-120 0 0 0>
LayerCount: 2
Fore
SplineSet
437 123 m 1
 560 123 l 1
 560 718 l 1
 683 718 l 1
 683 120 l 1
 800 120 l 1
 800 -120 l 1
 693 -120 l 1
 693 0 l 1
 58 0 l 1
 58 718 l 1
 181 718 l 1
 181 123 l 1
 314 123 l 1
 314 718 l 1
 437 718 l 1
 437 123 l 1
EndSplineSet
EndChar

StartChar: afii10044
Encoding: 449 1066 342
Width: 713
Flags: MW
HStem: 0 123<351 449 449 487.5 351 497> 335 123<351 492 351 465> 591 127<10 228 10 351>
VStem: 228 123<123 335 458 591 591 591> 557 123<189 263>
LayerCount: 2
Fore
SplineSet
228 0 m 1
 228 591 l 1
 10 591 l 1
 10 718 l 1
 351 718 l 1
 351 458 l 1
 492 458 l 2
 606 458 680 365 680 223 c 0
 680 88 608 0 497 0 c 2
 228 0 l 1
351 335 m 1
 351 123 l 1
 449 123 l 2
 526 123 557 152 557 226 c 0
 557 300 527 335 465 335 c 2
 351 335 l 1
EndSplineSet
EndChar

StartChar: afii10046
Encoding: 451 1068 344
Width: 547
Flags: MW
HStem: 0 123<185 283 283 321.5 185 331> 335 123<185 326 185 299> 698 20G<62 185 185 185>
VStem: 62 123<123 335 458 718> 391 123<189 263>
LayerCount: 2
Fore
SplineSet
185 458 m 1
 326 458 l 2
 440 458 514 365 514 223 c 0
 514 88 442 0 331 0 c 2
 62 0 l 1
 62 718 l 1
 185 718 l 1
 185 458 l 1
185 335 m 1
 185 123 l 1
 283 123 l 2
 360 123 391 152 391 226 c 0
 391 300 361 335 299 335 c 2
 185 335 l 1
EndSplineSet
EndChar

StartChar: afii10048
Encoding: 453 1070 346
Width: 914
Flags: MW
HStem: -19 127<545 634.5> 323 123<181 312 181 318> 610 127<558 616.5>
VStem: 58 123<0 323 446 718> 755 123<298.5 404>
LayerCount: 2
Fore
SplineSet
318 446 m 1
 328 528 353 594 393 642 c 0
 443 703 517 737 599 737 c 0
 674 737 748 701 797 642 c 0
 850 578 878 480 878 359 c 0
 878 238 850 140 797 76 c 0
 748 16 674 -19 595 -19 c 0
 492 -19 402 39 355 135 c 0
 331 186 316 250 312 323 c 1
 181 323 l 1
 181 0 l 1
 58 0 l 1
 58 718 l 1
 181 718 l 1
 181 446 l 1
 318 446 l 1
597 610 m 0
 496 610 435 516 435 361 c 0
 435 203 495 108 595 108 c 0
 695 108 755 203 755 362 c 0
 755 446 736 516 701 558 c 1
 675 591 636 610 597 610 c 0
EndSplineSet
EndChar

StartChar: afii10049
Encoding: 454 1071 347
Width: 570
Flags: MW
HStem: 0 21G<30 188 30 30 389 512 389 389> 595 123<252.5 291 291 389>
VStem: 60 123<455 529 455 562.5> 389 123<0 260 260 260 383 595 595 595>
LayerCount: 2
Fore
SplineSet
234 260 m 1
 127 267 60 358 60 495 c 0
 60 630 132 718 243 718 c 2
 512 718 l 1
 512 0 l 1
 389 0 l 1
 389 260 l 1
 188 0 l 1
 30 0 l 1
 234 260 l 1
389 383 m 1
 389 595 l 1
 291 595 l 2
 214 595 183 566 183 492 c 0
 183 418 213 383 275 383 c 2
 389 383 l 1
EndSplineSet
EndChar

StartChar: afii10066
Encoding: 456 1073 349
Width: 501
Flags: MW
HStem: -14 118<217 285 217 318.5> 428 118<239 285.5>
VStem: 29 118 357 118
LayerCount: 2
Fore
SplineSet
142 668 m 0
 226 718 290 708 328 718 c 0
 365 728 367 747 379 776 c 1
 483 776 l 1
 471 730 462 687 420 650 c 0
 373 609 324 615 272 598 c 0
 212 578 186 564 172 531 c 1
 197 541 224 546 254 546 c 0
 387 546 474 434 474 265 c 0
 474 96 386 -14 251 -14 c 0
 116 -14 28 96 28 265 c 0
 28 400 26 599 142 668 c 0
252 428 m 0
 183 428 146 372 146 266 c 0
 146 161 183 104 251 104 c 0
 319 104 356 161 356 266 c 0
 356 370 319 428 252 428 c 0
EndSplineSet
EndChar

StartChar: afii10067
Encoding: 457 1074 350
Width: 478
Flags: W
HStem: 0 106<166 230> 228 101<166 243 166 243 243 256> 426 106<166 166 166 240>
VStem: 54 112<106 228 106 329 329 426> 331 118<367 396.5> 345 123<147.5 174.5 138.5 193>
LayerCount: 2
Fore
SplineSet
54 0 m 1xf4
 54 532 l 1
 267 532 l 2
 380 532 449 479 449 393 c 0xf8
 449 341 428 310 377 287 c 1
 414 272 430 260 446 237 c 0
 460 216 468 189 468 160 c 0
 468 117 451 78 417 48 c 0
 376 11 332 0 230 0 c 2
 54 0 l 1xf4
166 228 m 1
 166 106 l 1
 250 106 l 2
 312 106 345 123 345 172 c 0xf4
 345 214 312 228 256 228 c 2
 166 228 l 1
166 426 m 1
 166 329 l 1
 243 329 l 2
 299 329 331 338 331 377 c 0xf8
 331 416 303 426 240 426 c 2
 166 426 l 1
EndSplineSet
EndChar

StartChar: afii10068
Encoding: 458 1075 351
Width: 384
Flags: MW
HStem: 0 21G<53 167 53 53> 418 114<167 371 167 167>
VStem: 53 114<0 418 0 532>
LayerCount: 2
Fore
SplineSet
371 532 m 1
 371 418 l 1
 167 418 l 1
 167 0 l 1
 53 0 l 1
 53 532 l 1
 371 532 l 1
EndSplineSet
EndChar

StartChar: afii10073
Encoding: 463 1079 356
Width: 456
Flags: W
HStem: -14 107<205 259 205 292> 223 94<225 235> 439 107<207 254.5>
VStem: 301 112<375 387.5 351 405.5> 311 115<131 162>
LayerCount: 2
Fore
SplineSet
235 223 m 2xe8
 188 224 l 1
 188 316 l 1
 225 317 l 2
 296 319 301 361 301 389 c 0
 301 422 277 439 232 439 c 0
 182 439 162 422 154 370 c 1
 41 370 l 1
 50 444 65 478 101 507 c 0
 132 532 178 546 232 546 c 0
 305 546 357 521 387 470 c 0
 404 441 413 406 413 369 c 0xf0
 413 333 404 304 386 280 c 1
 406 247 l 2
 422 222 426 197 426 166 c 0
 426 54 352 -14 232 -14 c 0
 173 -14 120 3 84 33 c 0
 46 64 32 97 25 170 c 1
 143 170 l 1
 145 117 174 93 236 93 c 0
 282 93 311 114 311 148 c 0
 311 176 301 222 235 223 c 2xe8
EndSplineSet
EndChar

StartChar: afii10074
Encoding: 464 1080 357
Width: 496
Flags: MW
HStem: 0 21G<53 184 53 53 334 448 334 334> 512 20G<53 167 167 167 317 448 448 448>
VStem: 53 114<189 532 189 532 189 532> 334 114<0 342 342 342>
LayerCount: 2
Fore
SplineSet
448 532 m 1
 448 0 l 1
 334 0 l 1
 334 342 l 1
 184 0 l 1
 53 0 l 1
 53 532 l 1
 167 532 l 1
 167 189 l 1
 317 532 l 1
 448 532 l 1
EndSplineSet
EndChar

StartChar: afii10075
Encoding: 465 1081 358
Width: 496
Flags: MW
HStem: 0 21G<53 184 53 53 334 448 334 334> 512 20G<53 167 167 167 317 448 448 448> 604 77<230 283.5 230 294>
VStem: 53 114<189 532 189 532 189 532> 334 114<0 342 342 342>
LayerCount: 2
Fore
SplineSet
342 750 m 1
 395 750 l 1
 385 653 336 604 252 604 c 0
 172 604 127 652 118 750 c 1
 172 750 l 1
 181 699 203 681 257 681 c 0
 310 681 331 698 342 750 c 1
448 532 m 1
 448 0 l 1
 334 0 l 1
 334 342 l 1
 184 0 l 1
 53 0 l 1
 53 532 l 1
 167 532 l 1
 167 189 l 1
 317 532 l 1
 448 532 l 1
EndSplineSet
EndChar

StartChar: afii10077
Encoding: 467 1083 360
Width: 496
Flags: MW
HStem: 0 21G<17 89.5 334 448 334 334> 418 114<201 334 201 201>
VStem: 87 114<381 387 387 418 328 532> 334 114<0 418 418 418>
LayerCount: 2
Fore
SplineSet
448 532 m 1
 448 0 l 1
 334 0 l 1
 334 418 l 1
 201 418 l 1
 201 387 l 2
 201 269 162 0 17 0 c 1
 17 115 l 1
 43 115 87 223 87 381 c 2
 87 532 l 1
 448 532 l 1
EndSplineSet
EndChar

StartChar: afii10078
Encoding: 468 1084 361
Width: 646
Flags: MW
HStem: 0 21G<53 167 53 53 259 380 259 259 479 593 479 479> 512 20G<53 231 231 231 415 593 593 593>
VStem: 53 114<0 313 0 532> 479 114<0 335 335 335>
LayerCount: 2
Fore
SplineSet
53 532 m 1
 231 532 l 1
 322 136 l 1
 415 532 l 1
 593 532 l 1
 593 0 l 1
 479 0 l 1
 479 335 l 1
 380 0 l 1
 259 0 l 1
 167 313 l 1
 167 0 l 1
 53 0 l 1
 53 532 l 1
EndSplineSet
EndChar

StartChar: afii10079
Encoding: 469 1085 362
Width: 496
Flags: MW
HStem: 0 21G<53 167 53 53 334 448 334 334> 221 114<167 334 167 334> 512 20G<53 167 167 167 334 448 448 448>
VStem: 53 114<0 221 335 532> 334 114<0 221 221 221 335 532 0 532>
LayerCount: 2
Fore
SplineSet
448 532 m 1
 448 0 l 1
 334 0 l 1
 334 221 l 1
 167 221 l 1
 167 0 l 1
 53 0 l 1
 53 532 l 1
 167 532 l 1
 167 335 l 1
 334 335 l 1
 334 532 l 1
 448 532 l 1
EndSplineSet
EndChar

StartChar: afii10081
Encoding: 471 1087 364
Width: 501
Flags: MW
HStem: 0 21G<53 167 53 53 334 448 334 334> 418 114<167 334 167 167>
VStem: 53 114<0 418 0 532> 334 114<0 418 418 418>
LayerCount: 2
Fore
SplineSet
448 532 m 1
 448 0 l 1
 334 0 l 1
 334 418 l 1
 167 418 l 1
 167 0 l 1
 53 0 l 1
 53 532 l 1
 448 532 l 1
EndSplineSet
EndChar

StartChar: afii10082
Encoding: 472 1088 365
Width: 501
Flags: W
HStem: -14 115<259.5 289.5 228 345.5> 424 122<260.5 288.5>
VStem: 51 110<209 314 452 532> 51 114<-207 71 -207 532> 356 118<215 314.5>
LayerCount: 2
Fore
SplineSet
161 532 m 1xe8
 161 452 l 1xe8
 194 519 231 546 290 546 c 0
 401 546 474 437 474 272 c 0
 474 97 402 -14 289 -14 c 0
 230 -14 195 10 165 71 c 1
 165 -207 l 1
 51 -207 l 1xd8
 51 532 l 1
 161 532 l 1xe8
258 424 m 0
 194 424 161 368 161 260 c 0
 161 158 196 101 260 101 c 0
 319 101 356 165 356 265 c 0
 356 364 319 424 258 424 c 0
EndSplineSet
EndChar

StartChar: afii10086
Encoding: 476 1092 369
Width: 786
Flags: MW
HStem: -14 115<211.5 241.5 544.5 574.5> 424 122<212.5 240.5 155.5 275 545.5 573.5>
VStem: 27 118<215 314.5 215 354.5> 336 114<-207 71 -207 71 452 637> 641 118<215 314.5>
LayerCount: 2
Fore
SplineSet
336 637 m 1
 450 637 l 1
 450 452 l 1
 481 524 516 546 575 546 c 0
 686 546 759 437 759 272 c 0
 759 97 687 -14 574 -14 c 0
 515 -14 480 10 450 71 c 1
 450 -207 l 1
 336 -207 l 1
 336 71 l 1
 306 10 271 -14 212 -14 c 0
 99 -14 27 97 27 272 c 0
 27 437 100 546 211 546 c 0
 270 546 313 522 336 452 c 1
 336 637 l 1
243 424 m 0
 182 424 145 364 145 265 c 0
 145 165 182 101 241 101 c 0
 305 101 340 158 340 260 c 0
 340 368 307 424 243 424 c 0
543 424 m 0
 479 424 446 368 446 260 c 0
 446 158 481 101 545 101 c 0
 604 101 641 165 641 265 c 0
 641 364 604 424 543 424 c 0
EndSplineSet
EndChar

StartChar: afii10088
Encoding: 478 1094 371
Width: 576
Flags: MW
HStem: 0 114<167 334 167 458> 512 20G<53 167 167 167 334 448 448 448>
VStem: 53 114<114 532 114 532 114 532> 334 114<114 532 110 532> 458 104<-120 0 0 0>
LayerCount: 2
Fore
SplineSet
458 0 m 1
 53 0 l 1
 53 532 l 1
 167 532 l 1
 167 114 l 1
 334 114 l 1
 334 532 l 1
 448 532 l 1
 448 110 l 1
 562 110 l 1
 562 -120 l 1
 458 -120 l 1
 458 0 l 1
EndSplineSet
EndChar

StartChar: afii10089
Encoding: 479 1095 372
Width: 451
Flags: MW
HStem: 0 21G<289 403 289 289> 179 97<150 230> 512 20G<35 149 149 149 289 403 403 403>
VStem: 35 114<315 318 318 532> 289 114<0 204 204 204 321 532 0 532>
LayerCount: 2
Fore
SplineSet
35 315 m 2
 35 532 l 1
 149 532 l 1
 149 318 l 2
 149 281 186 276 218 276 c 0
 242 276 289 283 289 321 c 2
 289 532 l 1
 403 532 l 1
 403 0 l 1
 289 0 l 1
 289 204 l 1
 261 179 213 179 184 179 c 0
 116 179 35 231 35 315 c 2
EndSplineSet
EndChar

StartChar: afii10091
Encoding: 481 1097 374
Width: 747
Flags: MW
HStem: 0 114<167 281 395 509> 512 20G<53 167 167 167 281 395 395 395 509 623 623 623>
VStem: 53 114<114 532 114 532 114 532> 281 114<114 532> 509 114<114 532 110 532> 633 104<-120 0 0 0>
LayerCount: 2
Fore
SplineSet
395 114 m 1
 509 114 l 1
 509 532 l 1
 623 532 l 1
 623 110 l 1
 737 110 l 1
 737 -120 l 1
 633 -120 l 1
 633 0 l 1
 53 0 l 1
 53 532 l 1
 167 532 l 1
 167 114 l 1
 281 114 l 1
 281 532 l 1
 395 532 l 1
 395 114 l 1
EndSplineSet
EndChar

StartChar: afii10092
Encoding: 482 1098 375
Width: 562
Flags: MW
HStem: 0 106<251 315> 228 101<251 328 251 328 328 341> 432 100<10 139 10 251>
VStem: 139 112<106 228 329 432 432 432> 430 123<147.5 174.5 138.5 193>
LayerCount: 2
Fore
SplineSet
10 532 m 1
 251 532 l 1
 251 329 l 1
 328 329 l 2
 487 329 515 260 531 237 c 0
 545 216 553 189 553 160 c 0
 553 117 536 78 502 48 c 0
 461 11 417 0 315 0 c 2
 139 0 l 1
 139 432 l 1
 10 432 l 1
 10 532 l 1
251 228 m 1
 251 106 l 1
 335 106 l 2
 397 106 430 123 430 172 c 0
 430 214 397 228 341 228 c 2
 251 228 l 1
EndSplineSet
EndChar

StartChar: afii10093
Encoding: 483 1099 376
Width: 682
Flags: MW
HStem: 0 106<166 230> 228 101<166 243 166 243 243 256> 512 20G<54 166 166 166 519 633 633 633>
VStem: 54 112<106 228 329 532> 345 123<147.5 174.5 138.5 193> 519 114<0 532 0 532>
LayerCount: 2
Fore
SplineSet
519 532 m 1
 633 532 l 1
 633 0 l 1
 519 0 l 1
 519 532 l 1
166 532 m 1
 166 329 l 1
 243 329 l 2
 402 329 430 260 446 237 c 0
 460 216 468 189 468 160 c 0
 468 117 451 78 417 48 c 0
 376 11 332 0 230 0 c 2
 54 0 l 1
 54 532 l 1
 166 532 l 1
166 228 m 1
 166 106 l 1
 250 106 l 2
 312 106 345 123 345 172 c 0
 345 214 312 228 256 228 c 2
 166 228 l 1
EndSplineSet
EndChar

StartChar: afii10094
Encoding: 484 1100 377
Width: 478
Flags: MW
HStem: 0 106<166 230> 228 101<166 243 166 243 243 256> 512 20G<54 166 166 166>
VStem: 54 112<106 228 329 532> 345 123<147.5 174.5 138.5 193>
LayerCount: 2
Fore
SplineSet
166 532 m 1
 166 329 l 1
 243 329 l 2
 402 329 430 260 446 237 c 0
 460 216 468 189 468 160 c 0
 468 117 451 78 417 48 c 0
 376 11 332 0 230 0 c 2
 54 0 l 1
 54 532 l 1
 166 532 l 1
166 228 m 1
 166 106 l 1
 250 106 l 2
 312 106 345 123 345 172 c 0
 345 214 312 228 256 228 c 2
 166 228 l 1
EndSplineSet
EndChar

StartChar: afii10095
Encoding: 485 1101 378
Width: 456
Flags: MW
HStem: -14 115<203 249.5 203 293.5> 221 114<201 306 201 310 201 306> 428 118<197.5 241.5>
VStem: 29 116<194 194>
LayerCount: 2
Fore
SplineSet
306 335 m 1
 295 397 265 428 218 428 c 0
 177 428 155 402 144 342 c 1
 28 342 l 1
 33 395 40 421 57 452 c 0
 90 512 151 546 223 546 c 0
 353 546 430 439 430 259 c 0
 430 84 358 -14 229 -14 c 0
 116 -14 46 59 29 194 c 1
 145 194 l 1
 150 138 181 101 225 101 c 0
 274 101 303 142 310 221 c 1
 201 221 l 1
 201 335 l 1
 306 335 l 1
EndSplineSet
EndChar

StartChar: afii10096
Encoding: 486 1102 379
Width: 722
Flags: MW
HStem: -14 118<438 506 438 539.5> 221 114<167 252 167 255> 428 118<438.5 506.5>
VStem: 53 114<0 221 335 532> 577 118<213.5 318>
LayerCount: 2
Fore
SplineSet
252 221 m 1
 167 221 l 1
 167 0 l 1
 53 0 l 1
 53 532 l 1
 167 532 l 1
 167 335 l 1
 255 335 l 1
 275 467 356 546 475 546 c 0
 608 546 695 434 695 265 c 0
 695 96 607 -14 472 -14 c 0
 349 -14 266 77 252 221 c 1
473 428 m 0
 404 428 367 372 367 266 c 0
 367 161 404 104 472 104 c 0
 540 104 577 161 577 266 c 0
 577 370 540 428 473 428 c 0
EndSplineSet
EndChar

StartChar: afii10097
Encoding: 487 1103 380
Width: 478
Flags: MW
HStem: 0 21G<24 162 24 24 312 312 312 424> 426 106<197 424 248 312>
VStem: 10 123<357.5 384.5 339 393.5> 312 112<0 203 203 203 304 426 426 426>
LayerCount: 2
Fore
SplineSet
312 203 m 1
 162 0 l 1
 24 0 l 1
 175 207 l 1
 70 222 46 275 32 295 c 0
 18 316 10 343 10 372 c 0
 10 415 27 454 61 484 c 0
 102 521 146 532 248 532 c 2
 424 532 l 1
 424 0 l 1
 312 0 l 1
 312 203 l 1
312 304 m 1
 312 426 l 1
 228 426 l 2
 166 426 133 409 133 360 c 0
 133 318 166 304 222 304 c 2
 312 304 l 1
EndSplineSet
EndChar

StartChar: uni0450
Encoding: 503 1104 396
Width: 456
Flags: MW
HStem: -14 113<203 253.5 203 256.5> 227 92<137 315 137 433 134 315> 431 115<199.5 251>
LayerCount: 2
Fore
SplineSet
245 632 m 1
 125 778 l 1
 251 778 l 1
 328 632 l 1
 245 632 l 1
310 157 m 1
 428 157 l 1
 409 91 392 60 355 29 c 1
 322 0 281 -14 232 -14 c 0
 96 -14 19 88 19 268 c 0
 19 442 97 546 226 546 c 0
 359 546 433 441 433 252 c 2
 433 227 l 1
 134 227 l 1
 141 138 172 99 234 99 c 0
 273 99 299 119 310 157 c 1
137 319 m 1
 315 319 l 1
 307 394 277 431 225 431 c 0
 174 431 147 396 137 319 c 1
EndSplineSet
EndChar

StartChar: afii10099
Encoding: 504 1106 397
Width: 511
Flags: MW
HStem: -179 118<270 296 270 326> 0 21G<63 177 63 63> 378 118<277 296> 550 73<2 63 2 63 177 325> 698 20G<63 177 177 177>
VStem: 63 114<0 255 409 550 623 718> 344 114<42 273 273 310>
LayerCount: 2
Fore
SplineSet
270 -179 m 1
 270 -61 l 1
 322 -61 344 -30 344 42 c 2
 344 273 l 2
 344 347 322 378 270 378 c 0
 213 378 177 331 177 255 c 2
 177 0 l 1
 63 0 l 1
 63 550 l 1
 2 550 l 1
 2 623 l 1
 63 623 l 1
 63 718 l 1
 177 718 l 1
 177 623 l 1
 325 623 l 1
 325 550 l 1
 177 550 l 1
 177 409 l 1
 200 466 246 496 308 496 c 0
 399 496 458 426 458 318 c 2
 458 -1 l 2
 458 -142 382 -179 270 -179 c 1
EndSplineSet
EndChar

StartChar: afii10100
Encoding: 505 1107 398
Width: 384
Flags: MW
HStem: 0 21G<53 167 53 53> 418 114<167 371 167 167>
VStem: 53 114<0 418 0 532>
LayerCount: 2
Fore
SplineSet
373 770 m 1
 253 624 l 1
 170 624 l 1
 247 770 l 1
 373 770 l 1
371 532 m 1
 371 418 l 1
 167 418 l 1
 167 0 l 1
 53 0 l 1
 53 532 l 1
 371 532 l 1
EndSplineSet
EndChar

StartChar: afii10101
Encoding: 506 1108 399
Width: 456
Flags: MW
HStem: -14 115<208.5 255 208.5 285.5> 221 114<152 257 152 257 148 257> 428 118<216.5 260.5>
VStem: 313 116<194 194>
LayerCount: 2
Fore
SplineSet
152 335 m 1
 257 335 l 1
 257 221 l 1
 148 221 l 1
 155 142 184 101 233 101 c 0
 277 101 308 138 313 194 c 1
 429 194 l 1
 412 59 342 -14 229 -14 c 0
 100 -14 28 84 28 259 c 0
 28 439 105 546 235 546 c 0
 307 546 368 512 401 452 c 0
 418 421 425 395 430 342 c 1
 314 342 l 1
 303 402 281 428 240 428 c 0
 193 428 163 397 152 335 c 1
EndSplineSet
EndChar

StartChar: afii10103
Encoding: 508 1110 401
Width: 228
Flags: MW
HStem: 0 21G<57 171 57 57> 512 20G<57 171 171 171> 595 130<57 171 57 171>
VStem: 57 114<0 532 0 532 595 725>
LayerCount: 2
Fore
SplineSet
57 532 m 1
 171 532 l 1
 171 0 l 1
 57 0 l 1
 57 532 l 1
171 725 m 1
 171 595 l 1
 57 595 l 1
 57 725 l 1
 171 725 l 1
EndSplineSet
EndChar

StartChar: afii10104
Encoding: 509 1111 402
Width: 228
Flags: W
HStem: 0 21G<57 171 57 57> 512 20G<57 171 171 171> 614 115<-17 86 -17 86 -17 143 143 246>
VStem: -17 103<614 729 614 729> 57 114<0 532 0 532> 143 103<614 729 614 729>
LayerCount: 2
Fore
SplineSet
57 532 m 1xe8
 171 532 l 1
 171 0 l 1
 57 0 l 1
 57 532 l 1xe8
86 729 m 1xf0
 86 614 l 1
 -17 614 l 1
 -17 729 l 1
 86 729 l 1xf0
246 729 m 1xe4
 246 614 l 1
 143 614 l 1
 143 729 l 1
 246 729 l 1xe4
EndSplineSet
EndChar

StartChar: afii10106
Encoding: 511 1113 404
Width: 764
Flags: MW
HStem: 0 106<446 510> 228 101<446 523 446 523 523 536> 418 114<201 334 201 201>
VStem: 87 114<381 387 387 418 328 532> 334 112<106 228 329 418 418 418> 625 123<147.5 174.5 138.5 193>
LayerCount: 2
Fore
SplineSet
334 0 m 1
 334 418 l 1
 201 418 l 1
 201 387 l 2
 201 269 162 0 17 0 c 1
 17 115 l 1
 43 115 87 223 87 381 c 2
 87 532 l 1
 446 532 l 1
 446 329 l 1
 523 329 l 2
 682 329 710 260 726 237 c 0
 740 216 748 189 748 160 c 0
 748 117 731 78 697 48 c 0
 656 11 612 0 510 0 c 2
 334 0 l 1
446 228 m 1
 446 106 l 1
 530 106 l 2
 592 106 625 123 625 172 c 0
 625 214 592 228 536 228 c 2
 446 228 l 1
EndSplineSet
EndChar

StartChar: afii10107
Encoding: 512 1114 405
Width: 758
Flags: W
HStem: 0 106<446 510> 221 114<167 334 167 334> 228 101<446 523 446 523 523 536> 512 20G<53 167 167 167 334 446 446 446>
VStem: 53 114<0 221 335 532> 334 112<106 221 221 221 335 532> 625 123<147.5 174.5 138.5 193>
LayerCount: 2
Fore
SplineSet
446 532 m 1xde
 446 329 l 1
 523 329 l 2xbe
 682 329 710 260 726 237 c 0
 740 216 748 189 748 160 c 0
 748 117 731 78 697 48 c 0
 656 11 612 0 510 0 c 2
 334 0 l 1
 334 221 l 1
 167 221 l 1
 167 0 l 1
 53 0 l 1
 53 532 l 1
 167 532 l 1
 167 335 l 1
 334 335 l 1
 334 532 l 1
 446 532 l 1xde
446 228 m 1
 446 106 l 1
 530 106 l 2
 592 106 625 123 625 172 c 0
 625 214 592 228 536 228 c 2
 446 228 l 1
EndSplineSet
EndChar

StartChar: afii10108
Encoding: 513 1115 406
Width: 511
Flags: MW
HStem: 0 21G<63 177 63 63 344 458 344 344> 378 118<277 296> 550 73<2 63 2 63 177 325> 698 20G<63 177 177 177>
VStem: 63 114<0 255 409 550 623 718> 344 114<0 273 273 310>
LayerCount: 2
Fore
SplineSet
63 623 m 1
 63 718 l 1
 177 718 l 1
 177 623 l 1
 325 623 l 1
 325 550 l 1
 177 550 l 1
 177 409 l 1
 200 466 246 496 308 496 c 0
 399 496 458 426 458 318 c 2
 458 0 l 1
 344 0 l 1
 344 273 l 2
 344 347 322 378 270 378 c 0
 213 378 177 331 177 255 c 2
 177 0 l 1
 63 0 l 1
 63 550 l 1
 2 550 l 1
 2 623 l 1
 63 623 l 1
EndSplineSet
EndChar

StartChar: afii10109
Encoding: 514 1116 407
Width: 456
Flags: MW
HStem: 0 21G<57 171 57 57 323 323 323 461> 512 20G<57 171 171 171 315 456 456 456>
VStem: 57 114<0 208 346 532>
LayerCount: 2
Fore
SplineSet
394 770 m 1
 274 624 l 1
 191 624 l 1
 268 770 l 1
 394 770 l 1
171 0 m 1
 57 0 l 1
 57 532 l 1
 171 532 l 1
 171 346 l 1
 315 532 l 1
 456 532 l 1
 254 282 l 1
 461 0 l 1
 323 0 l 1
 171 208 l 1
 171 0 l 1
EndSplineSet
EndChar

StartChar: uni045D
Encoding: 515 1117 408
Width: 496
Flags: MW
HStem: 0 21G<53 184 53 53 334 448 334 334> 512 20G<53 167 167 167 317 448 448 448>
VStem: 53 114<189 532 189 532 189 532> 334 114<0 342 342 342>
LayerCount: 2
Fore
SplineSet
269 632 m 1
 149 778 l 1
 275 778 l 1
 352 632 l 1
 269 632 l 1
448 532 m 1
 448 0 l 1
 334 0 l 1
 334 342 l 1
 184 0 l 1
 53 0 l 1
 53 532 l 1
 167 532 l 1
 167 189 l 1
 317 532 l 1
 448 532 l 1
EndSplineSet
EndChar

StartChar: afii10110
Encoding: 516 1118 409
Width: 456
Flags: MW
HStem: -214 112<91 151.5> 512 20G<8 136 136 136 320 442 442 442> 604 77<206 259.5 206 270>
VStem: 8 434<532 532>
LayerCount: 2
Fore
SplineSet
318 750 m 1
 371 750 l 1
 361 653 312 604 228 604 c 0
 148 604 103 652 94 750 c 1
 148 750 l 1
 157 699 179 681 233 681 c 0
 286 681 307 698 318 750 c 1
442 532 m 1
 292 9 l 2
 258 -110 242 -153 224 -177 c 0
 204 -204 177 -214 126 -214 c 0
 114 -214 98 -213 71 -212 c 1
 71 -100 l 1
 79 -101 87 -102 95 -102 c 0
 144 -102 158 -87 169 -22 c 1
 8 532 l 1
 136 532 l 1
 230 136 l 1
 320 532 l 1
 442 532 l 1
EndSplineSet
EndChar

StartChar: afii10193
Encoding: 517 1119 410
Width: 454
Flags: MW
HStem: 0 111<143 181 272 310 143 425 272 272> 512 20G<28 143 143 143 310 425 425 425>
VStem: 28 115<111 532 111 532 111 532> 181 91<-122 0 -122 0> 310 115<111 532 0 532>
LayerCount: 2
Fore
SplineSet
272 0 m 1
 272 -122 l 1
 181 -122 l 1
 181 0 l 1
 28 0 l 1
 28 532 l 1
 143 532 l 1
 143 111 l 1
 310 111 l 1
 310 532 l 1
 425 532 l 1
 425 0 l 1
 272 0 l 1
EndSplineSet
EndChar

StartChar: uni048C
Encoding: 518 1164 411
Width: 547
Flags: MW
HStem: 0 123<185 283 283 321.5 185 331> 335 123<185 326 185 299> 575 73<-5 62 -5 62 185 278> 698 20G<62 185 185 185>
VStem: 62 123<123 335 458 575 648 718> 391 123<189 263>
LayerCount: 2
Fore
SplineSet
185 335 m 1
 185 123 l 1
 283 123 l 2
 360 123 391 152 391 226 c 0
 391 300 361 335 299 335 c 2
 185 335 l 1
185 648 m 1
 278 648 l 1
 278 575 l 1
 185 575 l 1
 185 458 l 1
 326 458 l 2
 440 458 514 365 514 223 c 0
 514 88 442 0 331 0 c 2
 62 0 l 1
 62 575 l 1
 -5 575 l 1
 -5 648 l 1
 62 648 l 1
 62 718 l 1
 185 718 l 1
 185 648 l 1
EndSplineSet
EndChar

StartChar: uni048D
Encoding: 519 1165 412
Width: 478
Flags: MW
HStem: 0 106<166 249> 228 101<166 270 166 256> 395 73<-5 54 -5 54 166 278> 512 20G<54 166 166 166>
VStem: 54 112<106 228 106 329 329 395 468 532> 345 123<147.5 191 106 193>
LayerCount: 2
Fore
SplineSet
166 228 m 1
 166 106 l 1
 250 106 l 2
 312 106 345 123 345 172 c 0
 345 214 312 228 256 228 c 2
 166 228 l 1
54 468 m 1
 54 532 l 1
 166 532 l 1
 166 468 l 1
 278 468 l 1
 278 395 l 1
 166 395 l 1
 166 329 l 1
 270 329 l 2
 453 329 468 222 468 160 c 0
 468 52 410 0 249 0 c 2
 54 0 l 1
 54 395 l 1
 -5 395 l 1
 -5 468 l 1
 54 468 l 1
EndSplineSet
EndChar

StartChar: uni048E
Encoding: 520 1166 413
Width: 578
Flags: MW
HStem: 0 21G<62 185 62 62> 260 123<185 299 185 299 299 304 185 326> 595 123<185 283 185 185>
VStem: 62 123<0 260 383 595> 391 123<485 529>
LayerCount: 2
Fore
SplineSet
185 383 m 1
 299 383 l 2
 309 383 318 384 326 386 c 1
 268 444 l 1
 332 509 l 1
 388 453 l 1
 390 465 391 478 391 492 c 0
 391 566 360 595 283 595 c 2
 185 595 l 1
 185 383 l 1
185 260 m 1
 185 0 l 1
 62 0 l 1
 62 718 l 1
 331 718 l 2
 442 718 514 630 514 495 c 0
 514 441 503 394 484 357 c 1
 554 287 l 1
 490 222 l 1
 424 288 l 1
 396 270 363 260 326 260 c 2
 185 260 l 1
EndSplineSet
EndChar

StartChar: uni048F
Encoding: 521 1167 414
Width: 531
Flags: W
HStem: -14 115<259.5 270 228 311> 424 122<260.5 288.5>
VStem: 51 110<209 314 452 532> 51 114<-207 71 -207 532> 356 118<255 314.5>
LayerCount: 2
Fore
SplineSet
258 424 m 0xe8
 194 424 161 368 161 260 c 0
 161 158 196 101 260 101 c 0
 280 101 297 108 311 122 c 1
 234 199 l 1
 297 264 l 1
 352 209 l 1
 355 226 356 245 356 265 c 0
 356 364 319 424 258 424 c 0xe8
161 532 m 1
 161 452 l 1xe8
 194 519 231 546 290 546 c 0
 401 546 474 437 474 272 c 0
 474 210 465 156 448 113 c 1
 529 32 l 1
 466 -33 l 1
 400 33 l 1
 370 3 333 -14 289 -14 c 0
 230 -14 195 10 165 71 c 1
 165 -207 l 1
 51 -207 l 1xd8
 51 532 l 1
 161 532 l 1
EndSplineSet
EndChar

StartChar: afii10050
Encoding: 522 1168 415
Width: 501
Flags: MW
HStem: 0 21G<62 185 62 62> 591 127<185 358 62 481 185 185>
VStem: 62 123<0 591> 358 123<718 822 591 822>
LayerCount: 2
Fore
SplineSet
185 0 m 1
 62 0 l 1
 62 718 l 1
 358 718 l 1
 358 822 l 1
 481 822 l 1
 481 591 l 1
 185 591 l 1
 185 0 l 1
EndSplineSet
EndChar

StartChar: afii10098
Encoding: 523 1169 416
Width: 384
Flags: MW
HStem: 0 21G<53 167 53 53> 418 115<263 263 263 371 167 263>
VStem: 53 114<0 418 0 532> 263 108<533 640 418 640>
LayerCount: 2
Fore
SplineSet
371 640 m 1
 371 418 l 1
 167 418 l 1
 167 0 l 1
 53 0 l 1
 53 532 l 1
 263 533 l 1
 263 640 l 1
 371 640 l 1
EndSplineSet
EndChar

StartChar: uni0492
Encoding: 524 1170 417
Width: 501
Flags: MW
HStem: 0 21G<62 185 62 62> 425 98<0 62 0 62 185 359> 591 127<185 481 185 185>
VStem: 62 123<0 425 0 425 523 591>
LayerCount: 2
Fore
SplineSet
185 425 m 1
 185 0 l 1
 62 0 l 1
 62 425 l 1
 0 425 l 1
 0 523 l 1
 62 523 l 1
 62 718 l 1
 481 718 l 1
 481 591 l 1
 185 591 l 1
 185 523 l 1
 359 523 l 1
 359 425 l 1
 185 425 l 1
EndSplineSet
EndChar

StartChar: uni0493
Encoding: 525 1171 418
Width: 384
Flags: MW
HStem: 0 21G<53 167 53 53> 256 89<0 53 0 53 167 280> 418 114<167 371 167 167>
VStem: 53 114<0 256 0 256 345 418>
LayerCount: 2
Fore
SplineSet
53 256 m 1
 0 256 l 1
 0 345 l 1
 53 345 l 1
 53 532 l 1
 371 532 l 1
 371 418 l 1
 167 418 l 1
 167 345 l 1
 280 345 l 1
 280 256 l 1
 167 256 l 1
 167 0 l 1
 53 0 l 1
 53 256 l 1
EndSplineSet
EndChar

StartChar: uni0494
Encoding: 526 1172 419
Width: 571
Flags: MW
HStem: 0 21G<62 186 62 62 517 517> 354 123<270.5 303> 591 127<185 481 185 185>
VStem: 62 123<450 450 450 591> 394 123<4 297 297 301>
LayerCount: 2
Fore
SplineSet
185 450 m 1
 206 465 231 477 309 477 c 0
 438 477 517 419 517 301 c 2
 517 0 l 2
 517 -126 432 -176 285 -176 c 1
 285 -53 l 1
 321 -53 394 -42 394 4 c 2
 394 297 l 2
 394 343 321 354 285 354 c 0
 256 354 186 339 186 297 c 2
 186 0 l 1
 62 0 l 1
 62 718 l 1
 481 718 l 1
 481 591 l 1
 185 591 l 1
 185 450 l 1
EndSplineSet
EndChar

StartChar: uni0495
Encoding: 527 1173 420
Width: 500
Flags: MW
HStem: -179 118<259 285 259 315> 0 21G<53 167 53 53> 208 118<266.5 285> 418 114<167 371 167 167>
VStem: 53 114<0 106 241 418> 333 114<42 103 103 140>
LayerCount: 2
Fore
SplineSet
371 532 m 1
 371 418 l 1
 167 418 l 1
 167 241 l 1
 190 297 236 326 297 326 c 0
 388 326 447 256 447 148 c 2
 447 -1 l 2
 447 -142 371 -179 259 -179 c 1
 259 -61 l 1
 311 -61 333 -30 333 42 c 2
 333 103 l 2
 333 177 311 208 259 208 c 0
 208 208 173 170 167 106 c 1
 167 0 l 1
 53 0 l 1
 53 532 l 1
 371 532 l 1
EndSplineSet
EndChar

StartChar: uni0496
Encoding: 528 1174 421
Width: 878
Flags: MW
HStem: -20 20G<0 158 0 0 378 500 378 378 720 771 720 720> 698 20G<14 173 173 173 378 500 500 500 705 864 864 864>
VStem: 378 122<0 284 0 284 460 718> 771 107<-120 0 0 0>
LayerCount: 2
Fore
SplineSet
784 120 m 1
 878 120 l 1
 878 -120 l 1
 771 -120 l 1
 771 0 l 1
 720 0 l 1
 500 284 l 1
 500 0 l 1
 378 0 l 1
 378 284 l 1
 158 0 l 1
 0 0 l 1
 292 374 l 1
 14 718 l 1
 173 718 l 1
 378 460 l 1
 378 718 l 1
 500 718 l 1
 500 460 l 1
 705 718 l 1
 864 718 l 1
 586 374 l 1
 784 120 l 1
EndSplineSet
EndChar

StartChar: uni0497
Encoding: 529 1175 422
Width: 684
Flags: MW
HStem: -20 20G<-5 133 -5 -5 284 399 284 284 551 585 551 551> 512 20G<0 141 141 141 285 399 399 399 543 684 684 684>
VStem: 285 114<0 208 346 532> 585 104<-120 0 0 0>
LayerCount: 2
Fore
SplineSet
608 110 m 1
 689 110 l 1
 689 -120 l 1
 585 -120 l 1
 585 0 l 1
 551 0 l 1
 399 208 l 1
 399 0 l 1
 284 0 l 1
 285 208 l 1
 133 0 l 1
 -5 0 l 1
 202 282 l 1
 0 532 l 1
 141 532 l 1
 285 346 l 1
 285 532 l 1
 399 532 l 1
 399 346 l 1
 543 532 l 1
 684 532 l 1
 482 282 l 1
 608 110 l 1
EndSplineSet
EndChar

StartChar: uni0498
Encoding: 530 1176 423
Width: 547
Flags: W
HStem: -228 57<262.5 274.5 257 306.5> 308 117<212 320 212 291> 614 123<240.5 309.5>
VStem: 32 118<221 221> 41 118<505 505> 302 77<-137.5 -108 -160.5 -107> 382 115<506.5 554> 398 118<167 219.5>
LayerCount: 2
Fore
SplineSet
212 308 m 1xf5
 212 425 l 1
 320 425 l 2
 367 425 382 486 382 527 c 0
 382 581 342 614 277 614 c 0
 204 614 168 581 159 505 c 1
 41 505 l 1
 50 655 132 737 273 737 c 0
 413 737 497 652 497 512 c 0xee
 497 450 480 401 447 369 c 1
 496 335 516 287 516 214 c 0
 516 84 441 -2 317 -17 c 1
 359 -46 379 -84 379 -132 c 0
 379 -189 337 -228 276 -228 c 0
 249 -228 229 -222 188 -204 c 1
 203 -155 l 1
 228 -165 250 -171 264 -171 c 0
 285 -171 302 -150 302 -125 c 0
 302 -89 280 -52 238 -17 c 1
 154 -8 92 32 59 98 c 0
 41 134 34 163 32 221 c 1
 150 221 l 1
 155 142 196 104 278 104 c 0
 354 104 398 138 398 196 c 0
 398 243 377 308 291 308 c 2
 212 308 l 1xf5
EndSplineSet
EndChar

StartChar: uni0499
Encoding: 531 1177 424
Width: 456
Flags: W
HStem: -228 57<221.5 233.5 216 265.5> 223 94<225 235> 439 107<207 254.5>
VStem: 261 77<-137.5 -106.5 -160.5 -106> 301 112<375 387.5 351 405.5> 311 115<131 162>
LayerCount: 2
Fore
SplineSet
235 223 m 2xe4
 188 224 l 1
 188 316 l 1
 225 317 l 2
 296 319 301 361 301 389 c 0
 301 422 277 439 232 439 c 0
 182 439 162 422 154 370 c 1
 41 370 l 1
 50 444 65 478 101 507 c 0
 132 532 178 546 232 546 c 0
 305 546 357 521 387 470 c 0
 404 441 413 406 413 369 c 0xe8
 413 333 404 304 386 280 c 1
 406 247 l 2
 422 222 426 197 426 166 c 0xe4
 426 66 367 1 269 -12 c 1
 316 -42 338 -81 338 -132 c 0
 338 -189 296 -228 235 -228 c 0
 208 -228 188 -222 147 -204 c 1
 162 -155 l 1
 187 -165 209 -171 223 -171 c 0
 244 -171 261 -150 261 -125 c 0xf0
 261 -87 236 -47 189 -11 c 1
 148 -5 111 10 84 33 c 0
 46 64 32 97 25 170 c 1
 143 170 l 1
 145 117 174 93 236 93 c 0
 282 93 311 114 311 148 c 0
 311 176 301 222 235 223 c 2xe4
EndSplineSet
EndChar

StartChar: uni049A
Encoding: 532 1178 425
Width: 592
Flags: MW
HStem: -20 20G<71 194 71 71 434 485 434 434> 698 20G<71 194 194 194 419 578 578 578>
VStem: 71 123<0 284 460 718> 485 107<-120 0 0 0>
LayerCount: 2
Fore
SplineSet
492 120 m 1
 592 120 l 1
 592 -120 l 1
 485 -120 l 1
 485 0 l 1
 434 0 l 1
 194 284 l 1
 194 0 l 1
 71 0 l 1
 71 718 l 1
 194 718 l 1
 194 460 l 1
 419 718 l 1
 578 718 l 1
 280 374 l 1
 492 120 l 1
EndSplineSet
EndChar

StartChar: uni049B
Encoding: 533 1179 426
Width: 456
Flags: MW
HStem: -20 20G<57 171 57 57 323 357 323 323> 512 20G<57 171 171 171 315 456 456 456>
VStem: 57 114<0 208 346 532> 357 104<-120 0 0 0>
LayerCount: 2
Fore
SplineSet
380 110 m 1
 461 110 l 1
 461 -120 l 1
 357 -120 l 1
 357 0 l 1
 323 0 l 1
 171 208 l 1
 171 0 l 1
 57 0 l 1
 57 532 l 1
 171 532 l 1
 171 346 l 1
 315 532 l 1
 456 532 l 1
 254 282 l 1
 380 110 l 1
EndSplineSet
EndChar

StartChar: uni049C
Encoding: 534 1180 427
Width: 592
Flags: MW
HStem: 0 21G<71 194 71 71 434 434 434 592> 698 20G<71 194 194 194 419 578 578 578>
VStem: 71 123<0 284 460 718> 226 74<106 159 106 246 582 650>
LayerCount: 2
Fore
SplineSet
194 0 m 1
 71 0 l 1
 71 718 l 1
 194 718 l 1
 194 460 l 1
 226 497 l 1
 226 650 l 1
 300 650 l 1
 300 582 l 1
 419 718 l 1
 578 718 l 1
 300 397 l 1
 300 350 l 1
 592 0 l 1
 434 0 l 1
 300 159 l 1
 300 106 l 1
 226 106 l 1
 226 246 l 1
 194 284 l 1
 194 0 l 1
EndSplineSet
EndChar

StartChar: uni049D
Encoding: 535 1181 428
Width: 456
Flags: MW
HStem: 0 21G<57 171 57 57 323 323 323 461> 512 20G<57 171 171 171 315 456 456 456>
VStem: 57 114<0 208 346 532> 196 74<37 73 37 174 474 510>
LayerCount: 2
Fore
SplineSet
171 0 m 1
 57 0 l 1
 57 532 l 1
 171 532 l 1
 171 346 l 1
 196 378 l 1
 196 510 l 1
 270 510 l 1
 270 474 l 1
 315 532 l 1
 456 532 l 1
 270 302 l 1
 270 260 l 1
 461 0 l 1
 323 0 l 1
 270 73 l 1
 270 37 l 1
 196 37 l 1
 196 174 l 1
 171 208 l 1
 171 0 l 1
EndSplineSet
EndChar

StartChar: uni049E
Encoding: 536 1182 429
Width: 592
Flags: MW
HStem: 0 21G<71 194 71 71 434 434 434 592> 572 82<-2 71 -2 71 194 271> 698 20G<71 194 194 194 419 578 578 578>
VStem: 71 123<0 284 460 572 654 718>
LayerCount: 2
Fore
SplineSet
194 0 m 1
 71 0 l 1
 71 572 l 1
 -2 572 l 1
 -2 654 l 1
 71 654 l 1
 71 718 l 1
 194 718 l 1
 194 654 l 1
 271 654 l 1
 271 572 l 1
 194 572 l 1
 194 460 l 1
 419 718 l 1
 578 718 l 1
 280 374 l 1
 592 0 l 1
 434 0 l 1
 194 284 l 1
 194 0 l 1
EndSplineSet
EndChar

StartChar: uni049F
Encoding: 537 1183 430
Width: 456
Flags: MW
HStem: 0 21G<57 171 57 57 323 323 323 461> 422 72<9 57 9 57 171 217> 512 20G<57 171 171 171 315 456 456 456>
VStem: 57 114<0 208 346 422 494 532>
LayerCount: 2
Fore
SplineSet
171 0 m 1
 57 0 l 1
 57 422 l 1
 9 422 l 1
 9 494 l 1
 57 494 l 1
 57 532 l 1
 171 532 l 1
 171 494 l 1
 217 494 l 1
 217 422 l 1
 171 422 l 1
 171 346 l 1
 315 532 l 1
 456 532 l 1
 254 282 l 1
 461 0 l 1
 323 0 l 1
 171 208 l 1
 171 0 l 1
EndSplineSet
EndChar

StartChar: uni04A0
Encoding: 538 1184 431
Width: 749
Flags: MW
HStem: 0 21G<228 351 228 228 591 591 591 749> 591 127<10 228 10 351>
VStem: 228 123<0 284 460 591 591 591>
LayerCount: 2
Fore
SplineSet
351 0 m 1
 228 0 l 1
 228 591 l 1
 10 591 l 1
 10 718 l 1
 351 718 l 1
 351 460 l 1
 576 718 l 1
 735 718 l 1
 437 374 l 1
 749 0 l 1
 591 0 l 1
 351 284 l 1
 351 0 l 1
EndSplineSet
EndChar

StartChar: uni04A1
Encoding: 539 1185 432
Width: 536
Flags: MW
HStem: 0 21G<137 251 137 137 403 403 403 541> 432 100<10 137 10 251>
VStem: 137 114<0 208 346 432 432 432>
LayerCount: 2
Fore
SplineSet
251 0 m 1
 137 0 l 1
 137 432 l 1
 10 432 l 1
 10 532 l 1
 251 532 l 1
 251 346 l 1
 395 532 l 1
 536 532 l 1
 334 282 l 1
 541 0 l 1
 403 0 l 1
 251 208 l 1
 251 0 l 1
EndSplineSet
EndChar

StartChar: uni04A2
Encoding: 540 1186 433
Width: 676
Flags: MW
HStem: -20 20G<58 181 58 58 411 411 411 544> 0 21G<58 181 58 58 411 411 411 544> 323 123<181 411 181 411> 698 20G<58 181 181 181 411 534 534 534>
VStem: 58 123<0 323 446 718> 411 123<120 323 323 323 446 718 120 718> 544 107<-120 0 0 0>
LayerCount: 2
Fore
SplineSet
411 323 m 1xfe
 181 323 l 1
 181 0 l 1
 58 0 l 1
 58 718 l 1
 181 718 l 1
 181 446 l 1
 411 446 l 1
 411 718 l 1
 534 718 l 1
 534 120 l 1
 651 120 l 1
 651 -120 l 1
 544 -120 l 1
 544 0 l 1
 411 0 l 1
 411 323 l 1xfe
EndSplineSet
EndChar

StartChar: uni04A3
Encoding: 541 1187 434
Width: 576
Flags: MW
HStem: -20 20G<53 167 53 53 334 458 334 334> 0 21G<53 167 53 53 334 458 334 334> 221 114<167 334 167 334> 512 20G<53 167 167 167 334 448 448 448>
VStem: 53 114<0 221 335 532> 334 114<110 221 221 221 335 532 110 532> 458 104<-120 0 0 0>
LayerCount: 2
Fore
SplineSet
334 0 m 1xfe
 334 221 l 1
 167 221 l 1
 167 0 l 1
 53 0 l 1
 53 532 l 1
 167 532 l 1
 167 335 l 1
 334 335 l 1
 334 532 l 1
 448 532 l 1
 448 110 l 1
 562 110 l 1
 562 -120 l 1
 458 -120 l 1
 458 0 l 1
 334 0 l 1xfe
EndSplineSet
EndChar

StartChar: uni04A6
Encoding: 542 1190 435
Width: 919
Flags: MW
HStem: 0 21G<58 181 58 58 411 534 411 411 865 865> 354 123<618.5 651> 595 123<181 411 181 181>
VStem: 58 123<0 595 0 718> 411 123<0 297 450 595 595 595> 742 123<4 297 297 301>
LayerCount: 2
Fore
SplineSet
534 450 m 1
 555 465 579 477 657 477 c 0
 786 477 865 419 865 301 c 2
 865 0 l 2
 865 -126 780 -176 633 -176 c 1
 633 -53 l 1
 669 -53 742 -42 742 4 c 2
 742 297 l 2
 742 343 669 354 633 354 c 0
 604 354 534 339 534 297 c 2
 534 0 l 1
 411 0 l 1
 411 595 l 1
 181 595 l 1
 181 0 l 1
 58 0 l 1
 58 718 l 1
 534 718 l 1
 534 450 l 1
EndSplineSet
EndChar

StartChar: uni04A7
Encoding: 543 1191 436
Width: 777
Flags: W
HStem: -179 118<540 566 540 596> 0 21G<53 167 53 53 334 448 334 334> 318 118<547.5 566> 418 114<167 334 167 167>
VStem: 53 114<0 418 0 532> 334 114<0 216 351 418 418 418> 614 114<42 213 213 250>
LayerCount: 2
Fore
SplineSet
448 216 m 1xee
 448 0 l 1
 334 0 l 1
 334 418 l 1
 167 418 l 1
 167 0 l 1
 53 0 l 1
 53 532 l 1
 448 532 l 1xde
 448 351 l 1
 471 407 517 436 578 436 c 0
 669 436 728 366 728 258 c 2
 728 -1 l 2
 728 -142 652 -179 540 -179 c 1
 540 -61 l 1
 592 -61 614 -30 614 42 c 2
 614 213 l 2
 614 287 592 318 540 318 c 0
 489 318 454 280 448 216 c 1xee
EndSplineSet
EndChar

StartChar: uni04A8
Encoding: 544 1192 437
Width: 592
Flags: MW
HStem: -19 130<262 318 262 333> 607 130<264.5 332.5>
VStem: 36 125<279.5 435 279.5 474> 301 111<292 318 292 352.5> 450 114<288 319.5>
LayerCount: 2
Fore
SplineSet
437 221 m 1
 445 244 450 271 450 305 c 0
 450 334 449 344 428 344 c 0
 413 344 412 331 412 305 c 0
 412 279 421 250 437 221 c 1
522 117 m 1
 538 103 556 90 574 77 c 1
 502 -22 l 1
 483 -6 465 10 448 26 c 1
 408 -4 360 -19 306 -19 c 0
 139 -19 36 124 36 357 c 0
 36 591 141 737 309 737 c 0
 402 737 479 691 524 610 c 0
 546 570 555 540 561 483 c 1
 438 483 l 1
 429 522 422 538 409 559 c 1
 388 589 353 607 312 607 c 0
 217 607 161 514 161 356 c 0
 161 203 216 111 308 111 c 0
 328 111 346 115 363 124 c 1
 324 181 301 243 301 320 c 0
 301 385 360 448 426 448 c 0
 502 448 564 390 564 316 c 0
 564 236 548 168 522 117 c 1
EndSplineSet
EndChar

StartChar: uni04A9
Encoding: 545 1193 438
Width: 456
Flags: MW
HStem: -14 21G<164.5 246.5> 428 118<209 260.5>
VStem: 28 118<212.5 318.5 212.5 349> 200 97<189 204 186 238.5> 325 104<187.5 202>
LayerCount: 2
Fore
SplineSet
396 80 m 1
 432 63 l 1
 397 -18 l 1
 371 -9 347 1 326 12 c 1
 297 -4 264 -14 229 -14 c 0
 100 -14 28 84 28 259 c 0
 28 439 105 546 235 546 c 0
 307 546 368 512 401 452 c 0
 418 421 425 395 430 342 c 1
 314 342 l 1
 303 402 281 428 240 428 c 0
 178 428 146 372 146 265 c 0
 146 160 173 105 226 101 c 1
 209 132 200 168 200 210 c 0
 200 267 248 314 308 314 c 0
 376 314 429 286 429 194 c 0
 429 153 417 114 396 80 c 1
310 146 m 1
 319 161 325 178 325 197 c 0
 325 207 320 232 310 232 c 0
 298 232 297 212 297 196 c 0
 297 176 302 160 310 146 c 1
EndSplineSet
EndChar

StartChar: uni04AA
Encoding: 546 1194 439
Width: 592
Flags: MW
HStem: -228 57<292.5 304.5 287 336.5> 607 130<264.5 332.5>
VStem: 36 125<279.5 435 279.5 474> 332 77<-137.5 -107.5 -160.5 -107>
LayerCount: 2
Fore
SplineSet
561 483 m 1
 438 483 l 1
 429 522 422 538 409 559 c 1
 388 589 353 607 312 607 c 0
 217 607 161 514 161 356 c 0
 161 203 216 111 308 111 c 0
 351 111 386 130 410 167 c 0
 423 188 429 206 438 246 c 1
 561 246 l 1
 545 161 529 120 495 74 c 0
 458 24 407 -7 347 -16 c 1
 389 -46 409 -83 409 -132 c 0
 409 -189 367 -228 306 -228 c 0
 279 -228 259 -222 218 -204 c 1
 233 -155 l 1
 258 -165 280 -171 294 -171 c 0
 315 -171 332 -150 332 -125 c 0
 332 -89 310 -51 267 -16 c 1
 123 5 36 143 36 357 c 0
 36 591 141 737 309 737 c 0
 402 737 479 691 524 610 c 0
 546 570 555 540 561 483 c 1
EndSplineSet
EndChar

StartChar: uni04AB
Encoding: 547 1195 440
Width: 456
Flags: W
HStem: -228 57<222.5 234.5 217 266.5> 428 118<209 260.5>
VStem: 28 118<210.5 318.5 210.5 349> 262 77<-137.5 -106> 313 116<194 194>
LayerCount: 2
Fore
SplineSet
313 194 m 1xe8
 429 194 l 1xe8
 414 76 358 5 269 -11 c 1
 317 -41 339 -80 339 -132 c 0
 339 -189 297 -228 236 -228 c 0
 209 -228 189 -222 148 -204 c 1
 163 -155 l 1
 188 -165 210 -171 224 -171 c 0
 245 -171 262 -150 262 -125 c 0xf0
 262 -87 237 -47 190 -11 c 1
 86 8 28 102 28 259 c 0
 28 439 105 546 235 546 c 0
 307 546 368 512 401 452 c 0
 418 421 425 395 430 342 c 1
 314 342 l 1
 303 402 281 428 240 428 c 0
 178 428 146 372 146 265 c 0
 146 156 175 101 233 101 c 0
 277 101 308 138 313 194 c 1xe8
EndSplineSet
EndChar
